<svg width="30" height="29" viewBox="0 0 30 29" fill="none" xmlns="http://www.w3.org/2000/svg">
<path fill-rule="evenodd" clip-rule="evenodd" d="M7.62712 14.1646C5.88692 14.1646 2.5 15.6872 2.5 17.4274V18.5421C2.5 22.6842 5.85786 26.0421 10 26.0421H20C24.1421 26.0421 27.5 22.6842 27.5 18.5421V17.2643C27.5 15.4846 24.661 14.1646 22.8814 14.1646H7.62712ZM0 10C0 4.47716 4.47715 0 10 0H20C25.5228 0 30 4.47715 30 10V18.5421C30 24.0649 25.5228 28.5421 20 28.5421H10C4.47715 28.5421 0 24.0649 0 18.5421V10ZM7.62712 4.67918H22.8813C24.8103 4.67918 26.3741 6.24293 26.3741 8.17191C26.3741 10.1009 24.8103 11.6646 22.8814 11.6646H7.62712C5.69814 11.6646 4.13438 10.1009 4.13438 8.17191C4.13438 6.24293 5.69813 4.67918 7.62712 4.67918Z" fill="#CD6E51"/>
<rect x="13.6211" y="15.2544" width="3.26877" height="5.44794" rx="1" fill="#CD6E51"/>
<path d="M15.7181 24.4993C15.4781 24.7903 15.0323 24.7903 14.7923 24.4993L11.3469 20.322C11.0241 19.9306 11.3025 19.3402 11.8098 19.3402H18.7006C19.2079 19.3402 19.4863 19.9306 19.1635 20.322L15.7181 24.4993Z" fill="#CD6E51"/>
</svg>
