<svg width="38" height="31" viewBox="0 0 38 31" fill="none" xmlns="http://www.w3.org/2000/svg">
<path d="M6.85283 19.9823C6.85283 19.9823 2.71718 16.6996 1.90315 15.3255C-0.643285 11.043 2.45332 4.16684 7.95617 3.02222" stroke="#CD6E51" stroke-width="2" stroke-linecap="round" stroke-linejoin="round"/>
<path d="M20.5713 19.4399L28.0448 23.3987" stroke="#CD6E51" stroke-width="2" stroke-linecap="round" stroke-linejoin="round"/>
<path d="M17.7637 22.1467L25.3009 25.8106" stroke="#CD6E51" stroke-width="2" stroke-linecap="round" stroke-linejoin="round"/>
<path d="M31.8576 20.9794L28.9007 18.5222L24.1006 16.0779" stroke="#CD6E51" stroke-width="2" stroke-linecap="round" stroke-linejoin="round"/>
<path d="M19.8632 26.9405C24.8343 30.0225 26.1191 26.7739 25.3057 25.8162C26.8908 26.7324 28.9056 25.5247 28.0487 23.4012C30.2774 24.4426 32.12 22.8182 31.8631 20.9862C33.7915 21.3195 34.9911 19.7785 34.4345 17.9459C38.3313 15.3607 37.3572 7.21584 34.3772 3.64665C28.9927 2.82399 27.9995 2.31483 22.2132 1.42338L14.3686 1.07464C13.2062 0.776364 12.0025 1.39621 11.5978 2.50288C11.1619 4.09069 10.6255 5.30579 9.51116 7.22683C9.08873 8.23387 9.57193 9.38582 10.5965 9.81378C11.7028 10.0826 12.2083 9.59614 13.1824 8.86313C14.455 7.67791 14.7061 7.17383 15.3885 6.28351L23.2968 9.78164L30.6718 13.8211C32.1294 14.7785 33.5777 17.1162 34.4462 17.949" stroke="#CD6E51" stroke-width="2" stroke-linecap="round" stroke-linejoin="round"/>
<path d="M16.3967 25.7336C17.0397 24.9007 17.9424 24.7677 18.7994 25.2259C19.614 25.6841 20.2135 26.5577 19.6563 27.5169L18.6277 29.2654C17.9848 30.0982 16.7852 30.2228 15.9711 29.6402C15.2557 29.1189 15.0481 28.2204 15.3473 27.4772C16.3967 25.7327 15.3473 27.4772 16.3967 25.7327V25.7336Z" stroke="#CD6E51" stroke-width="2" stroke-linecap="round" stroke-linejoin="round"/>
<path d="M13.1106 23.9462C13.7536 23.1134 14.6563 22.9803 15.5132 23.4386C16.3278 23.8967 16.9273 24.7704 16.3702 25.7295L15.3416 27.478C14.6986 28.3108 13.499 28.4354 12.685 27.8528C11.9695 27.3315 11.762 26.433 12.0612 25.6899C13.1106 23.9453 12.0612 25.6899 13.1106 23.9453V23.9462Z" stroke="#CD6E51" stroke-width="2" stroke-linecap="round" stroke-linejoin="round"/>
<path d="M9.26855 22.7627C9.9587 21.9356 10.9276 21.8035 11.8474 22.2586C12.7218 22.7136 13.3653 23.5813 12.7672 24.5338L11.6632 26.2703C10.9731 27.0974 9.6855 27.2212 8.81177 26.6426C8.04383 26.1248 7.82104 25.2325 8.14216 24.4944C9.26855 22.7618 8.14216 24.4944 9.26855 22.7618V22.7627Z" stroke="#CD6E51" stroke-width="2" stroke-linecap="round" stroke-linejoin="round"/>
<path d="M6.55198 20.3759C7.19497 19.5431 8.0977 19.41 8.95463 19.8683C9.76924 20.3264 10.3687 21.2001 9.81156 22.1592L8.78301 23.9077C8.14003 24.7405 6.94044 24.8651 6.12641 24.2825C5.41095 23.7612 5.20339 22.8627 5.50256 22.1195C6.55198 20.375 5.50256 22.1195 6.55198 20.375V20.3759Z" stroke="#CD6E51" stroke-width="2" stroke-linecap="round" stroke-linejoin="round"/>
</svg>
