<svg width="21" height="20" viewBox="0 0 21 20" fill="none" xmlns="http://www.w3.org/2000/svg">
<path d="M1.5 3H8.5M8.5 3C8.5 4.10457 9.39543 5 10.5 5C11.6046 5 12.5 4.10457 12.5 3M8.5 3C8.5 1.89543 9.39543 1 10.5 1C11.6046 1 12.5 1.89543 12.5 3M1.5 10H10.5M17.5 10H19.5M17.5 10C17.5 11.1046 16.6046 12 15.5 12C14.3954 12 13.5 11.1046 13.5 10C13.5 8.89543 14.3954 8 15.5 8C16.6046 8 17.5 8.89543 17.5 10ZM12.5 3H19.5M10.5 17H19.5M1.5 17H3.5M3.5 17C3.5 18.1046 4.39543 19 5.5 19C6.60457 19 7.5 18.1046 7.5 17C7.5 15.8954 6.60457 15 5.5 15C4.39543 15 3.5 15.8954 3.5 17Z" stroke="#CD6E51" stroke-width="2" stroke-linecap="round"/>
</svg>
