<svg width="32" height="33" viewBox="0 0 32 33" fill="none" xmlns="http://www.w3.org/2000/svg">
<path d="M1.93436 20.843C2.52836 20.0523 3.6196 19.8221 4.46944 20.3278C8.17138 22.5307 10.3403 24.3214 12.6926 27.1277C13.4296 28.0069 13.3241 29.3042 12.4934 30.0955V30.0955C11.2803 31.251 9.29086 30.6949 8.49802 29.219C7.30472 26.9976 5.59589 25.454 2.65404 23.8713C1.55072 23.2778 1.18183 21.8446 1.93436 20.843V20.843Z" fill="#292929"/>
<path d="M10.9451 30.4379C9.63441 30.1428 8.87896 28.7622 9.35275 27.5051C13.7581 15.8153 17.5231 9.68313 25.2466 2.03369C25.8674 1.41883 26.8792 1.46131 27.4537 2.11961V2.11961C28.0148 2.76253 27.936 3.74044 27.3047 4.3146C20.0485 10.9142 18.2651 17.2242 13.497 29.0979C13.091 30.109 12.008 30.6772 10.9451 30.4379V30.4379Z" fill="#292929"/>
</svg>
