<svg width="42" height="36" viewBox="0 0 42 36" fill="none" xmlns="http://www.w3.org/2000/svg">
<path d="M20.1064 22.3574L22.1968 23.6104V28.0896L20.5944 29.2362C21.4935 27.2309 20.9682 23.866 20.1064 22.3574Z" fill="#292929"/>
<path d="M14.0404 23.1218C13.8313 25.2237 15.7132 42.2295 21.7772 26.3701C21.7772 26.3701 23.2482 21.5932 23.2482 28.0898C23.2482 34.5864 14.74 38.2169 12.8583 32.4846C10.9765 26.7523 14.0404 23.1218 14.0404 23.1218Z" fill="#292929"/>
<path d="M38.2952 2.1036V2.1036C42.7169 2.89505 37.4885 7.8971 33.6834 10.1428C22.6188 16.6731 15.082 23.3997 13.8291 27.3257C12.3655 31.9116 14.0384 23.313 14.0384 23.122C14.0384 22.9309 33.7609 1.29201 38.2952 2.1036Z" fill="#292929"/>
<path d="M6.44004 17.0545C5.74132 17.3698 5.12399 17.6693 4.57858 17.9524C1.83166 19.3784 3.02752 21.1283 6.15523 20.6313C14.4588 19.3119 19.0669 18.1249 21.4396 25.1636C21.6584 25.8125 22.7066 25.8972 22.9448 25.265C23.0012 25.1154 22.9949 24.9463 22.9288 24.7971C18.5241 14.858 12.5971 14.2758 6.44004 17.0545Z" fill="#292929"/>
<path d="M13.6357 23.8862L18.0138 21.5933C16.7839 22.5501 13.8318 26.7523 15.2955 30.7649C16.7592 34.7776 13.6357 30.7649 13.6357 30.7649V23.8862Z" fill="#292929"/>
<path d="M21.1143 33.2288C21.5459 28.8437 21.5959 26.3853 20.9464 21.9991L21.1498 21.4026C24.3421 25.9506 24.4457 28.5211 21.3589 32.8672L21.1143 33.2288Z" fill="#292929"/>
</svg>
