<svg width="32" height="31" viewBox="0 0 32 31" fill="none" xmlns="http://www.w3.org/2000/svg">
<path d="M15.3203 19.6111L16.9131 20.7102V24.6392L15.6921 25.6449C16.3772 23.8859 15.977 20.9343 15.3203 19.6111Z" fill="#292929"/>
<path d="M10.6984 20.2815C10.5391 22.1252 11.973 37.042 16.5935 23.1308C16.5935 23.1308 17.7143 18.9407 17.7143 24.6392C17.7143 30.3378 11.2315 33.5223 9.79774 28.4941C8.36396 23.466 10.6984 20.2815 10.6984 20.2815Z" fill="#292929"/>
<path d="M29.1793 1.8452V1.8452C32.5582 2.54144 28.5734 6.92231 25.6892 8.88071C17.2455 14.6139 11.4929 20.5221 10.5374 23.969C9.42223 27.9916 10.6969 20.4493 10.6969 20.2817C10.6969 20.1141 25.7244 1.1333 29.1793 1.8452Z" fill="#292929"/>
<path d="M4.90728 14.9595C4.35105 15.2485 3.86251 15.5222 3.43344 15.7804C1.34933 17.0342 2.23734 18.5441 4.59621 18.1141C10.9967 16.9474 14.5352 15.863 16.3484 22.1143C16.5092 22.6687 17.3034 22.7103 17.4843 22.1575V22.1575C17.5265 22.0287 17.5225 21.8853 17.4743 21.7601C14.1179 13.0332 9.60028 12.5213 4.90728 14.9595Z" fill="#292929"/>
<path d="M10.3887 20.9519L13.7246 18.9407C12.7874 19.78 10.538 23.466 11.6533 26.9857C12.7686 30.5054 10.3887 26.9857 10.3887 26.9857V20.9519Z" fill="#292929"/>
<path d="M16.0879 29.147C16.4168 25.3005 16.4549 23.1441 15.96 19.2968L16.115 18.7735C18.5473 22.7629 18.6262 25.0176 16.2743 28.8298L16.0879 29.147Z" fill="#292929"/>
</svg>
