<svg width="50" height="50" viewBox="0 0 50 50" fill="none" xmlns="http://www.w3.org/2000/svg">
<path d="M50 25C50 38.8071 38.8071 50 25 50C11.1929 50 0 38.8071 0 25C0 11.1929 11.1929 0 25 0C38.8071 0 50 11.1929 50 25Z" fill="url(#paint0_radial_686_9075)"/>
<path d="M10.9348 27.843C11.5288 27.0523 12.6201 26.8221 13.4699 27.3278C17.1719 29.5307 19.3408 31.3214 21.6931 34.1277C22.4301 35.0069 22.3246 36.3042 21.4939 37.0955C20.2808 38.251 18.2913 37.6949 17.4985 36.219C16.3052 33.9976 14.5964 32.454 11.6545 30.8713C10.5512 30.2778 10.1823 28.8446 10.9348 27.843Z" fill="#CD6E51"/>
<path d="M19.9455 37.4379C18.6348 37.1428 17.8794 35.7622 18.3532 34.5051C22.7585 22.8153 26.5235 16.6831 34.247 9.03369C34.8678 8.41883 35.8796 8.46131 36.4541 9.11961C37.0152 9.76253 36.9364 10.7404 36.3051 11.3146C29.0489 17.9142 27.2655 24.2242 22.4974 36.0979C22.0914 37.109 21.0084 37.6772 19.9455 37.4379Z" fill="#CD6E51"/>
<defs>
<radialGradient id="paint0_radial_686_9075" cx="0" cy="0" r="1" gradientUnits="userSpaceOnUse" gradientTransform="translate(25 25) rotate(90) scale(25)">
<stop offset="0.75637" stop-color="#FEF2EF"/>
<stop offset="1" stop-color="#CD6E51"/>
</radialGradient>
</defs>
</svg>
