<svg width="20" height="19" viewBox="0 0 20 19" fill="none" xmlns="http://www.w3.org/2000/svg">
<path d="M1.52774 4.49002C0.899621 4.05181 0.76462 3.28667 1.22348 2.72549C1.6952 2.14857 2.62976 1.98585 3.33854 2.36383C9.89783 5.8617 13.536 8.67255 17.9709 14.6295C18.331 15.1132 18.3035 15.7305 17.9087 16.1906C17.243 16.9666 15.8642 16.9728 15.1605 16.2129C10.6932 11.3888 7.27661 8.50083 1.52774 4.49002Z" fill="#8B0000"/>
<path d="M17.4171 4.66871C18.0773 4.17734 18.2741 3.13882 17.8378 2.4174C17.4909 1.84388 16.8431 1.64941 16.2831 1.95794C10.4944 5.14689 6.67726 8.25754 2.26386 14.2639C1.69381 15.0396 1.76249 16.1891 2.3999 16.8198C3.00022 17.4139 3.9029 17.3442 4.48867 16.6684C8.95766 11.5123 12.1601 8.58167 17.4171 4.66871Z" fill="#8B0000"/>
</svg>
