<svg width="36" height="36" viewBox="0 0 36 36" fill="none" xmlns="http://www.w3.org/2000/svg">
<path d="M15.5378 3.4118C15.2738 1.89968 16.4272 0.5 17.9623 0.5C19.0146 0.5 19.9526 1.17618 20.2762 2.17746C20.8433 14.5 20.8433 20.5 20.8433 33.6865C20.5295 34.669 19.6584 35.3693 18.6332 35.4833C16.8419 35.6823 15.3792 34.0754 15.6965 32.3011C15.6965 21 15.6965 14 15.5378 3.4118Z" fill="#CD6E51"/>
<path d="M32.5882 15.0378C34.1004 14.7738 35.5 15.9272 35.5 17.4623C35.5 18.5146 34.8238 19.4526 33.8226 19.7762C20.5 20.3433 14 20.3433 2.31351 20.3433C1.33098 20.0295 0.630645 19.1584 0.516738 18.1332C0.317694 16.3419 1.92468 14.8792 3.69892 15.1965C14.5 15.1965 21 15.1965 32.5882 15.0378Z" fill="#CD6E51"/>
</svg>
