<svg width="31" height="31" viewBox="0 0 31 31" fill="none" xmlns="http://www.w3.org/2000/svg">
<path d="M29.5 15.5C29.5 23.2315 23.232 29.4992 15.5 29.4992C7.76795 29.4992 1.5 23.2315 1.5 15.5C1.5 7.76845 7.76795 1.50073 15.5 1.50073C23.232 1.50073 29.5 7.76845 29.5 15.5Z" stroke="#CD6E51" stroke-width="2"/>
<path d="M25.2143 15.5006C25.2143 20.8657 20.8651 25.2149 15.5001 25.2149C10.1349 25.2149 5.78571 20.8657 5.78571 15.5006C5.78571 10.1356 10.1349 5.78638 15.5001 5.78638C20.8651 5.78638 25.2143 10.1356 25.2143 15.5006Z" stroke="#CD6E51" stroke-width="2"/>
<path d="M20.0714 15.5006C20.0714 18.0253 18.0248 20.0721 15.5 20.0721C12.9753 20.0721 10.9286 18.0253 10.9286 15.5006C10.9286 12.9759 12.9753 10.9292 15.5 10.9292C18.0248 10.9292 20.0714 12.9759 20.0714 15.5006Z" stroke="#CD6E51" stroke-width="2"/>
</svg>
