<svg width="24" height="24" viewBox="0 0 24 24" fill="none" xmlns="http://www.w3.org/2000/svg">
<path d="M12.9279 11.2364C12.6552 11.6182 12.8189 12.1636 13.2552 12.4364C14.1279 12.9273 15.1098 13.4727 15.9279 14.2364C17.2916 13.2 18.9279 12.6 20.7279 12.4909C20.1279 11.4545 18.8734 10.7455 17.5643 10.1455C16.3098 9.6 16.037 9.10909 16.037 8.50909C16.037 7.96364 16.4189 7.47273 16.8007 6.98182C17.5643 6.27273 17.9461 5.29091 17.9461 4.09091C18.0007 1.90909 16.7461 0 14.4552 0C13.0916 0 12.1643 0.709091 11.5098 1.69091C13.0916 2.89091 14.0189 4.96364 14.0189 7.30909C13.9643 8.83636 13.5825 10.1455 12.9279 11.2364Z" fill="#CD6E51"/>
<path d="M14.2909 15.7636C13.5273 15 12.3818 14.5091 11.2364 13.9636C9.81818 13.3636 9.6 12.7636 9.6 12.1636C9.6 11.5636 9.98182 10.9091 10.4727 10.4727C11.2909 9.65453 11.7273 8.50907 11.7273 7.19998C11.7273 4.74544 10.3091 2.61816 7.8 2.61816H7.52727C5.01818 2.61816 3.6 4.74544 3.6 7.19998C3.6 8.50907 4.03636 9.65453 4.85455 10.4727C5.34545 10.9091 5.72727 11.5091 5.72727 12.1636C5.72727 12.7636 5.56364 13.3636 4.09091 13.9636C2.01818 14.8909 0.109091 15.8182 0 17.7818C0.109091 19.1454 1.03636 20.1818 2.23636 20.1818H12.3818C12.6545 18.4909 13.3091 16.9636 14.2909 15.7636Z" fill="#CD6E51"/>
<path d="M23.1816 17.4546H20.7271V15.0001C20.7271 14.5637 20.3453 14.1819 19.9089 14.1819H18.2725C17.8362 14.1819 17.4544 14.5637 17.4544 15.0001V17.4546H14.9998C14.5635 17.4546 14.1816 17.8364 14.1816 18.2728V19.9092C14.1816 20.3455 14.5635 20.7273 14.9998 20.7273H17.4544V23.1819C17.4544 23.6182 17.8362 24.0001 18.2725 24.0001H19.9089C20.3453 24.0001 20.7271 23.6182 20.7271 23.1819V20.7273H23.1816C23.618 20.7273 23.9998 20.3455 23.9998 19.9092V18.2728C23.9998 17.8364 23.618 17.4546 23.1816 17.4546Z" fill="#CD6E51"/>
</svg>
