<svg width="31" height="24" viewBox="0 0 31 24" fill="none" xmlns="http://www.w3.org/2000/svg">
<path d="M4.30029 1.58134V2.32553H1.4375C0.919737 2.32553 0.5 2.65872 0.5 3.06972V22.4186C0.5 22.8295 0.919737 23.1627 1.4375 23.1627H29.5625C30.0802 23.1627 30.5 22.8295 30.5 22.4186V3.06972C30.5 2.65872 30.0802 2.32553 29.5625 2.32553H26.6997V1.58134C26.6997 1.17035 26.2799 0.837158 25.7622 0.837158H20.0846C18.3174 0.837158 16.6618 1.43983 15.5 2.45978C14.3382 1.43983 12.6826 0.837158 10.9155 0.837158H5.23779C4.72003 0.837158 4.30029 1.17035 4.30029 1.58134ZM24.8247 3.01637C24.8231 3.034 24.8223 3.05178 24.8223 3.06972C24.8223 3.08765 24.8231 3.10544 24.8247 3.12306V18.6101H20.4129C18.9418 18.6101 17.5496 19.0135 16.4375 19.7164V3.93132C17.2368 2.93081 18.6102 2.32553 20.0846 2.32553H24.8247V3.01637ZM26.6997 3.8139H28.625V21.6744H16.6756C17.5222 20.6932 18.9149 20.0985 20.4129 20.0985H25.7622C26.2799 20.0985 26.6997 19.7652 26.6997 19.3543V3.8139ZM10.5871 20.0985C12.085 20.0985 13.4777 20.6932 14.3243 21.6744H2.375V3.8139H4.30029V19.3543C4.30029 19.7652 4.72003 20.0985 5.23779 20.0985H10.5871ZM6.17529 18.6101V3.12304C6.17686 3.10544 6.17767 3.08765 6.17767 3.06972C6.17767 3.05178 6.17686 3.034 6.17529 3.01639V2.32553H10.9155C12.3897 2.32553 13.7633 2.93081 14.5625 3.93132V19.7164C13.4504 19.0135 12.0583 18.6101 10.5871 18.6101H6.17529Z" fill="#CD6E51"/>
</svg>
