<svg width="115" height="39" viewBox="0 0 115 39" fill="none" xmlns="http://www.w3.org/2000/svg">
<path d="M0.516797 10.8504C0.516797 10.8504 0.806762 10.2812 1.63949 9.64949C3.14613 8.50656 6.55356 7.16779 13.111 5.98588C23.2927 4.15073 29.7498 6.0943 31.7901 8.90181C33.5267 11.2905 34.1569 15.4287 25.9301 20.246C21.7556 22.6894 7.85316 31.3756 4.37419 33.8909C3.80969 34.2988 3.48979 34.5222 3.2732 34.8559C3.10314 35.118 2.86511 35.488 2.86319 35.9134C2.70058 36.7773 3.17497 37.3581 5.36372 36.9313C8.20293 36.3766 19.3592 33.9925 29.8044 32.1471C31.8304 32.2279 31.8661 33.2336 32.7658 34.3258C34.23 38.2457 6.32041 38.6272 4.42009 38.8509C4.3465 38.86 3.99279 38.8851 3.9192 38.8817C3.03373 38.836 -2.29215 38.3544 1.14053 33.4036C5.56551 27.0205 20.7016 20.868 24.8951 18.4017C33.5267 13.3254 32.6792 9.20653 24.539 8.30379C15.587 7.31317 7.42309 10.1812 2.23965 12.2172C1.95496 12.3261 1.48886 12.6362 1.20417 12.5272C0.700896 12.3446 0.0776228 11.3457 0.516797 10.8504Z" fill="#CD6E51"/>
<path d="M54.656 10.9584C54.4185 9.92421 56.0107 8.67507 56.0107 8.67507C56.0107 8.67507 57.4288 7.81194 57.4905 7.79095C59.0476 7.26123 76.6961 1.67574 82.0861 10.3787C82.1753 10.5961 82.3576 11.5691 82.2842 12.0124C82.1635 12.7416 81.9574 13.8655 79.1527 15.8933C74.4833 19.2693 61.3412 28.6299 60.9127 29.3877C60.9127 29.3877 60.6967 29.6538 60.6056 29.7822C60.0696 30.5378 59.3708 31.5911 61.7519 31.3951C64.8196 31.1425 68.8894 29.3261 76.4239 30.0617C76.4239 30.0617 83.7622 30.7311 79.7179 32.3895C78.4644 32.9035 70.0448 32.4825 61.7408 32.8514C61.7408 32.8514 52.0218 33.2876 59.3385 26.8516C59.3385 26.8516 66.3854 21.0628 72.2477 18.1348C73.1055 17.7064 74.0398 17.1543 74.8746 16.6924C75.2265 16.4978 75.6484 16.1904 75.9485 16.0236C75.9485 16.0236 76.4666 15.6961 76.9923 15.405C79.0067 14.2895 83.3422 11.6943 80.6067 10.1231C77.2396 8.18903 62.5554 7.66191 56.2671 11.3781C56.1581 11.4426 55.9809 11.5275 55.8212 11.5613C55.789 11.5681 55.7483 11.5706 55.716 11.5809C55.7067 11.5839 55.7015 11.5842 55.6928 11.5853C55.6746 11.5878 55.6539 11.589 55.6384 11.5903C55.6354 11.5906 55.6248 11.5925 55.6219 11.593C55.4452 11.6213 55.266 11.4868 55.1379 11.4212C54.889 11.2938 54.7116 11.2006 54.656 10.9584Z" fill="#CD6E51"/>
<path d="M108.218 27.6642C108.475 27.6459 107.796 28.2862 108.218 27.6642C108.087 28.2025 106.137 29.5598 105.223 28.9766C104.687 28.6344 104.763 28.542 105.279 27.1209C105.795 25.6998 107.582 19.7393 106.187 19.0397C105.25 18.5695 103.37 19.5738 102.237 20.2825C101.971 20.4452 101.645 20.1847 101.762 19.9036C102.061 19.1823 102.381 18.259 102.279 17.8162C102.12 17.1315 101.295 17.3278 101.085 17.3905C101.054 17.3991 101.027 17.4171 101.007 17.4419C100.499 18.0742 93.0271 26.879 91.1873 27.6642C89.2787 28.4802 85.8555 29.2517 83.4305 28.4163C81.2453 27.6631 82.335 25.9854 82.7575 25.5631C82.8207 25.502 82.9235 25.502 82.9866 25.5631C83.3083 25.8701 84.2709 26.4933 86.9119 25.2322L86.9772 25.1979C87.4175 24.9548 91.4093 23.1962 92.576 20.4765C92.7274 20.3463 93.6693 17.3001 90.7019 17.3686C90.6837 17.3687 89.8285 17.5 89.8285 17.5C89.5801 17.5867 87.6068 17.9928 85.4242 19.3358C82.8407 20.9253 80.3216 23.6135 80.0347 26.8767C80.0347 26.8767 79.5884 29.3145 82.0964 30.0335C84.2716 30.657 85.8279 31.5078 89.8422 30.427C90.1896 30.3334 90.4895 30.3416 91.064 30.0426C91.2839 29.9281 92.3525 29.323 93.1612 28.6642C93.9751 28.0012 94.3841 27.4828 94.5351 27.3083C94.7812 27.0443 95.5429 26.3389 95.5524 26.3218L96.8621 24.9126C97.0822 24.6686 97.4737 24.9583 97.2847 25.2253C95.979 27.1655 94.4289 29.5347 94.2734 30.0825C94.0075 31.0423 95.2776 31.2489 95.6693 31.0423C96.0384 30.8506 98.8135 25.8051 99.1506 25.1888C99.1732 25.1477 99.1921 25.1066 99.2111 25.0633C100.082 22.9862 103.225 20.5735 103.953 21.8152C104.736 23.1562 103.899 28.329 103.79 29.2122C103.809 29.7474 103.887 29.8986 104.144 30.0955C104.513 30.3774 105.158 30.3272 105.293 30.3393C105.267 30.3506 105.321 30.3417 105.293 30.3393C106.205 30.3601 107.216 29.9468 108.215 28.915C109.557 28.1892 108.672 26.9943 108.218 27.6642ZM90.2769 19.1732C92.4134 19.3923 86.5594 22.9051 84.5 23.6504C84.3439 23.706 84.1624 23.5449 84.1447 23.3681C84.3586 21.6317 88.3208 18.9746 90.2769 19.1732Z" fill="#CD6E51"/>
<path d="M38.7794 15.5839C38.7794 15.5839 39.0167 14.9848 39.9912 15.5839C40.9657 16.1831 38.3853 25.5129 35.8369 32.6184C35.8369 32.6184 46.2619 8.72493 47.7468 18.2819C47.7468 18.2819 53.9297 12.6292 53.1724 17.903C52.4151 23.1768 50.4519 27.315 53.2365 29.763C53.2365 29.763 56.9522 31.5624 52.8299 32.1741C52.8299 32.1741 49.6566 31.7442 49.3836 26.96C49.1106 22.1759 49.748 18.7429 49.748 18.7429C49.748 18.7429 47.5512 18.5974 46.5798 21.9955C46.4756 22.3598 46.3381 22.8106 46.1347 23.3877C46.1347 23.3877 43.2316 33.1662 43.2625 33.5451C43.2625 33.5451 42.3533 34.4581 41.5651 32.9654L45.6566 18.9758C45.6566 18.9758 44.2774 19.0156 43.0051 21.5844C42.9602 21.6751 42.3683 22.6821 42.3252 22.7767C42.1703 23.117 41.7765 23.8643 41.3945 24.568C39.7006 27.6883 36.231 35.1817 36.231 35.1817C36.231 35.1817 33.7763 36.1723 33.8677 33.8407C33.9591 31.5091 38.0221 17.233 38.7794 15.5839Z" fill="#CD6E51"/>
<path d="M40.9014 11.2882C41.5038 11.2882 41.9922 10.8186 41.9922 10.2394C41.9922 9.66013 41.5038 9.19055 40.9014 9.19055C40.2989 9.19055 39.8105 9.66013 39.8105 10.2394C39.8105 10.8186 40.2989 11.2882 40.9014 11.2882Z" fill="#CD6E51"/>
<path d="M109.783 5.27379C109.838 4.86864 111.498 4.55707 110.668 3.48885C109.763 2.32248 107.968 3.16473 107.687 3.94535C106.958 5.97909 106.52 6.11376 106.181 7.00166C105.843 7.88956 106.716 7.89413 106.716 7.89413C106.866 7.91695 107.691 6.77227 108.103 6.18223C108.175 6.08023 108.275 5.99881 108.391 5.94659C108.507 5.89436 108.635 5.87326 108.763 5.8855C108.907 5.89953 109.042 5.95938 109.146 6.05555L109.977 6.81221C110.127 6.95053 110.219 7.13689 110.236 7.33605C110.248 7.47985 110.261 7.64191 110.265 7.74691C110.274 7.97516 110.846 8.17031 110.997 8.09841C111.148 8.02652 111.217 7.1135 111.217 7.1135C111.019 5.82045 109.726 5.68008 109.783 5.27379ZM108.629 4.53082C108.642 4.37911 108.701 4.2345 108.8 4.1154C108.831 4.07322 108.871 4.03792 108.917 4.01193C108.963 3.98593 109.015 3.96984 109.068 3.96476C109.238 3.94764 109.504 3.991 109.527 4.04236C109.551 4.09372 109.379 4.59816 109.066 4.76935C108.92 4.84924 108.63 4.69174 108.629 4.53082Z" fill="#CD6E51"/>
<path d="M108.66 1.18056e-07C107.526 0.000225829 106.416 0.323976 105.473 0.930315C104.53 1.53665 103.794 2.39835 103.36 3.40645C102.926 4.41454 102.813 5.52376 103.034 6.59386C103.256 7.66395 103.802 8.64686 104.605 9.41829C105.407 10.1897 106.43 10.715 107.543 10.9278C108.656 11.1406 109.809 11.0313 110.858 10.6137C111.906 10.1961 112.802 9.48898 113.432 8.58176C114.063 7.67454 114.399 6.60795 114.399 5.51687C114.399 4.79229 114.251 4.0748 113.962 3.40539C113.674 2.73598 113.251 2.12775 112.718 1.61545C112.185 1.10315 111.553 0.696801 110.857 0.419619C110.16 0.142438 109.414 -0.000149775 108.66 1.18056e-07ZM108.66 10.1116C107.715 10.1116 106.791 9.84212 106.005 9.33725C105.22 8.83237 104.607 8.11477 104.245 7.2752C103.884 6.43562 103.789 5.51177 103.974 4.62048C104.158 3.72919 104.613 2.91049 105.281 2.26791C105.95 1.62532 106.801 1.18772 107.728 1.01043C108.655 0.833139 109.616 0.92413 110.489 1.27189C111.362 1.61966 112.109 2.20858 112.634 2.96418C113.159 3.71977 113.439 4.60812 113.439 5.51687C113.439 6.12026 113.315 6.71774 113.075 7.2752C112.835 7.83265 112.483 8.33917 112.039 8.76583C111.596 9.19249 111.069 9.53094 110.489 9.76185C109.909 9.99275 109.288 10.1116 108.66 10.1116Z" fill="#CD6E51"/>
</svg>
