<svg width="50" height="50" viewBox="0 0 50 50" fill="none" xmlns="http://www.w3.org/2000/svg">
<path d="M50 25C50 38.8071 38.8071 50 25 50C11.1929 50 0 38.8071 0 25C0 11.1929 11.1929 0 25 0C38.8071 0 50 11.1929 50 25Z" fill="url(#paint0_radial_1762_1558)"/>
<path d="M40.2535 20.1674C39.1628 18.65 40.9449 17.8426 40.2535 14.7316C39.5621 11.6205 36.7066 13.0764 35.3083 11.6205C33.91 10.1647 33.8887 8.87048 31.6972 8.2676C27.856 7.21109 25.4202 10.0154 22.0549 8.26768C18.6897 6.5199 14.8652 9.18144 14.2657 11.6205C13.8451 13.3317 13.5417 14.7101 10.9705 16.5292C7.97591 18.6478 8.13457 23.0566 10.2521 25.4821C12.3695 27.9076 11.7267 28.9776 11.6511 31.2605C11.5755 33.5433 13.882 35.8974 17.323 35.077C20.7639 34.2566 20.841 36.9588 24.6262 37.9085C28.7045 38.9316 27.7269 36.3747 31.6972 36.3034C35.6675 36.2321 36.4993 34.0919 37.2177 31.9875C37.9361 29.883 37.5202 29.2053 39.5621 27.0652C41.6039 24.925 42.2791 22.9853 40.2535 20.1674Z" fill="url(#paint1_linear_1762_1558)"/>
<path d="M24.9408 17.4612C19.5968 17.4612 15.2646 22.4437 15.2646 28.5898C15.2646 28.6276 15.2648 28.6654 15.2651 28.7032C15.2648 28.7409 15.2646 28.7786 15.2646 28.8164C15.2646 34.9639 19.5968 42.2444 24.9408 42.2444C30.2848 42.2444 34.617 34.9639 34.617 28.8164C34.617 28.7786 34.6168 28.7409 34.6165 28.7032C34.6168 28.6654 34.617 28.6276 34.617 28.5898C34.617 22.4437 30.2848 17.4612 24.9408 17.4612Z" fill="#705BBC"/>
<path d="M15.2682 28.514C15.2659 28.6145 15.2646 28.7153 15.2646 28.8164C15.2646 34.9639 19.5968 42.2444 24.9408 42.2444C30.2848 42.2444 34.617 34.9639 34.617 28.8164C34.617 28.7153 34.6158 28.6145 34.6135 28.514C34.4742 34.5949 30.1969 41.6379 24.9408 41.6379C19.6847 41.6379 15.4075 34.5949 15.2682 28.514Z" fill="black" fill-opacity="0.19"/>
<path d="M27.553 35.8234C27.553 37.1138 26.4209 38.1597 25.0246 38.1597C23.6281 38.1597 22.4961 37.1137 22.4961 35.8234C22.4961 34.5331 22.8332 34.689 25.0246 34.689C27.6201 34.689 27.553 34.5331 27.553 35.8234Z" fill="#DE8383"/>
<path fill-rule="evenodd" clip-rule="evenodd" d="M27.1307 34.7381C26.7458 35.1078 25.9563 35.433 25.0449 35.433C24.1639 35.433 23.3969 35.1292 22.999 34.7748C23.216 34.6794 23.6653 34.6809 24.5592 34.6841C24.7371 34.6847 24.9326 34.6854 25.1474 34.6854C25.3437 34.6854 25.5245 34.6847 25.6911 34.6841C26.4105 34.6815 26.8612 34.6797 27.1306 34.7381H27.1307Z" fill="#F9F9F9"/>
<path d="M39.9031 28.6156C39.9031 26.7544 38.3943 25.2456 36.5331 25.2456C34.6719 25.2456 33.1631 26.7544 33.1631 28.6156C33.1631 30.4768 34.6719 31.9856 36.5331 31.9856C38.3943 31.9856 39.9031 30.4768 39.9031 28.6156Z" fill="#705BBC"/>
<path d="M38.2115 26.9285L34.8076 30.1029L38.2115 26.9285Z" fill="#705BBC"/>
<path d="M38.2115 26.9285L34.8076 30.1029" stroke="black" stroke-opacity="0.19" stroke-width="0.816545" stroke-linecap="round" stroke-linejoin="round"/>
<path d="M10.5129 28.6156C10.5129 26.7544 12.0217 25.2456 13.8829 25.2456C15.7441 25.2456 17.2529 26.7544 17.2529 28.6156C17.2529 30.4768 15.7441 31.9856 13.8829 31.9856C12.0217 31.9856 10.5129 30.4768 10.5129 28.6156Z" fill="#705BBC"/>
<path d="M12.2045 26.9285L15.6084 30.1029" stroke="black" stroke-opacity="0.19" stroke-width="0.816545" stroke-linecap="round" stroke-linejoin="round"/>
<path d="M24.1073 31.3323L24.0882 31.5314C24.0252 32.1898 24.5429 32.7595 25.2044 32.7595C25.8799 32.7595 26.4022 32.1664 26.3166 31.4963L26.2978 31.3491C26.185 31.8422 25.7436 32.22 25.2044 32.22C24.6607 32.22 24.2141 31.8351 24.1073 31.3323H24.1073Z" fill="black" fill-opacity="0.19"/>
<path d="M17.6461 25.0852H15.3662V30.4235H17.6461V25.0852Z" fill="#D95946"/>
<path d="M32.3813 25.0851H34.6611V30.4233H32.3813V25.0851Z" fill="#D95946"/>
<path d="M34.0403 21.4749C34.4044 22.3564 34.6798 23.3933 34.6798 25.3674C34.0681 25.3674 32.5389 25.979 29.5362 24.3664C26.4865 22.7287 25.7053 21.0578 24.9764 19.9735C24.2535 21.4749 22.919 22.8283 20.9449 24.0606C18.9709 25.2929 16.2554 25.2283 15.3564 25.3674C15.3564 24.0821 15.4699 22.8095 15.9603 21.6221C16.4504 20.4353 17.1692 19.3564 18.0758 18.447C18.9814 17.5386 20.0573 16.8177 21.2418 16.3255C22.4255 15.8338 23.6946 15.5806 24.9764 15.5806C26.2582 15.5806 27.5273 15.8338 28.711 16.3255C29.8956 16.8177 30.9714 17.5386 31.8771 18.447C32.7833 19.3558 33.5499 20.2875 34.0403 21.4749Z" fill="#CB4531"/>
<path d="M19.5098 26.9602C19.8196 26.7166 20.296 26.2295 21.2252 26.2295C22.0146 26.2295 22.6785 26.7653 22.7977 26.9602" stroke="black" stroke-width="1.2" stroke-linecap="round"/>
<path d="M19.5098 29.494C19.8195 29.2505 20.296 28.7634 21.2252 28.7634C22.0146 28.7634 22.6785 29.2992 22.7976 29.494" stroke="black" stroke-width="0.6" stroke-linecap="round"/>
<path d="M27.3691 26.9602C27.6788 26.7166 28.1553 26.2295 29.0845 26.2295C29.874 26.2295 30.5378 26.7653 30.657 26.9602" stroke="black" stroke-width="1.2" stroke-linecap="round"/>
<path d="M27.3691 29.494C27.6788 29.2505 28.1553 28.7634 29.0845 28.7634C29.874 28.7634 30.5378 29.2992 30.657 29.494" stroke="black" stroke-width="0.6" stroke-linecap="round"/>
<defs>
<radialGradient id="paint0_radial_1762_1558" cx="0" cy="0" r="1" gradientUnits="userSpaceOnUse" gradientTransform="translate(25 25) rotate(90) scale(25)">
<stop offset="0.75637" stop-color="#705BBC" stop-opacity="0.2"/>
<stop offset="1" stop-color="#705BBC"/>
</radialGradient>
<linearGradient id="paint1_linear_1762_1558" x1="25.0819" y1="7.70483" x2="25.0819" y2="38.1498" gradientUnits="userSpaceOnUse">
<stop stop-color="#D95946"/>
<stop offset="0.473958" stop-color="#A963B9" stop-opacity="0.89"/>
<stop offset="0.703125" stop-color="#509167" stop-opacity="0.944427"/>
</linearGradient>
</defs>
</svg>
