<svg width="41" height="30" viewBox="0 0 41 30" fill="none" xmlns="http://www.w3.org/2000/svg">
<path d="M5.10664 1V2H1.25977C0.564022 2 0 2.44772 0 3V29C0 29.5522 0.564022 30 1.25977 30H39.0527C39.7484 30 40.3125 29.5522 40.3125 29V3C40.3125 2.44772 39.7484 2 39.0527 2H35.2059V1C35.2059 0.44772 34.6418 0 33.9461 0H26.3168C23.9421 0 21.7174 0.80984 20.1562 2.1804C18.595 0.80984 16.3704 0 13.9959 0H6.3664C5.67066 0 5.10664 0.44772 5.10664 1ZM32.6864 2.92832C32.6841 2.952 32.6831 2.9759 32.6831 3C32.6831 3.0241 32.6841 3.048 32.6864 3.07168V23.8824H26.7579C24.7811 23.8824 22.9103 24.4244 21.416 25.369V4.15778C22.4901 2.81334 24.3356 2 26.3168 2H32.6864V2.92832ZM35.2059 4H37.793V28H21.736C22.8736 26.6816 24.7451 25.8824 26.7579 25.8824H33.9461C34.6418 25.8824 35.2059 25.4346 35.2059 24.8824V4ZM13.5545 25.8824C15.5674 25.8824 17.4388 26.6816 18.5764 28H2.51953V4H5.10664V24.8824C5.10664 25.4346 5.67066 25.8824 6.3664 25.8824H13.5545ZM7.62617 23.8824V3.07166C7.62828 3.048 7.62937 3.0241 7.62937 3C7.62937 2.9759 7.62828 2.952 7.62617 2.92834V2H13.9959C15.9768 2 17.8225 2.81334 18.8965 4.15778V25.369C17.4021 24.4244 15.5314 23.8824 13.5545 23.8824H7.62617Z" fill="#CD6E51"/>
</svg>
