<svg width="46" height="37" viewBox="0 0 46 37" fill="none" xmlns="http://www.w3.org/2000/svg">
<path fill-rule="evenodd" clip-rule="evenodd" d="M0 9.24732C0 7.97164 1.03504 6.9375 2.30557 6.9375H40.8611C42.1344 6.9375 43.1667 7.96942 43.1667 9.24732V35.4583H0V9.24732Z" fill="#705BBC"/>
<path d="M21.584 37C22.8611 37 23.8965 35.9647 23.8965 34.6875C23.8965 33.4103 22.8611 32.375 21.584 32.375C20.3068 32.375 19.2715 33.4103 19.2715 34.6875C19.2715 35.9647 20.3068 37 21.584 37Z" fill="#48309D"/>
<path fill-rule="evenodd" clip-rule="evenodd" d="M2.3125 4.625C2.3125 4.625 7.13021 2.3125 11.9479 2.3125C16.7656 2.3125 21.5833 4.625 21.5833 4.625V33.1458C21.5833 33.1458 16.7656 30.8333 11.9479 30.8333C7.13021 30.8333 2.3125 33.1458 2.3125 33.1458V4.625Z" fill="#D8D8D8"/>
<path d="M5.39648 10.7917H18.5007V9.25H5.39648V10.7917Z" fill="#B6B6B6"/>
<path d="M5.39648 13.8752H12.334V12.3335H5.39648V13.8752Z" fill="#B6B6B6"/>
<path d="M5.39648 16.9582H16.1882V15.4165H5.39648V16.9582Z" fill="#B6B6B6"/>
<path fill-rule="evenodd" clip-rule="evenodd" d="M21.584 4.625C21.584 4.625 26.4017 2.3125 31.2194 2.3125C36.0371 2.3125 40.8548 4.625 40.8548 4.625V33.1458C40.8548 33.1458 36.0371 30.8333 31.2194 30.8333C26.4017 30.8333 21.584 33.1458 21.584 33.1458V4.625Z" fill="#E9E9E9"/>
<path d="M24.666 10.7917H38.541V9.25H24.666V10.7917Z" fill="#B6B6B6"/>
<path d="M24.666 13.8752H38.541V12.3335H24.666V13.8752Z" fill="#B6B6B6"/>
<path d="M24.666 16.9582H38.541V15.4165H24.666V16.9582Z" fill="#B6B6B6"/>
<path d="M24.666 20.0417H33.916V18.5H24.666V20.0417Z" fill="#B6B6B6"/>
<g filter="url(#filter0_d_1182_7403)">
<path d="M38.3483 0C37.0965 0 36.0096 0.702229 35.4577 1.7336C34.9058 0.702229 33.8189 0 32.5671 0C30.7579 0 29.291 1.4669 29.291 3.27604C29.291 7.70833 35.4577 10.7917 35.4577 10.7917C35.4577 10.7917 41.6243 7.70833 41.6243 3.27604C41.6243 1.4669 40.1575 0 38.3483 0Z" fill="#A64FBA"/>
</g>
<defs>
<filter id="filter0_d_1182_7403" x="25.291" y="0" width="20.334" height="18.7917" filterUnits="userSpaceOnUse" color-interpolation-filters="sRGB">
<feFlood flood-opacity="0" result="BackgroundImageFix"/>
<feColorMatrix in="SourceAlpha" type="matrix" values="0 0 0 0 0 0 0 0 0 0 0 0 0 0 0 0 0 0 127 0" result="hardAlpha"/>
<feOffset dy="4"/>
<feGaussianBlur stdDeviation="2"/>
<feComposite in2="hardAlpha" operator="out"/>
<feColorMatrix type="matrix" values="0 0 0 0 0 0 0 0 0 0 0 0 0 0 0 0 0 0 0.25 0"/>
<feBlend mode="normal" in2="BackgroundImageFix" result="effect1_dropShadow_1182_7403"/>
<feBlend mode="normal" in="SourceGraphic" in2="effect1_dropShadow_1182_7403" result="shape"/>
</filter>
</defs>
</svg>
