<svg width="39" height="38" viewBox="0 0 39 38" fill="none" xmlns="http://www.w3.org/2000/svg">
<path d="M19.3138 20.5832C20.1883 20.5832 20.8971 19.8743 20.8971 18.9998C20.8971 18.1254 20.1883 17.4165 19.3138 17.4165C18.4394 17.4165 17.7305 18.1254 17.7305 18.9998C17.7305 19.8743 18.4394 20.5832 19.3138 20.5832Z" stroke="#CD6E51" stroke-width="2" stroke-linecap="round" stroke-linejoin="round"/>
<path d="M19.3112 11.0835C17.7454 11.0835 16.2148 11.5478 14.9129 12.4177C13.611 13.2876 12.5963 14.524 11.9972 15.9706C11.398 17.4172 11.2412 19.0089 11.5467 20.5446C11.8521 22.0803 12.6061 23.4909 13.7133 24.5981C14.8204 25.7053 16.2311 26.4592 17.7667 26.7647C19.3024 27.0702 20.8942 26.9134 22.3408 26.3142C23.7874 25.715 25.0238 24.7003 25.8937 23.3984C26.7636 22.0965 27.2279 20.5659 27.2279 19.0002" stroke="#CD6E51" stroke-width="3" stroke-linecap="round" stroke-linejoin="round"/>
<path d="M20.9012 4.83665C17.9658 4.50734 15.0006 5.09835 12.4158 6.52793C9.831 7.9575 7.75431 10.155 6.473 12.8164C5.1917 15.4779 4.76911 18.4717 5.26369 21.3838C5.75827 24.2959 7.14557 26.9824 9.2337 29.0716C11.3218 31.1607 14.0076 32.5494 16.9194 33.0454C19.8313 33.5415 22.8254 33.1204 25.4874 31.8404C28.1495 30.5605 30.348 28.4849 31.7789 25.9008C33.2098 23.3167 33.8023 20.3518 33.4745 17.4162" stroke="#CD6E51" stroke-width="3" stroke-linecap="round" stroke-linejoin="round"/>
<path d="M24.0625 9.5V14.25H28.8125L33.5625 9.5H28.8125V4.75L24.0625 9.5Z" stroke="#CD6E51" stroke-width="3" stroke-linecap="round" stroke-linejoin="round"/>
<path d="M24.0625 14.25L19.3125 19" stroke="#CD6E51" stroke-width="3" stroke-linecap="round" stroke-linejoin="round"/>
</svg>
