<svg width="40" height="39" viewBox="0 0 40 39" fill="none" xmlns="http://www.w3.org/2000/svg">
<g filter="url(#filter0_d_1182_7381)">
<path d="M39 17.4991C39 27.1636 31.165 34.9982 21.5 34.9982C11.835 34.9982 4 27.1636 4 17.4991C4 7.83462 11.835 0 21.5 0C31.165 0 39 7.83462 39 17.4991Z" fill="#CB4531"/>
<path d="M36.3068 17.4993C36.3068 25.677 29.6772 32.3063 21.4991 32.3063C13.321 32.3063 6.69141 25.677 6.69141 17.4993C6.69141 9.32168 13.321 2.69238 21.4991 2.69238C29.6772 2.69238 36.3068 9.32168 36.3068 17.4993Z" fill="white"/>
<path d="M33.6155 17.4995C33.6155 24.1903 28.1913 29.6143 21.5002 29.6143C14.809 29.6143 9.38477 24.1903 9.38477 17.4995C9.38477 10.8087 14.809 5.38477 21.5002 5.38477C28.1913 5.38477 33.6155 10.8087 33.6155 17.4995Z" fill="#CB4531"/>
<path d="M30.9223 17.4998C30.9223 22.7037 26.7035 26.9224 21.4992 26.9224C16.295 26.9224 12.0762 22.7037 12.0762 17.4998C12.0762 12.2958 16.295 8.07715 21.4992 8.07715C26.7035 8.07715 30.9223 12.2958 30.9223 17.4998Z" fill="white"/>
<path d="M28.2311 17.4995C28.2311 21.2166 25.2176 24.2299 21.5003 24.2299C17.783 24.2299 14.7695 21.2166 14.7695 17.4995C14.7695 13.7824 17.783 10.769 21.5003 10.769C25.2176 10.769 28.2311 13.7824 28.2311 17.4995Z" fill="#CB4531"/>
<g filter="url(#filter1_d_1182_7381)">
<path d="M31.7807 1.97308C32.4011 1.21837 33.5158 1.1095 34.2705 1.7299C35.0252 2.3503 35.1341 3.46504 34.5137 4.21975L22.7704 18.5051C22.3001 19.0773 21.5153 19.2974 20.8123 19.0644C20.3931 18.9255 20.0362 18.6309 19.8241 18.2437C19.4814 17.618 19.5537 16.8469 20.0067 16.2958L31.7807 1.97308Z" fill="#343434"/>
</g>
<path d="M30.6552 0L31.4304 2.72401L27.3357 7.7055L26.5605 4.98148L30.6552 0Z" fill="#FFBB41"/>
<path d="M36.7245 4.72888L33.9052 4.49829L29.8105 9.47977L32.6298 9.71037L36.7245 4.72888Z" fill="#FFBB41"/>
</g>
<defs>
<filter id="filter0_d_1182_7381" x="0" y="0" width="39" height="38.9983" filterUnits="userSpaceOnUse" color-interpolation-filters="sRGB">
<feFlood flood-opacity="0" result="BackgroundImageFix"/>
<feColorMatrix in="SourceAlpha" type="matrix" values="0 0 0 0 0 0 0 0 0 0 0 0 0 0 0 0 0 0 127 0" result="hardAlpha"/>
<feOffset dx="-2" dy="2"/>
<feGaussianBlur stdDeviation="1"/>
<feComposite in2="hardAlpha" operator="out"/>
<feColorMatrix type="matrix" values="0 0 0 0 0 0 0 0 0 0 0 0 0 0 0 0 0 0 0.25 0"/>
<feBlend mode="normal" in2="BackgroundImageFix" result="effect1_dropShadow_1182_7381"/>
<feBlend mode="normal" in="SourceGraphic" in2="effect1_dropShadow_1182_7381" result="shape"/>
</filter>
<filter id="filter1_d_1182_7381" x="18.6094" y="0.327393" width="21.3066" height="23.8286" filterUnits="userSpaceOnUse" color-interpolation-filters="sRGB">
<feFlood flood-opacity="0" result="BackgroundImageFix"/>
<feColorMatrix in="SourceAlpha" type="matrix" values="0 0 0 0 0 0 0 0 0 0 0 0 0 0 0 0 0 0 127 0" result="hardAlpha"/>
<feOffset dx="2" dy="2"/>
<feGaussianBlur stdDeviation="1.5"/>
<feComposite in2="hardAlpha" operator="out"/>
<feColorMatrix type="matrix" values="0 0 0 0 0 0 0 0 0 0 0 0 0 0 0 0 0 0 0.25 0"/>
<feBlend mode="normal" in2="BackgroundImageFix" result="effect1_dropShadow_1182_7381"/>
<feBlend mode="normal" in="SourceGraphic" in2="effect1_dropShadow_1182_7381" result="shape"/>
</filter>
</defs>
</svg>
