<svg width="35" height="26" viewBox="0 0 35 26" fill="none" xmlns="http://www.w3.org/2000/svg">
<path d="M10.6028 5.06899C10.6028 7.86898 8.92121 10.1386 6.84712 10.1386C4.77302 10.1386 3.0918 7.86898 3.0918 5.06899C3.0918 2.2692 4.77302 0 6.84712 0C8.92121 0 10.6028 2.2694 10.6028 5.06899Z" fill="#CD6E51"/>
<path d="M11.1275 14.0086C11.3986 13.8196 11.6989 13.6966 12.0097 13.6378C11.3786 12.6202 10.9315 11.5286 10.6732 10.2223C10.6025 9.74485 10.0306 9.68885 9.60535 10.0848C8.80998 10.826 7.88179 11.3221 6.84667 11.3221C5.79142 11.3221 4.8207 10.8423 4.0423 10.0393C3.79397 9.78266 3.42805 9.74406 3.14245 9.94346C1.66475 10.9749 0.546333 12.6122 0.0584352 14.5562C-0.0724644 15.0776 0.0194122 15.6404 0.305361 16.0742C0.591835 16.5074 1.03896 16.7628 1.51391 16.7628H8.28096C9.09068 15.695 10.0467 14.7628 11.1275 14.0086Z" fill="#CB4531"/>
<path d="M24.3984 5.06899C24.3984 7.86898 26.0802 10.1386 28.1543 10.1386C30.2284 10.1386 31.9098 7.86898 31.9098 5.06899C31.9098 2.2692 30.2284 0 28.1543 0C26.0802 0 24.3984 2.2694 24.3984 5.06899Z" fill="#CD6E51"/>
<path d="M23.8722 14.0086C23.6011 13.8196 23.301 13.6966 22.9902 13.6378C23.6211 12.6202 24.0682 11.5286 24.3267 10.2223C24.3974 9.74485 24.9697 9.68885 25.3947 10.0848C26.1901 10.826 27.1183 11.3221 28.1534 11.3221C29.2086 11.3221 30.1792 10.8423 30.9576 10.0393C31.2061 9.78266 31.5718 9.74406 31.8576 9.94346C33.3351 10.9749 34.4536 12.6122 34.9416 14.5562C35.0725 15.0778 34.9805 15.6404 34.6945 16.0742C34.4084 16.5074 33.9609 16.7628 33.486 16.7628H26.7191C25.909 15.695 24.9532 14.7628 23.8722 14.0086Z" fill="#CB4531"/>
<path d="M27.7329 22.3707C26.9983 19.4399 25.3319 16.9619 23.1257 15.3725C22.6905 15.0591 22.1256 15.1099 21.7396 15.4987C20.5557 16.6903 19.0908 17.3999 17.5 17.3999C15.8781 17.3999 14.3866 16.6627 13.1905 15.4287C12.8088 15.0347 12.2467 14.9753 11.8078 15.2819C9.53686 16.8669 7.81783 19.3829 7.06849 22.3709C6.86706 23.1725 7.00829 24.0367 7.44754 24.7035C7.88784 25.3693 8.57506 25.7615 9.30515 25.7615H25.4963C26.2265 25.7615 26.9143 25.3707 27.3544 24.7035C27.7938 24.0365 27.9344 23.1731 27.7329 22.3707Z" fill="#CB4531"/>
<path d="M23.2713 7.79018C23.2713 12.0926 20.6871 15.5811 17.4998 15.5811C14.3126 15.5811 11.7285 12.0928 11.7285 7.79018C11.7285 3.4872 14.3124 0 17.4998 0C20.6873 0 23.2713 3.4872 23.2713 7.79018Z" fill="#CD6E51"/>
</svg>
