<svg width="38" height="32" viewBox="0 0 38 32" fill="none" xmlns="http://www.w3.org/2000/svg">
<path d="M19.3125 18.5C22.7266 18.5 25.4943 15.8137 25.4943 12.5C25.4943 9.18629 22.7266 6.5 19.3125 6.5C15.8984 6.5 13.1307 9.18629 13.1307 12.5C13.1307 15.8137 15.8984 18.5 19.3125 18.5ZM19.3125 18.5C14.1913 18.5 10.0398 22.5294 10.0398 27.5V32M19.3125 18.5C24.4337 18.5 28.5852 22.5294 28.5852 27.5V32M20.858 6.5C21.4819 4.00349 23.9723 2 27.0398 2C30.3968 2 33.1915 4.68629 33.2216 8C33.1915 11.3137 30.3968 14 27.0398 14M27.0398 14H25.4943M27.0398 14C32.1205 14 36.3125 18.0294 36.3125 23V26M17.767 6.5C17.1431 4.00349 14.6527 2 11.5852 2C8.22817 2 5.43351 4.68629 5.40341 8C5.43351 11.3137 8.22817 14 11.5852 14M11.5852 14H13.1307M11.5852 14C6.50448 14 2.3125 18.0294 2.3125 23V26" stroke="#CD6E51" stroke-width="2.8"/>
</svg>
