<svg width="36" height="36" viewBox="0 0 36 36" fill="none" xmlns="http://www.w3.org/2000/svg">
<g filter="url(#filter0_d_1182_7371)">
<path d="M32 15.9992C32 24.8353 24.8366 31.9984 16 31.9984C7.16344 31.9984 0 24.8353 0 15.9992C0 7.16309 7.16344 0 16 0C24.8366 0 32 7.16309 32 15.9992Z" fill="#CD6E51"/>
<path d="M31.1128 16.0003C31.1128 24.3455 24.3474 31.1106 16.0017 31.1106C7.6561 31.1106 0.890625 24.3455 0.890625 16.0003C0.890625 7.65503 7.6561 0.889893 16.0017 0.889893C24.3474 0.889893 31.1128 7.65503 31.1128 16.0003Z" fill="#733D3D"/>
<path d="M30.2726 16.0489C30.2726 23.9033 23.905 30.2704 16.0503 30.2704C8.19563 30.2704 1.82812 23.9033 1.82812 16.0489C1.82812 8.19458 8.19563 1.82739 16.0503 1.82739C23.905 1.82739 30.2726 8.19458 30.2726 16.0489Z" fill="#FFEFEA"/>
<path d="M17.3345 16.4426C17.3345 17.1789 16.7376 17.7758 16.0012 17.7758C15.2649 17.7758 14.668 17.1789 14.668 16.4426C14.668 15.7063 15.2649 15.1094 16.0012 15.1094C16.7376 15.1094 17.3345 15.7063 17.3345 16.4426Z" fill="#733D3D"/>
<g filter="url(#filter1_d_1182_7371)">
<path d="M24.3907 7.82886C24.6799 7.58913 25.1067 7.62033 25.3581 7.89955C25.6063 8.17535 25.5962 8.59688 25.3352 8.86056L16.4583 17.828L15.084 15.5433L24.3907 7.82886Z" fill="#733D3D"/>
</g>
<g filter="url(#filter2_d_1182_7371)">
<path d="M20.0921 22.272C20.2481 22.6145 20.1119 23.0193 19.7805 23.1978C19.4508 23.3754 19.0397 23.2684 18.8384 22.9523L14.7012 16.4564L17.1513 15.8132L20.0921 22.272Z" fill="#733D3D"/>
</g>
</g>
<defs>
<filter id="filter0_d_1182_7371" x="0" y="0" width="36" height="35.9983" filterUnits="userSpaceOnUse" color-interpolation-filters="sRGB">
<feFlood flood-opacity="0" result="BackgroundImageFix"/>
<feColorMatrix in="SourceAlpha" type="matrix" values="0 0 0 0 0 0 0 0 0 0 0 0 0 0 0 0 0 0 127 0" result="hardAlpha"/>
<feOffset dx="2" dy="2"/>
<feGaussianBlur stdDeviation="1"/>
<feComposite in2="hardAlpha" operator="out"/>
<feColorMatrix type="matrix" values="0 0 0 0 0 0 0 0 0 0 0 0 0 0 0 0 0 0 0.25 0"/>
<feBlend mode="normal" in2="BackgroundImageFix" result="effect1_dropShadow_1182_7371"/>
<feBlend mode="normal" in="SourceGraphic" in2="effect1_dropShadow_1182_7371" result="shape"/>
</filter>
<filter id="filter1_d_1182_7371" x="14.084" y="6.66772" width="16.4531" height="16.1602" filterUnits="userSpaceOnUse" color-interpolation-filters="sRGB">
<feFlood flood-opacity="0" result="BackgroundImageFix"/>
<feColorMatrix in="SourceAlpha" type="matrix" values="0 0 0 0 0 0 0 0 0 0 0 0 0 0 0 0 0 0 127 0" result="hardAlpha"/>
<feOffset dx="2" dy="2"/>
<feGaussianBlur stdDeviation="1.5"/>
<feComposite in2="hardAlpha" operator="out"/>
<feColorMatrix type="matrix" values="0 0 0 0 0 0 0 0 0 0 0 0 0 0 0 0 0 0 0.25 0"/>
<feBlend mode="normal" in2="BackgroundImageFix" result="effect1_dropShadow_1182_7371"/>
<feBlend mode="normal" in="SourceGraphic" in2="effect1_dropShadow_1182_7371" result="shape"/>
</filter>
<filter id="filter2_d_1182_7371" x="13.7012" y="14.8132" width="11.4551" height="13.4702" filterUnits="userSpaceOnUse" color-interpolation-filters="sRGB">
<feFlood flood-opacity="0" result="BackgroundImageFix"/>
<feColorMatrix in="SourceAlpha" type="matrix" values="0 0 0 0 0 0 0 0 0 0 0 0 0 0 0 0 0 0 127 0" result="hardAlpha"/>
<feOffset dx="2" dy="2"/>
<feGaussianBlur stdDeviation="1.5"/>
<feComposite in2="hardAlpha" operator="out"/>
<feColorMatrix type="matrix" values="0 0 0 0 0 0 0 0 0 0 0 0 0 0 0 0 0 0 0.25 0"/>
<feBlend mode="normal" in2="BackgroundImageFix" result="effect1_dropShadow_1182_7371"/>
<feBlend mode="normal" in="SourceGraphic" in2="effect1_dropShadow_1182_7371" result="shape"/>
</filter>
</defs>
</svg>
