<svg width="30" height="35" viewBox="0 0 30 35" fill="none" xmlns="http://www.w3.org/2000/svg">
<path d="M13.6295 25.6378L7.4062 28.6459L8.47606 23.7371C8.89968 21.7934 9.64705 19.9423 10.6851 18.2658L18.043 6.38273C19.419 4.16033 22.365 3.65894 24.3894 5.30258C26.2947 6.84951 26.6211 9.69035 25.1159 11.6262L15.2326 24.3375C14.8019 24.8914 14.2537 25.336 13.6295 25.6378ZM5.5768 30.9948V30.9948Z" stroke="#292929" stroke-width="3" stroke-linejoin="bevel"/>
<path d="M25.2779 11.6335C25.6474 11.1399 25.9191 10.5761 26.0775 9.97413C26.2359 9.37218 26.2778 8.74394 26.2009 8.12527C26.124 7.50661 25.9298 6.90963 25.6293 6.36842C25.3288 5.82722 24.928 5.35239 24.4497 4.97104C23.9714 4.5897 23.425 4.3093 22.8417 4.14587C22.2585 3.98244 21.6497 3.93917 21.0502 4.01853C20.4507 4.0979 19.8722 4.29834 19.3478 4.60841C18.8233 4.91849 18.3632 5.33213 17.9937 5.82571L21.6358 8.72961L25.2779 11.6335Z" fill="#292929"/>
<path d="M8.13652 27.7793L9.0756 23.9179L11.488 25.8077L8.13652 27.7793Z" fill="#292929"/>
</svg>
