<svg width="30" height="34" viewBox="0 0 30 34" fill="none" xmlns="http://www.w3.org/2000/svg">
<mask id="path-1-inside-1_875_7012" fill="white">
<path d="M16.4021 5.42736C18.2028 2.51929 22.0576 1.86321 24.7066 4.01394C27.1998 6.03814 27.6269 9.75544 25.6573 12.2886L16.0053 24.7023C15.4482 25.4187 14.7392 25.9939 13.9318 26.3841L5.5279 30.4464C5.39999 30.5082 5.25276 30.4085 5.25654 30.2626C5.25686 30.25 5.25838 30.2375 5.26106 30.2252L6.86944 22.8454C7.31952 20.7803 8.11358 18.8136 9.21652 17.0323L16.4021 5.42736Z"/>
</mask>
<path d="M16.0053 24.7023L12.9219 22.1507L16.0053 24.7023ZM13.9318 26.3841L15.6285 30.0605L13.9318 26.3841ZM5.25654 30.2626L9.19577 30.402L5.25654 30.2626ZM5.26106 30.2252L1.41578 29.3074L5.26106 30.2252ZM5.25654 30.2626L9.19577 30.402L5.25654 30.2626ZM5.5279 30.4464L7.22456 34.1227L5.5279 30.4464ZM24.7066 4.01394L27.1315 0.834106L24.7066 4.01394ZM22.5739 9.73697L12.9219 22.1507L19.0886 27.254L28.7406 14.8402L22.5739 9.73697ZM12.2352 22.7077L3.83124 26.77L7.22456 34.1227L15.6285 30.0605L12.2352 22.7077ZM9.10634 31.143L10.7147 23.7632L3.02416 21.9276L1.41578 29.3074L9.10634 31.143ZM12.5438 19.2331L19.7294 7.62819L13.0749 3.22654L5.88927 14.8315L12.5438 19.2331ZM10.7147 23.7632C11.0655 22.1539 11.6843 20.6213 12.5438 19.2331L5.88927 14.8315C4.5429 17.0059 3.57358 19.4067 3.02416 21.9276L10.7147 23.7632ZM12.9219 22.1507C12.7374 22.388 12.5026 22.5785 12.2352 22.7077L15.6285 30.0605C16.9758 29.4093 18.159 28.4495 19.0886 27.254L12.9219 22.1507ZM9.19577 30.402C9.1893 30.6516 9.15936 30.8997 9.10634 31.143L1.41578 29.3074C1.3574 29.5752 1.32442 29.8485 1.31731 30.1233L9.19577 30.402ZM1.31731 30.1233C1.23507 33.2988 4.44005 35.4687 7.22456 34.1227L3.83124 26.77C6.35992 25.5477 9.27045 27.5182 9.19577 30.402L1.31731 30.1233ZM22.2817 7.19378C23.048 7.81591 23.1793 8.95841 22.5739 9.73697L28.7406 14.8402C32.0744 10.5525 31.3516 4.26037 27.1315 0.834106L22.2817 7.19378ZM27.1315 0.834106C22.6476 -2.80635 16.1228 -1.69582 13.0749 3.22654L19.7294 7.62819C20.2828 6.7344 21.4676 6.53276 22.2817 7.19378L27.1315 0.834106Z" fill="#8B0000" mask="url(#path-1-inside-1_875_7012)"/>
<path d="M24.6918 11.3623C25.0527 10.8802 25.3181 10.3296 25.4727 9.74171C25.6274 9.15385 25.6683 8.54031 25.5932 7.93612C25.5181 7.33194 25.3284 6.74893 25.035 6.22039C24.7416 5.69185 24.3501 5.22814 23.883 4.85572C23.4159 4.4833 22.8823 4.20946 22.3127 4.04986C21.7431 3.89025 21.1485 3.84799 20.5631 3.9255C19.9776 4.003 19.4127 4.19875 18.9005 4.50157C18.3883 4.80439 17.939 5.20835 17.5781 5.69038L21.135 8.52632L24.6918 11.3623Z" fill="#8B0000"/>
<path d="M7.95232 27.1281L8.86942 23.3571L11.2253 25.2026L7.95232 27.1281Z" fill="#8B0000"/>
</svg>
