<svg width="42" height="42" viewBox="0 0 42 42" fill="none" xmlns="http://www.w3.org/2000/svg">
<path d="M12.2477 23.5055L26.6034 8.18308L34.0484 15.0887L20.0065 30.2274L9.98847 33.5895L12.2477 23.5055Z" stroke="#292929" stroke-width="3"/>
<path d="M9.93329 33.6306L11.53 25.9193L17.503 31.4596L9.93329 33.6306Z" fill="#292929"/>
<path d="M35.471 15.7822C36.0506 15.1574 36.4996 14.4228 36.7924 13.6205C37.0853 12.8181 37.2162 11.9637 37.1777 11.1061C37.1392 10.2484 36.9321 9.40422 36.5681 8.62178C36.2042 7.83933 35.6905 7.13393 35.0565 6.54584C34.4225 5.95776 33.6805 5.4985 32.8729 5.1943C32.0654 4.8901 31.2081 4.74691 30.3499 4.7729C29.4918 4.7989 28.6496 4.99357 27.8715 5.34581C27.0934 5.69804 26.3946 6.20094 25.815 6.8258L30.643 11.304L35.471 15.7822Z" fill="#292929"/>
</svg>
