<svg width="27" height="24" viewBox="0 0 27 24" fill="none" xmlns="http://www.w3.org/2000/svg">
<path d="M13.5 13.5C16.0104 13.5 18.0455 11.4649 18.0455 8.95455C18.0455 6.44416 16.0104 4.40909 13.5 4.40909C10.9896 4.40909 8.95455 6.44416 8.95455 8.95455C8.95455 11.4649 10.9896 13.5 13.5 13.5ZM13.5 13.5C9.73442 13.5 6.68182 16.5526 6.68182 20.3182V23.7273M13.5 13.5C17.2656 13.5 20.3182 16.5526 20.3182 20.3182V23.7273M14.6364 4.40909C15.0951 2.5178 16.9263 1 19.1818 1C21.6502 1 23.7051 3.03507 23.7273 5.54545C23.7051 8.05584 21.6502 10.0909 19.1818 10.0909M19.1818 10.0909H18.0455M19.1818 10.0909C22.9177 10.0909 26 13.1435 26 16.9091V19.1818M12.3636 4.40909C11.9049 2.5178 10.0737 1 7.81818 1C5.34975 1 3.29486 3.03507 3.27273 5.54545C3.29486 8.05584 5.34975 10.0909 7.81818 10.0909M7.81818 10.0909H8.95455M7.81818 10.0909C4.08234 10.0909 1 13.1435 1 16.9091V19.1818" stroke="#CD6E51" stroke-width="2"/>
</svg>
