<svg width="746" height="721" viewBox="0 0 746 721" fill="none" xmlns="http://www.w3.org/2000/svg">
<path fill-rule="evenodd" clip-rule="evenodd" d="M109.142 250.543C156.722 179.338 219.288 192.058 293.309 167.065C351.657 147.365 439.355 95.8376 490.639 121.734C541.274 147.302 567.229 220.093 657.316 277.431C743.568 315.722 646.992 406.402 619.302 477.029C591.58 547.738 506.328 559.28 440.529 577.761C388.711 592.315 342.153 578.634 292.106 568.93C220.874 555.118 129.963 576.014 92.1466 510.208C51.1687 438.9 58.164 326.834 109.142 250.543Z" fill="url(#paint0_radial_35_951)"/>
<g clip-path="url(#clip0_35_951)">
<path d="M182.185 393.571L227 245H154.5C154.5 245 136.5 271.5 138.5 300.5C140.317 326.851 146.676 365.338 147.822 378.752C147.949 380.239 146.412 381.205 145.014 380.682C115.998 369.807 94.0888 418.201 82 453.5L94.5 465.5L177.773 400.036C179.873 398.386 181.414 396.128 182.185 393.571Z" fill="#DD9E86"/>
<path d="M264.991 372.432C264.932 365.711 264.477 338.884 261 321.5C257 301.5 241 245 241 245H196.5C196.5 262.731 198.4 303.955 206 327L220.634 371.374C221.061 372.667 220.073 373.994 218.74 374.274C195.751 379.101 212.181 446.466 217 485.5H237.5L264.622 375.534C264.873 374.515 265 373.481 264.991 372.432Z" fill="#DD9E86"/>
<rect x="100.417" y="411" width="39" height="19" rx="4" transform="rotate(36.936 100.417 411)" fill="#5D5FEF"/>
<path d="M261.78 286.708L243.573 247.322C242.919 245.906 241.502 245 239.942 245H222.5L201 331.5L206.517 359.084C207.475 363.877 206.732 368.855 204.415 373.159L203.242 375.336C201.766 378.078 200.918 381.113 200.759 384.223L198.125 435.931C197.513 447.933 207.08 458 219.097 458H240.192C250.466 458 259.231 450.567 260.91 440.431L270.441 382.877C270.812 380.632 270.944 378.354 270.832 376.081L267.61 310.425C267.207 302.219 265.228 294.166 261.78 286.708Z" fill="#5D5FEF"/>
<path d="M64.3273 449.564C67.9987 445.892 72.0413 442.612 76.3903 439.776L84.4655 434.509C89.6044 431.158 96.5218 433.182 99.044 438.774L101.326 443.834C101.86 445.018 103.363 445.387 104.385 444.585L106.695 442.77C109.879 440.268 114.431 440.54 117.294 443.403L119.689 445.798C122.208 448.318 122.758 452.2 121.037 455.32L115.692 465.007C113.776 468.48 113.7 472.676 115.489 476.217L126.634 498.269C128.193 501.354 127.594 505.09 125.151 507.534L117.225 515.459C115.663 517.022 113.131 517.022 111.569 515.459L57.8284 461.719C56.2663 460.157 56.2663 457.625 57.8284 456.062L64.3273 449.564Z" fill="#1A2027"/>
<path d="M62.071 451.82L117.225 506.974C118.006 507.755 118.006 509.022 117.225 509.803L115.811 511.217C115.03 511.998 113.764 511.998 112.983 511.217L57.8284 456.062L62.071 451.82Z" fill="white"/>
<path d="M116.619 472.427L105.912 470.205L117.225 475.861L107.831 476.366" stroke="#5D5FEF" stroke-width="2" stroke-linejoin="bevel"/>
<path fill-rule="evenodd" clip-rule="evenodd" d="M201.035 381.762C208.925 376.643 224 365.264 224 344V250L215.284 274.03L201 331.5L206.517 359.084C207.475 363.877 206.732 368.855 204.415 373.159L203.249 375.324C202.163 377.34 201.417 379.515 201.035 381.762Z" fill="#6346CB"/>
<path d="M132.42 275.168L145.729 247.277C146.393 245.886 147.798 245 149.339 245H236L190.89 395.909C189.428 400.797 186.703 405.214 182.989 408.713L155.039 435.039C153.046 436.917 150.605 438.251 147.949 438.915L139.062 441.137C134.575 442.259 129.823 441.384 126.029 438.739L100.536 420.96C96.4405 418.104 94 413.427 94 408.435C94 405.147 95.0607 401.948 97.0245 399.312L110.687 380.972C114.353 376.051 119.786 372.747 125.841 371.756C132.41 370.68 136.799 364.399 135.551 357.86L127.316 314.736C124.758 301.34 126.546 287.477 132.42 275.168Z" fill="#5D5FEF"/>
<rect x="211" y="450" width="39" height="19" rx="4" fill="#5D5FEF"/>
<path d="M209 503.809C209 498.617 209.539 493.439 210.609 488.358L212.595 478.924C213.859 472.921 220.181 469.46 225.919 471.632L231.111 473.596C232.326 474.056 233.65 473.253 233.804 471.964L234.154 469.047C234.637 465.026 238.048 462 242.097 462H245.484C249.047 462 252.181 464.357 253.17 467.78L256.24 478.409C257.341 482.22 260.255 485.241 264.023 486.479L287.497 494.192C290.781 495.271 293 498.336 293 501.792V513C293 515.209 291.209 517 289 517H213C210.791 517 209 515.209 209 513V503.809Z" fill="#1A2027"/>
<path d="M209 507H287C288.105 507 289 507.895 289 509V511C289 512.105 288.105 513 287 513H209V507Z" fill="white"/>
<path d="M262.143 483L253 489L265 485L258.714 492" stroke="#5D5FEF" stroke-width="2" stroke-linejoin="bevel"/>
<path d="M157.5 252L145.803 284.751C143.626 290.848 142.76 297.337 143.262 303.792L147.458 357.697C148.347 369.106 140.815 379.471 129.689 382.149V382.149C124.703 383.349 120.252 386.162 117.028 390.15L107.485 401.953C104.664 405.442 103.664 410.062 104.79 414.405V414.405C105.871 418.573 104.996 423.006 102.412 426.45L100.5 429" stroke="white" stroke-width="4"/>
</g>
<path d="M268.974 156.536C271.48 152.34 272.198 147.242 270.547 142.635L268.963 138.216C268.617 137.251 268.521 136.212 268.686 135.2L270.553 123.702C270.754 122.466 271.333 121.323 272.209 120.433L276.826 115.746C277.929 114.626 279.826 115.164 280.187 116.699L280.484 117.962C280.85 119.518 280.587 121.156 279.752 122.515L278.586 124.415C278.408 124.705 278.273 125.02 278.186 125.349L278.013 125.996C277.611 127.508 278.503 129.062 280.005 129.467C281.243 129.801 282.548 129.252 283.182 128.131L287.226 120.972C287.714 120.109 287.982 119.137 288.006 118.144L288.292 106.54C288.318 105.488 289.14 104.631 290.185 104.568C290.978 104.52 291.725 104.946 292.092 105.655L294.749 110.785C295.076 111.417 295.515 111.983 296.045 112.456C297.14 113.434 297.828 114.791 297.97 116.257L298.031 116.892C298.117 117.773 298.475 118.606 299.056 119.271L299.517 119.798C300.156 120.529 300.389 121.533 300.139 122.473L300.087 122.666C299.884 123.43 300.05 124.245 300.535 124.867C301.02 125.488 301.186 126.304 300.983 127.067L300.023 130.674C299.848 131.333 299.523 131.941 299.073 132.451C298.551 133.043 298.198 133.77 298.051 134.548C296.529 142.609 294.172 150.53 291.032 158.102C257.512 248.441 234.022 215.06 268.974 156.536Z" fill="#DD9E86"/>
<path d="M278.209 119.654C277.472 120.759 276.277 121.257 275.54 120.765C274.804 120.274 274.804 118.979 275.541 117.874C276.279 116.769 277.474 116.272 278.21 116.763C278.947 117.255 278.947 118.549 278.209 119.654Z" fill="#FAC798"/>
<path d="M216.5 149L199.722 160.569C191.837 166.006 190.463 177.106 196.785 184.301L247.2 241.69C250.797 245.784 257.344 245.163 260.106 240.465L295.199 180.785C296.56 178.471 296.218 175.534 294.361 173.594L268.644 146.739C267.639 145.689 265.886 146.028 265.344 147.376L250.233 184.968C248.825 188.471 243.794 188.253 242.695 184.641L239 172.5L216.5 149Z" fill="#153354"/>
<path fill-rule="evenodd" clip-rule="evenodd" d="M248.099 187.166L265.792 230.797L260.106 240.465C257.344 245.163 250.796 245.784 247.2 241.69L196.784 184.301C190.463 177.106 191.837 166.006 199.722 160.569L216.5 149L239 172.5L242.695 184.641C243.453 187.131 246.079 188.008 248.099 187.166Z" fill="#7879F1"/>
<path d="M159 145L201.678 144.717C220.721 144.591 237.213 157.908 241.1 176.551L254 238.408C255.033 243.363 251.263 248.02 246.202 248.041L142.438 248.479C139.894 248.49 137.987 246.156 138.504 243.666L159 145Z" fill="#153354"/>
<path d="M167.088 284.999L145.847 267L126.946 284.263L126.936 284.414C126.597 289.681 129.705 294.563 134.621 296.483C135.065 296.657 135.425 296.994 135.629 297.425L137.502 301.4C137.742 301.91 137.757 302.496 137.542 303.016L135.25 308.568C134.946 309.304 135.108 310.15 135.661 310.722L135.942 311.012C136.812 311.912 138.286 311.801 139.01 310.78L144.661 302.822C145.036 302.294 145.132 301.618 144.919 301.006L143.982 298.318C143.778 297.733 144.61 297.373 144.897 297.922L147.125 302.181C147.245 302.411 147.32 302.663 147.344 302.921L148.312 313.209C148.432 314.477 149.69 315.312 150.904 314.929L151.566 314.721C152.387 314.462 152.951 313.708 152.966 312.847L153.179 300.19C153.184 299.876 153.115 299.566 152.978 299.284L150.215 293.582C149.972 293.082 150.603 292.619 151.007 292.999L157.133 298.76C157.31 298.926 157.455 299.124 157.561 299.343L162.226 308.943C162.849 310.225 164.575 310.462 165.521 309.396L165.905 308.963C166.385 308.422 166.535 307.664 166.298 306.981L162.47 295.936C162.389 295.7 162.264 295.481 162.102 295.292L155.23 287.243C154.868 286.82 155.366 286.211 155.853 286.481L163.312 290.622C163.521 290.738 163.707 290.891 163.862 291.072L170.449 298.787C171.413 299.916 173.227 299.639 173.81 298.274L174.096 297.604C174.353 297.001 174.299 296.31 173.95 295.755L167.489 285.462C167.38 285.288 167.244 285.132 167.088 284.999Z" fill="#DD9E86"/>
<path d="M173.324 295.592C173.876 296.549 173.742 297.66 173.025 298.074C172.308 298.488 171.278 298.049 170.726 297.092C170.174 296.135 170.308 295.024 171.025 294.61C171.742 294.196 172.772 294.635 173.324 295.592Z" fill="#FAC798"/>
<path d="M165.432 305.922C165.984 306.879 165.85 307.99 165.133 308.404C164.415 308.818 163.386 308.379 162.834 307.422C162.281 306.466 162.415 305.354 163.133 304.94C163.85 304.526 164.879 304.966 165.432 305.922Z" fill="#FAC798"/>
<path d="M152.435 312.034C152.504 313.164 151.921 314.038 151.133 313.987C150.346 313.935 149.651 312.977 149.582 311.846C149.513 310.716 150.095 309.842 150.883 309.894C151.671 309.945 152.366 310.904 152.435 312.034Z" fill="#FAC798"/>
<path d="M138.957 309.499C138.184 310.348 137.144 310.571 136.632 309.999C136.121 309.427 136.333 308.275 137.105 307.427C137.878 306.578 138.919 306.354 139.43 306.927C139.941 307.499 139.73 308.651 138.957 309.499Z" fill="#FAC798"/>
<path fill-rule="evenodd" clip-rule="evenodd" d="M164.591 248.38L141.002 248.479C139.794 248.484 138.729 247.96 138 247.142L143.564 217.5L152.78 168.408C159.228 173.344 164.441 183.249 167.272 195.945C170.103 208.641 170.321 223.088 167.876 236.108C167.049 240.514 165.94 244.635 164.591 248.38Z" fill="#7879F1"/>
<path d="M179 145H142.134C137.023 145 132.219 147.442 129.207 151.572L85.0289 212.15C74.773 226.213 74.2538 245.144 83.7235 259.748L102.234 288.295C106.301 294.567 114.578 296.538 121.035 292.771L150.842 275.384C154.674 273.148 156.306 268.454 154.686 264.324L139.724 226.17C138.315 222.578 138.575 218.544 140.434 215.162L179 145Z" fill="#153354"/>
<path d="M218.69 85.0274C218.966 86.9566 220.907 90.0574 216.076 94.7942C211.244 99.531 178.64 119.577 175.725 118.987C160.198 115.844 158.809 95.2496 163.813 92.4936C157.036 88.0032 163.813 78.1242 170.37 81.6419C170.37 66.5967 194.36 69.5249 208.51 66.5967C222.659 63.6684 221.624 72.2809 222.832 75.8982C224.039 79.5154 218.345 82.6159 218.69 85.0274Z" fill="#7B371F"/>
<path fill-rule="evenodd" clip-rule="evenodd" d="M208.532 122.582C210.748 118.671 212 114.008 212 109C212 107.068 211.426 105.664 210.809 104.153C210.232 102.742 210.025 101.219 209.936 99.6976C209.347 89.6358 204.651 87.2036 195 87.2036H185.398C182.141 87.2036 179.5 89.8443 179.5 93.1018V96.25C179.5 97.7688 178.269 99 176.75 99C175.231 99 174 100.231 174 101.75V105.294C174 107.341 172.341 109 170.294 109C168.964 109 167.736 108.287 167.076 107.133L166.473 106.078C164.438 102.516 159 103.96 159 108.062V111C159 113.209 160.791 115 163 115C165.155 115 166.984 116.506 167.762 118.516C167.839 118.715 167.918 118.912 168 119.108V142C168 150.837 175.163 158 184 158H186.568C191.83 158 195.659 153.007 194.294 147.925L191.606 137.92C192.064 137.973 192.529 138 193 138C197.002 138 200.547 136.041 202.727 133.029C204.219 130.968 205.396 128.64 206.565 126.326C207.206 125.058 207.845 123.795 208.532 122.582Z" fill="#DD9E86"/>
<path d="M310.171 101.4L310.171 101.4L284.793 131.129C284.314 131.669 283.428 132.111 282.325 132.338C281.233 132.563 279.996 132.562 278.882 132.281C277.756 131.996 277.032 131.505 276.707 131.016C276.549 130.779 276.488 130.547 276.502 130.329C276.516 130.11 276.609 129.863 276.831 129.598C276.831 129.598 276.831 129.597 276.832 129.597L302.21 99.8681C302.21 99.8681 302.21 99.868 302.21 99.868C302.667 99.3333 303.549 98.89 304.66 98.6619C305.758 98.4367 307.005 98.438 308.118 98.7192C309.242 99.0033 309.967 99.4987 310.292 99.9907C310.451 100.23 310.512 100.462 310.498 100.68C310.484 100.897 310.392 101.141 310.171 101.4Z" fill="black" stroke="white"/>
<path d="M489.93 331.771L541.234 355.306C544.468 356.644 548.184 355.737 550.416 353.064L573.275 325.69H575.866C588.564 325.69 600.546 319.806 608.31 309.758L636 273.92L608 273.92H586C581.229 273.83 576.245 276.31 573.064 280.965C562.773 296.022 548.28 316.927 537.16 331.771C535.603 333.849 532.501 333.861 530.629 332.039C528.757 330.218 520.779 319.191 504.421 315.066C499.681 313.871 495.569 310.774 493.479 306.349L491.475 302.104C491.037 301.177 490.37 300.375 489.537 299.775L480.087 292.966C479.071 292.233 477.854 291.835 476.604 291.825L470.026 291.775C468.454 291.764 467.493 293.485 468.323 294.826L469.006 295.929C469.847 297.288 471.192 298.26 472.743 298.631L474.911 299.15C475.242 299.229 475.56 299.356 475.855 299.527L476.434 299.863C477.787 300.648 478.255 302.377 477.48 303.726C476.841 304.837 475.529 305.372 474.289 305.027L466.368 302.825C465.412 302.559 464.536 302.062 463.816 301.377L455.409 293.374C454.646 292.648 453.458 292.623 452.675 293.317C452.081 293.844 451.854 294.674 452.095 295.435L453.845 300.941C454.06 301.619 454.15 302.33 454.11 303.039C454.026 304.505 454.5 305.951 455.436 307.088L455.842 307.58C456.404 308.264 456.739 309.106 456.799 309.987L456.846 310.686C456.911 311.654 457.456 312.529 458.298 313.017L458.471 313.117C459.154 313.513 459.613 314.207 459.71 314.99C459.807 315.772 460.266 316.466 460.949 316.862L464.179 318.734C464.768 319.076 465.428 319.276 466.107 319.319C466.894 319.369 467.659 319.633 468.312 320.079C475.088 324.703 482.356 328.637 489.93 331.771Z" fill="#D58E54"/>
<path d="M553.228 284.889C558.103 278.007 566.012 273.917 574.445 273.917H592.5L570.251 353.644C569.449 356.518 565.897 357.534 563.697 355.519L529.602 324.3C528.115 322.939 527.874 320.683 529.04 319.038L553.228 284.889Z" fill="#FE7FC0"/>
<path d="M471.811 295.517C473.114 295.777 474.31 295.284 474.484 294.415C474.657 293.547 473.741 292.632 472.439 292.372C471.136 292.112 469.939 292.605 469.766 293.474C469.593 294.342 470.508 295.257 471.811 295.517Z" fill="#FAC798"/>
<path fill-rule="evenodd" clip-rule="evenodd" d="M584.5 302.584V273.917L573.033 279.651C569.509 281.413 566.89 284.579 565.82 288.371L550.327 343.277L563.697 355.519C565.897 357.534 569.449 356.518 570.251 353.644L584.5 302.584Z" fill="#F778B9"/>
<path d="M648 372.917V273.917H632L600.525 310.298C598.101 313.099 593.5 311.385 593.5 307.681V273.917H584.741C577.767 273.917 571.856 279.05 570.879 285.955L558.646 372.357C558.305 374.765 560.174 376.917 562.606 376.917H644C646.209 376.917 648 375.127 648 372.917Z" fill="#FE7FC0"/>
<path d="M648 336.917C644.022 336.917 640.206 333.704 637.393 327.984C634.58 322.264 633 314.507 633 306.417C633 298.328 634.58 290.571 637.393 284.851C640.206 279.131 644.022 275.917 648 275.917L648 306.417L648 336.917Z" fill="#F778B9"/>
<path d="M686.781 352.585L661.441 283.322C659.374 277.674 654 273.917 647.986 273.917C637.383 273.917 630.425 285.039 635.003 294.603C643.107 311.534 654.336 335.411 661.62 352.621C662.415 354.499 661.638 356.64 659.971 357.815C638.053 373.256 624.413 420.242 622.5 427.417C620.65 434.356 614.092 451.136 613.121 453.611C613.038 453.822 612.996 454.033 612.987 454.259L612.539 466.371C612.514 467.027 612.813 467.652 613.337 468.046L613.921 468.483C615.108 469.373 616.817 468.706 617.087 467.247L618.934 457.273C618.978 457.038 619.063 456.813 619.186 456.608L623.575 449.292C623.862 448.814 624.597 449.092 624.496 449.64L622.569 460.046C622.523 460.292 622.524 460.543 622.571 460.788L624.779 472.268C624.915 472.978 625.425 473.559 626.111 473.788L626.659 473.971C628.012 474.421 629.388 473.353 629.287 471.931L628.526 461.284C628.509 461.042 628.536 460.798 628.606 460.565L631.031 452.514C631.191 451.982 631.968 452.068 632.008 452.622L632.466 458.942C632.488 459.255 632.584 459.558 632.745 459.826L639.258 470.681C639.701 471.42 640.567 471.792 641.407 471.605L642.085 471.454C643.328 471.178 644 469.826 643.469 468.668L639.164 459.275C639.056 459.039 638.994 458.784 638.984 458.525L638.784 453.722C638.758 453.103 639.658 452.999 639.774 453.607L640.307 456.404C640.428 457.04 640.85 457.578 641.438 457.848L650.311 461.914C651.449 462.436 652.781 461.795 653.084 460.581L653.182 460.189C653.375 459.417 653.092 458.604 652.461 458.118L647.7 454.456C647.254 454.113 646.973 453.598 646.927 453.037L646.562 448.657C646.522 448.182 646.666 447.71 646.964 447.338C650.261 443.216 650.512 437.435 647.584 433.044L647.5 432.917L686.348 359.058C687.4 357.058 687.557 354.707 686.781 352.585Z" fill="#D58E54"/>
<path d="M613 465.917C613 467.022 613.672 467.917 614.5 467.917C615.328 467.917 616 467.022 616 465.917C616 464.813 615.328 463.917 614.5 463.917C613.672 463.917 613 464.813 613 465.917Z" fill="#FAC798"/>
<path d="M625 470.917C625 472.022 625.672 472.917 626.5 472.917C627.328 472.917 628 472.022 628 470.917C628 469.813 627.328 468.917 626.5 468.917C625.672 468.917 625 469.813 625 470.917Z" fill="#FAC798"/>
<path d="M639.311 469.712C639.817 470.725 640.759 471.191 641.415 470.752C642.071 470.314 642.194 469.136 641.689 468.123C641.183 467.11 640.241 466.644 639.585 467.083C638.929 467.521 638.806 468.699 639.311 469.712Z" fill="#FAC798"/>
<path d="M649.716 460.778C650.81 461.126 651.823 460.8 651.98 460.049C652.136 459.297 651.377 458.406 650.284 458.057C649.19 457.709 648.177 458.035 648.02 458.786C647.864 459.538 648.623 460.429 649.716 460.778Z" fill="#FAC798"/>
<path d="M648 360.917V296.917H632L625.27 342.533C623.812 352.21 631.305 360.917 641.092 360.917H648Z" fill="#F778B9"/>
<path d="M682.513 293.456C679.563 281.958 669.2 273.917 657.329 273.917H631.5V345.917C631.5 348.127 633.291 349.917 635.5 349.917H691.844C694.457 349.917 696.368 347.454 695.719 344.923L682.513 293.456Z" fill="#FE7FC0"/>
<path d="M336 414.184C336 411.275 338.311 408.917 341.163 408.917H351.484V566.917H336V414.184Z" fill="#D59CB9"/>
<path d="M351.488 408.917H574.512V445.784H351.488V408.917Z" fill="#D59CB9"/>
<path d="M584.837 408.917H574.516V566.917H590V414.184C590 411.275 587.689 408.917 584.837 408.917Z" fill="#D59CB9"/>
<circle r="81" transform="matrix(-1 0 0 1 610 486)" fill="#273E46"/>
<path d="M513.766 520C523.414 520 529 525.875 529 534.953C529 539.318 527.474 542.819 525.607 545.337L522.87 567H513.676V548.944C510.187 550.582 506.917 555.354 504.02 559.581C501.316 563.528 498.937 567 497.009 567H454.809C453.923 567 453.123 566.436 453.035 565.563C452.298 558.271 463.361 549.907 478.729 549.907C482.863 549.907 488.953 542.883 495.231 535.643C501.907 527.944 508.794 520 513.766 520Z" fill="#A5A6F6"/>
<path d="M525.781 475.26C523.857 492.616 520.391 511.631 518.09 527.502C517.343 532.652 514.731 537.364 510.674 540.623L502.392 547.275C500.197 549.039 497.465 550 494.649 550H488.683C486.144 550 484.828 546.971 486.561 545.115C492.244 539.028 495.04 530.793 494.237 522.503L487 447.789L485.31 416.19C484.055 392.719 502.747 373 526.251 373H583.5L593 420.366C587.311 420.366 579.353 420.621 570.637 421.002C568.063 421.115 526.065 472.7 525.781 475.26Z" fill="#D58E54"/>
<path d="M485.349 511.223L474.515 414.874C473.536 406.164 475.625 397.385 480.422 390.05C487.379 379.412 499.233 373 511.944 373H602V410.865H526.206V511C526.206 512.105 525.311 513 524.206 513H487.336C486.318 513 485.463 512.235 485.349 511.223Z" fill="#7879F1"/>
<path d="M565.267 520C570.853 520 578.5 525.875 578.5 534.953C578.5 539.318 576.638 542.819 575.557 545.337L574.5 567H568.649L567 551.5C567 551.5 564.736 555.354 563.059 559.581C561.493 563.528 560.116 567 559 567H528.134C527.621 567 527.158 566.436 527.107 565.563C526.681 558.271 530.136 549.907 539.033 549.907C541.427 549.907 544.953 542.883 548.587 535.643C552.452 527.944 562.389 520 565.267 520Z" fill="#A5A6F6"/>
<path d="M549.998 513.032L521.111 441.024C520.923 440.554 517.323 430.586 513.523 420.046C508.516 406.159 515.599 390.826 529.417 385.629L563 373H625C625 373 633 373.5 633 403.5C633 433.5 559.938 413.206 559 424.5C558.924 425.41 559.56 426.165 560.384 426.559C578.069 435.035 568 513.271 568 523.5C567.5 552 556.998 549.5 549.998 549.5C536.498 549.5 557.206 531 549.998 513.032Z" fill="#D58E54"/>
<path fill-rule="evenodd" clip-rule="evenodd" d="M502.583 424.678L522 513.5H524.5C525.605 513.5 526.5 512.605 526.5 511.5V411H602V373H544.185C530.561 373 517.759 379.519 509.746 390.537C502.592 400.373 499.986 412.797 502.583 424.678Z" fill="#3B6899"/>
<path d="M528.218 511.766L513.952 424.132C512.063 412.528 514.89 400.651 521.805 391.143C530.095 379.744 543.339 373 557.433 373H644C646.209 373 648 374.791 648 377V396C648 410.359 636.359 422 622 422H572.323C569.992 422 568.154 423.986 568.335 426.31L574.838 509.913C574.926 511.05 574.048 512.031 572.908 512.067L530.256 513.443C529.252 513.476 528.379 512.758 528.218 511.766Z" fill="#7879F1"/>
<path fill-rule="evenodd" clip-rule="evenodd" d="M617.5 181C629.387 181 639.87 187.012 646.074 196.161C649.053 200.553 653.335 204.339 656.094 208.873C657.304 210.859 658 213.192 658 215.687C658 219.534 656.345 222.995 653.708 225.395C652.713 226.302 652 227.525 652 228.871V228.871C652 230.343 652.847 231.656 654.002 232.568C657.046 234.972 659 238.695 659 242.875C659 247.417 656.693 251.42 653.187 253.776C651.84 254.681 651 256.253 651 257.875V257.875C651 265.124 645.124 271 637.875 271H636.125V271C631.474 271 626.601 270.111 621.989 270.711C620.52 270.902 619.021 271 617.5 271C615.709 271 613.95 270.864 612.233 270.6C612.11 270.582 612 270.676 612 270.799V270.799C612 270.91 611.91 271 611.799 271H576.184C568.272 271 559.985 265.115 564.162 258.397C564.31 258.159 564.465 257.923 564.628 257.688C567.509 253.308 568.04 248.87 566.221 244.375C564.128 239.582 564.659 235.144 567.814 231.063C567.885 230.954 567.955 230.845 568.023 230.737C570.471 226.874 568.936 222.169 567.758 217.75C567.497 216.773 567.301 215.77 567.173 214.745C567.038 213.654 566.84 212.561 566.838 211.461C566.838 211.383 566.839 211.304 566.842 211.226C566.881 210.04 567.175 208.873 567.397 207.708C569.376 197.303 578.519 189.438 589.5 189.438H592.5V189.438C593.947 189.438 595.37 188.992 596.518 188.111C602.332 183.651 609.606 181 617.5 181Z" fill="#7B371F"/>
<path fill-rule="evenodd" clip-rule="evenodd" d="M623 233.936C623.562 233.998 624.175 233.694 624.527 233.078C626.562 229.516 632 230.96 632 235.062V238C632 240.209 630.209 242 628 242C625.845 242 624.016 243.506 623.238 245.516C623.161 245.715 623.082 245.912 623 246.108V269C623 277.837 615.837 285 607 285H604.432C599.17 285 595.341 280.007 596.706 274.925L599.394 264.92C598.936 264.973 598.471 265 598 265C593.998 265 590.453 263.041 588.273 260.029C586.781 257.968 585.604 255.64 584.435 253.326C583.794 252.058 583.155 250.795 582.468 249.582C580.252 245.671 579 241.008 579 236C579 234.068 579.574 232.664 580.191 231.153C580.768 229.742 580.955 228.217 581.13 226.703C581.755 221.293 584.593 217.281 588.523 214.667C593.197 222.296 599.932 228.484 608.491 231.223C613.332 232.772 618.567 234 623 234V233.936Z" fill="#D58E54"/>
<path d="M354.896 344.917H416.989C419.034 344.917 420.79 346.353 421.224 348.371L432.92 403.593C433.498 406.298 431.432 408.857 428.684 408.857H365.558C363.492 408.857 361.715 407.38 361.323 405.341L350.661 350.119C350.123 347.414 352.169 344.917 354.896 344.917Z" fill="#9A8787"/>
<path d="M351.322 344.917H413.393C415.439 344.917 417.195 346.353 417.629 348.371L429.324 403.593C429.903 406.298 427.857 408.857 425.089 408.857H361.984C359.918 408.857 358.141 407.38 357.748 405.341L347.086 350.119C346.549 347.414 348.594 344.917 351.322 344.917Z" fill="#7E7E7E"/>
<path d="M431.225 404.134H473.646C474.948 404.134 475.981 405.195 475.981 406.485C475.981 407.796 474.928 408.837 473.646 408.837H430.399L431.225 404.134Z" fill="#9A8787"/>
<path d="M389.755 375.441C389.755 379.207 386.739 382.245 382.999 382.245C379.259 382.245 376.242 379.186 376.242 375.441C376.242 371.675 379.279 368.637 382.999 368.637C386.739 368.637 389.755 371.675 389.755 375.441Z" fill="white"/>
<defs>
<radialGradient id="paint0_radial_35_951" cx="0" cy="0" r="1" gradientUnits="userSpaceOnUse" gradientTransform="translate(370 360.138) rotate(23.9388) scale(286.324 266.919)">
<stop stop-color="#B95D7C"/>
<stop offset="1" stop-color="#350029"/>
</radialGradient>
<clipPath id="clip0_35_951">
<rect width="250" height="272" fill="white" transform="translate(56 245)"/>
</clipPath>
</defs>
</svg>
