<svg width="30" height="30" viewBox="0 0 30 30" fill="none" xmlns="http://www.w3.org/2000/svg">
<path d="M11.4511 2.46858C11.2273 1.18663 12.2052 0 13.5066 0C14.3987 0 15.1939 0.573253 15.4683 1.42213C18.8144 11.7748 19.2673 17.7512 15.9491 28.135C15.683 28.968 14.9445 29.5617 14.0754 29.6583C12.5567 29.827 11.3167 28.4647 11.5857 26.9605C13.202 17.926 13.0755 11.7732 11.4511 2.46858Z" fill="#CD6E51"/>
<path d="M27.5314 11.4511C28.8134 11.2273 30 12.2052 30 13.5066C30 14.3987 29.4267 15.1939 28.5779 15.4683C18.2252 18.8144 12.2488 19.2673 1.86498 15.9491C1.03201 15.683 0.438276 14.9445 0.341707 14.0754C0.17296 12.5567 1.53534 11.3167 3.03951 11.5857C12.074 13.202 18.2268 13.0755 27.5314 11.4511Z" fill="#CD6E51"/>
</svg>
