<?xml version="1.0" encoding="iso-8859-1"?>
<!-- Uploaded to: SVG Repo, www.svgrepo.com, Generator: SVG Repo Mixer Tools -->
<svg fill="#000000" version="1.1" id="Layer_1" xmlns="http://www.w3.org/2000/svg" xmlns:xlink="http://www.w3.org/1999/xlink" 
	 viewBox="0 0 512 512" xml:space="preserve">
<g>
	<g>
		<g>
			<path d="M366.933,204.8H0V384c0,23.526,19.14,42.667,42.667,42.667h349.867V230.4C392.533,216.286,381.047,204.8,366.933,204.8z
				 M366.933,341.333c0,23.526-19.14,42.667-42.667,42.667H85.333c-23.526,0-42.667-19.14-42.667-42.667v-68.267
				c0-23.526,19.14-42.667,42.667-42.667h238.933c23.526,0,42.667,19.14,42.667,42.667V341.333z"/>
			<path d="M298.667,290.133c-9.412,0-17.067,7.654-17.067,17.067s7.654,17.067,17.067,17.067s17.067-7.654,17.067-17.067
				S308.079,290.133,298.667,290.133z"/>
			<path d="M324.267,247.467H85.333c-14.114,0-25.6,11.486-25.6,25.6v68.267c0,14.114,11.486,25.6,25.6,25.6h238.933
				c14.114,0,25.6-11.486,25.6-25.6v-68.267C349.867,258.953,338.381,247.467,324.267,247.467z M110.933,341.333
				c-18.825,0-34.133-15.309-34.133-34.133s15.309-34.133,34.133-34.133s34.133,15.309,34.133,34.133
				S129.758,341.333,110.933,341.333z M238.933,332.8c0,4.71-3.814,8.533-8.533,8.533h-51.2c-4.719,0-8.533-3.823-8.533-8.533v-51.2
				c0-4.71,3.814-8.533,8.533-8.533h51.2c4.719,0,8.533,3.823,8.533,8.533V332.8z M298.667,341.333
				c-18.825,0-34.133-15.309-34.133-34.133s15.309-34.133,34.133-34.133S332.8,288.375,332.8,307.2S317.491,341.333,298.667,341.333
				z"/>
			<rect x="187.733" y="290.133" width="34.133" height="34.133"/>
			<path d="M110.933,290.133c-9.412,0-17.067,7.654-17.067,17.067s7.654,17.067,17.067,17.067c9.412,0,17.067-7.654,17.067-17.067
				S120.346,290.133,110.933,290.133z"/>
			<path d="M469.333,119.467H332.8v-8.533c0-14.114-11.486-25.6-25.6-25.6h-34.133c-14.114,0-25.6,11.486-25.6,25.6v8.533H230.4
				v-8.533c0-14.114-11.486-25.6-25.6-25.6h-34.133c-14.114,0-25.6,11.486-25.6,25.6v8.533H128v-8.533
				c0-14.114-11.486-25.6-25.6-25.6H68.267c-14.114,0-25.6,11.486-25.6,25.6v8.533C19.14,119.467,0,138.607,0,162.133v25.6h366.933
				c23.526,0,42.667,19.14,42.667,42.667v196.267h59.733C492.86,426.667,512,407.526,512,384V162.133
				C512,138.607,492.86,119.467,469.333,119.467z M110.933,119.467h-51.2v-8.533c0-4.702,3.823-8.533,8.533-8.533H102.4
				c4.71,0,8.533,3.831,8.533,8.533V119.467z M213.333,119.467h-51.2v-8.533c0-4.702,3.823-8.533,8.533-8.533H204.8
				c4.71,0,8.533,3.831,8.533,8.533V119.467z M315.733,119.467h-51.2v-8.533c0-4.702,3.823-8.533,8.533-8.533H307.2
				c4.71,0,8.533,3.831,8.533,8.533V119.467z M443.733,332.8c0,4.71-3.814,8.533-8.533,8.533s-8.533-3.823-8.533-8.533v-51.2
				c0-4.71,3.814-8.533,8.533-8.533s8.533,3.823,8.533,8.533V332.8z M443.733,247.467c0,4.71-3.814,8.533-8.533,8.533
				s-8.533-3.823-8.533-8.533v-51.2c0-4.71,3.814-8.533,8.533-8.533s8.533,3.823,8.533,8.533V247.467z M477.867,375.467
				c0,4.71-3.814,8.533-8.533,8.533s-8.533-3.823-8.533-8.533v-51.2c0-4.71,3.814-8.533,8.533-8.533s8.533,3.823,8.533,8.533
				V375.467z M477.867,290.133c0,4.71-3.814,8.533-8.533,8.533s-8.533-3.823-8.533-8.533v-51.2c0-4.71,3.814-8.533,8.533-8.533
				s8.533,3.823,8.533,8.533V290.133z"/>
		</g>
	</g>
</g>
</svg>