<svg width="22" height="22" viewBox="0 0 22 22" fill="none" xmlns="http://www.w3.org/2000/svg">
<path d="M18.881 12.0771C18.9269 11.7333 18.9498 11.3781 18.9498 11C18.9498 10.6333 18.9269 10.2667 18.8696 9.92292L21.1956 8.1125C21.4019 7.95208 21.4592 7.64271 21.3331 7.41354L19.1331 3.60937C18.9956 3.35729 18.7092 3.27708 18.4571 3.35729L15.7185 4.45729C15.1456 4.02187 14.5383 3.65521 13.8623 3.38021L13.4498 0.469791C13.404 0.194791 13.1748 0 12.8998 0H8.49979C8.22479 0 8.00708 0.194791 7.96125 0.469791L7.54875 3.38021C6.87271 3.65521 6.25396 4.03333 5.6925 4.45729L2.95396 3.35729C2.70188 3.26562 2.41542 3.35729 2.27792 3.60937L0.0893754 7.41354C-0.0481246 7.65417 -0.0022914 7.95208 0.226875 8.1125L2.55292 9.92292C2.49563 10.2667 2.44979 10.6448 2.44979 11C2.44979 11.3552 2.47271 11.7333 2.53 12.0771L0.203959 13.8875C-0.00229138 14.0479 -0.0595829 14.3573 0.0664588 14.5865L2.26646 18.3906C2.40396 18.6427 2.69042 18.7229 2.9425 18.6427L5.68104 17.5427C6.25396 17.9781 6.86125 18.3448 7.53729 18.6198L7.94979 21.5302C8.00708 21.8052 8.22479 22 8.49979 22H12.8998C13.1748 22 13.404 21.8052 13.4383 21.5302L13.8508 18.6198C14.5269 18.3448 15.1456 17.9781 15.7071 17.5427L18.4456 18.6427C18.6977 18.7344 18.9842 18.6427 19.1217 18.3906L21.3217 14.5865C21.4592 14.3344 21.4019 14.0479 21.1842 13.8875L18.881 12.0771ZM10.6998 15.125C8.43104 15.125 6.57479 13.2687 6.57479 11C6.57479 8.73125 8.43104 6.875 10.6998 6.875C12.9685 6.875 14.8248 8.73125 14.8248 11C14.8248 13.2687 12.9685 15.125 10.6998 15.125Z" fill="#CD6E51"/>
</svg>
