<svg width="30" height="30" viewBox="0 0 30 30" fill="none" xmlns="http://www.w3.org/2000/svg">
<path fill-rule="evenodd" clip-rule="evenodd" d="M0.971157 30C0.442618 30 0 29.591 0 29.0624V29.0624C0 21.296 6.71573 15 15 15C23.2843 15 30 21.296 30 29.0624V29.0624C30 29.591 29.5574 30 29.0288 30H27.4331C26.9033 30 26.5 29.5298 26.5 29V29C26.5 24.0294 21.3513 20 15 20C8.64873 20 3.5 24.0294 3.5 29V29C3.5 29.5298 3.09672 30 2.5669 30H0.971157Z" fill="#292929"/>
<path d="M21 8C21 11.4373 18.4179 14 15.5 14C12.5821 14 10 11.4373 10 8C10 4.56274 12.5821 2 15.5 2C18.4179 2 21 4.56274 21 8Z" stroke="#292929" stroke-width="4"/>
</svg>
