<svg width="22" height="24" viewBox="0 0 22 24" fill="none" xmlns="http://www.w3.org/2000/svg">
<path d="M0.787314 6.55889C0.689256 5.95093 1.15874 5.39966 1.77456 5.39966H19.8261C20.4419 5.39966 20.9114 5.95093 20.8134 6.55889L18.1359 23.1589C18.0578 23.6435 17.6395 23.9997 17.1487 23.9997H4.45198C3.96116 23.9997 3.54289 23.6434 3.46473 23.1589L0.787314 6.55889Z" fill="black"/>
<rect x="4.80029" y="7.19971" width="2.4" height="14.4" rx="1.2" fill="#D9D9D9" fill-opacity="0.6"/>
<rect x="9.60034" y="7.19971" width="2.4" height="14.4" rx="1.2" fill="#D9D9D9" fill-opacity="0.6"/>
<rect x="14.4004" y="7.19971" width="2.4" height="14.4" rx="1.2" fill="#D9D9D9" fill-opacity="0.6"/>
<rect y="2.3999" width="21.6" height="2.4" rx="1.2" fill="black"/>
<rect x="2.40002" y="1.19995" width="16.8" height="2.4" rx="1.2" fill="black"/>
<rect x="9" width="3.6" height="3.6" rx="1" fill="black"/>
</svg>
