<svg width="36" height="42" viewBox="0 0 36 42" fill="none" xmlns="http://www.w3.org/2000/svg">
<path d="M21.5916 15.6625C23.242 15.1842 24.1533 12.1914 22.4682 12.3191V12.3191C20.2664 12.486 8.41364 18.9068 8.92293 32.5884C8.98508 34.2578 9.27055 36.0698 10.3345 37.0686C10.8829 37.5835 11.5938 37.7788 12.4082 36.9019C13.9973 35.1906 12.7961 18.2118 21.5916 15.6625Z" fill="#292929"/>
<path d="M13.8121 28.1179C13.8227 28.2962 13.533 28.4376 13.5018 28.2652V28.2652C12.9614 25.2755 17.003 7.36089 29.3003 7.00949C30.0862 6.98703 30.8932 6.90682 31.6433 7.14462C32.475 7.40827 33.3026 8.18978 32.4122 10.4313C31.1166 13.6927 13.0224 14.9125 13.8121 28.1179Z" fill="#292929"/>
<path d="M14.4076 15.6626C12.7572 15.1842 11.8458 12.1914 13.531 12.3191V12.3191C15.7328 12.486 27.5859 18.9068 27.0766 32.5885C27.0144 34.2578 26.7289 36.0698 25.665 37.0686C25.1166 37.5835 24.4056 37.7788 23.5912 36.9019C22.0021 35.1906 23.2033 18.2118 14.4076 15.6626Z" fill="#292929"/>
<path d="M22.187 28.1179C22.1764 28.2962 22.4661 28.4376 22.4973 28.2652V28.2652C23.0377 25.2755 18.996 7.36088 6.69837 7.00949C5.91247 6.98703 5.1055 6.90682 4.35536 7.14462C3.52367 7.40826 2.69604 8.18977 3.58647 10.4313C4.88202 13.6927 22.9767 14.9125 22.187 28.1179Z" fill="#292929"/>
</svg>
