<svg width="42" height="54" viewBox="0 0 42 54" fill="none" xmlns="http://www.w3.org/2000/svg">
<path d="M16.3867 21.678C14.7759 21.5746 13.7687 18.4573 15.3986 18.1721V18.1721C17.4992 17.8045 29.1877 22.0098 29.5496 37.4818C29.5919 39.2914 29.4439 41.3184 28.5275 42.6994C28.0393 43.4352 27.3701 43.8597 26.5271 43.0722C24.9068 41.5585 24.9429 22.2273 16.3867 21.678Z" fill="#292929"/>
<path d="M26.1863 31.7434C26.218 31.9458 26.5185 31.986 26.5067 31.7818V31.7818C26.2967 28.1393 18.354 9.66613 6.99634 15.117C6.33323 15.4353 5.64193 15.7081 5.05512 16.242C4.3241 16.907 3.65536 18.1901 5.04622 20.3925C6.99536 23.479 23.7931 16.4584 26.1863 31.7434Z" fill="#292929"/>
<path d="M26.0765 21.4229C27.575 21.3556 28.5602 18.1879 27.0492 17.8816V17.8816C25.1505 17.4965 14.3142 21.6689 13.2394 37.2767C13.1099 39.1572 13.1278 41.3479 14.0001 42.778C14.4081 43.447 14.9777 43.7902 15.7378 43.0429C17.2936 41.5134 18.1504 21.779 26.0765 21.4229Z" fill="#292929"/>
<path d="M16.5728 31.569C16.5344 31.7746 16.2586 31.8108 16.2789 31.603V31.603C16.6381 27.9149 24.7366 9.26096 34.855 14.8317C35.4555 15.1623 36.0845 15.4455 36.6023 16.0043C37.2343 16.6864 37.7705 17.9883 36.4073 20.1971C34.4847 23.3126 19.4608 16.0919 16.5728 31.569Z" fill="#292929"/>
</svg>
