<svg width="35" height="32" viewBox="0 0 35 32" fill="none" xmlns="http://www.w3.org/2000/svg">
<path d="M2.66611 7.83617C1.56996 7.07143 1.33437 5.73616 2.13514 4.75681V4.75681C2.95835 3.75002 4.58928 3.46605 5.82621 4.12567C17.2731 10.2299 23.6222 15.1353 31.3616 25.5309C31.9901 26.3751 31.9421 27.4523 31.2532 28.2553V28.2553C30.0915 29.6094 27.6852 29.6203 26.4572 28.2942C18.6611 19.8754 12.6987 14.8356 2.66611 7.83617Z" fill="#292929"/>
<path d="M30.3939 8.148C31.546 7.29049 31.8895 5.47813 31.1281 4.21915V4.21915C30.5228 3.21829 29.3922 2.8789 28.4149 3.41733C18.3128 8.98249 11.6514 14.411 3.94944 24.8928C2.95463 26.2467 3.07447 28.2527 4.18683 29.3534V29.3534C5.23448 30.39 6.80978 30.2685 7.83203 29.0891C15.631 20.091 21.2198 14.9766 30.3939 8.148Z" fill="#292929"/>
</svg>
