<?xml version="1.0" encoding="UTF-8" standalone="no"?>
<svg
   xmlns:dc="http://purl.org/dc/elements/1.1/"
   xmlns:cc="http://creativecommons.org/ns#"
   xmlns:rdf="http://www.w3.org/1999/02/22-rdf-syntax-ns#"
   xmlns:svg="http://www.w3.org/2000/svg"
   xmlns="http://www.w3.org/2000/svg"
   xmlns:sodipodi="http://sodipodi.sourceforge.net/DTD/sodipodi-0.dtd"
   xmlns:inkscape="http://www.inkscape.org/namespaces/inkscape"
   version="1.1"
   id="svg2"
   xml:space="preserve"
   width="323.87732"
   height="323.87732"
   viewBox="0 0 323.87732 323.87732"
   sodipodi:docname="ZinZen_mark_B_W.svg"
   inkscape:version="1.0.2-2 (e86c870879, 2021-01-15)"><metadata
     id="metadata8"><rdf:RDF><cc:Work
         rdf:about=""><dc:format>image/svg+xml</dc:format><dc:type
           rdf:resource="http://purl.org/dc/dcmitype/StillImage" /><dc:title></dc:title></cc:Work></rdf:RDF></metadata><defs
     id="defs6"><clipPath
       clipPathUnits="userSpaceOnUse"
       id="clipPath20"><path
         d="M 0,1920 H 1920 V 0 H 0 Z"
         id="path18" /></clipPath></defs><sodipodi:namedview
     pagecolor="#ffffff"
     bordercolor="#666666"
     borderopacity="1"
     objecttolerance="10"
     gridtolerance="10"
     guidetolerance="10"
     inkscape:pageopacity="0"
     inkscape:pageshadow="2"
     inkscape:window-width="3840"
     inkscape:window-height="1514"
     id="namedview4"
     showgrid="false"
     inkscape:zoom="0.28710938"
     inkscape:cx="161.93896"
     inkscape:cy="162.31063"
     inkscape:window-x="1957"
     inkscape:window-y="-11"
     inkscape:window-maximized="1"
     inkscape:current-layer="g14" /><g
     id="g10"
     inkscape:groupmode="layer"
     inkscape:label="ZinZen_mark_B_W"
     transform="matrix(1.3333333,0,0,-1.3333333,-1118.061,1442.3106)"><path
       d="M 0,0 H 1920 V 1920 H 0 Z"
       style="fill:#ffffff;fill-opacity:1;fill-rule:nonzero;stroke:none"
       id="path12" /><g
       id="g14"><g
         id="g16"
         clip-path="url(#clipPath20)"><g
           id="g22"
           transform="translate(1017.8338,890.278)"><path
             d="m 0,0 c -16.841,-14.104 -37.489,-21.051 -58.06,-21.054 -23.933,-0.002 -47.761,9.398 -65.397,27.863 -2.263,2.371 -7.507,8.795 -7.364,17.239 0.118,7.076 3.604,13.837 9.815,19.038 l 85.836,71.891 c -17.943,9.08 -39.765,6.822 -55.675,-6.505 -2.949,-2.472 -7.334,-2.077 -9.801,0.867 -2.466,2.945 -2.079,7.334 0.868,9.801 23.228,19.459 56.377,20.372 80.595,2.222 1.701,-1.273 2.725,-3.255 2.784,-5.379 0.057,-2.125 -0.858,-4.159 -2.489,-5.523 l -93.185,-78.042 c -2.17,-1.817 -4.768,-4.784 -4.831,-8.603 -0.048,-2.693 1.864,-5.667 3.513,-7.396 27.742,-29.047 73.626,-31.574 104.458,-5.751 21.538,18.042 31.457,46.375 25.88,73.944 -0.761,3.766 1.674,7.438 5.441,8.199 3.755,0.777 7.436,-1.674 8.199,-5.441 C 37.176,54.796 25.455,21.319 0,0 m -138.056,47.193 c -3.759,-0.766 -7.438,1.671 -8.199,5.44 -6.589,32.572 5.133,66.052 30.59,87.371 36.433,30.514 90.663,27.525 123.457,-6.811 2.256,-2.358 7.506,-8.771 7.364,-17.238 -0.118,-7.08 -3.604,-13.844 -9.817,-19.04 L -80.496,25.027 c 17.937,-9.081 39.761,-6.82 55.675,6.505 2.945,2.471 7.333,2.079 9.801,-0.868 2.467,-2.944 2.08,-7.334 -0.867,-9.8 C -27.985,10.73 -42.778,5.626 -57.594,5.624 c -13.631,0 -27.282,4.317 -38.889,13.013 -1.701,1.275 -2.724,3.257 -2.783,5.382 -0.057,2.124 0.858,4.158 2.489,5.522 l 93.185,78.045 c 2.17,1.817 4.768,4.781 4.831,8.603 0.048,2.7 -1.86,5.665 -3.506,7.384 -27.754,29.058 -73.633,31.584 -104.465,5.762 -21.541,-18.041 -31.459,-46.375 -25.883,-73.943 0.761,-3.767 -1.674,-7.438 -5.441,-8.199 M 45.26,42.371 c 2.518,9.42 18.36,17.416 18.36,27.63 0,10.214 -15.842,18.21 -18.36,27.63 -2.605,9.747 7.04,24.577 2.103,33.11 -5.009,8.656 -22.72,7.686 -29.745,14.711 -7.025,7.025 -6.054,24.736 -14.711,29.745 -8.533,4.937 -23.363,-4.707 -33.11,-2.102 -9.421,2.518 -17.417,18.36 -27.631,18.36 -10.214,0 -18.21,-15.842 -27.63,-18.36 -9.746,-2.605 -24.576,7.04 -33.11,2.103 -8.656,-5.009 -7.685,-22.72 -14.711,-29.745 -7.025,-7.025 -24.736,-6.054 -29.745,-14.711 -4.937,-8.533 4.707,-23.364 2.102,-33.11 -2.518,-9.421 -18.36,-17.417 -18.36,-27.631 0,-10.214 15.842,-18.21 18.36,-27.63 2.605,-9.747 -7.039,-24.576 -2.102,-33.11 5.008,-8.656 22.719,-7.685 29.744,-14.711 7.026,-7.025 6.055,-24.736 14.711,-29.745 8.534,-4.937 23.364,4.707 33.111,2.102 9.42,-2.518 17.416,-18.36 27.63,-18.36 10.214,0 18.21,15.842 27.63,18.36 9.747,2.605 24.577,-7.04 33.11,-2.102 8.656,5.008 7.686,22.719 14.711,29.744 7.025,7.026 24.737,6.055 29.745,14.711 4.937,8.534 -4.707,23.364 -2.102,33.111"
             style="fill:#231f20;fill-opacity:1;fill-rule:nonzero;stroke:none"
             id="path24" /></g></g></g></g></svg>
