<?xml version="1.0" encoding="UTF-8" standalone="no"?>
<svg
   xmlns:dc="http://purl.org/dc/elements/1.1/"
   xmlns:cc="http://creativecommons.org/ns#"
   xmlns:rdf="http://www.w3.org/1999/02/22-rdf-syntax-ns#"
   xmlns:svg="http://www.w3.org/2000/svg"
   xmlns="http://www.w3.org/2000/svg"
   xmlns:sodipodi="http://sodipodi.sourceforge.net/DTD/sodipodi-0.dtd"
   xmlns:inkscape="http://www.inkscape.org/namespaces/inkscape"
   version="1.1"
   id="svg2"
   xml:space="preserve"
   width="238.57866"
   height="238.57866"
   viewBox="0 0 238.57866 238.57866"
   sodipodi:docname="ZinZen_white_bg_sunny.svg"
   inkscape:version="1.0.2-2 (e86c870879, 2021-01-15)"><metadata
     id="metadata8"><rdf:RDF><cc:Work
         rdf:about=""><dc:format>image/svg+xml</dc:format><dc:type
           rdf:resource="http://purl.org/dc/dcmitype/StillImage" /><dc:title></dc:title></cc:Work></rdf:RDF></metadata><defs
     id="defs6"><clipPath
       clipPathUnits="userSpaceOnUse"
       id="clipPath20"><path
         d="m 716.564,1036.221 c -3.278,-0.876 -7.336,0.129 -11.377,1.133 v 0 c -4.811,1.197 -9.597,2.393 -13.013,0.416 v 0 c -6.377,-3.689 -5.661,-16.736 -10.836,-21.911 v 0 c -5.175,-5.175 -18.222,-4.46 -21.912,-10.836 v 0 c -3.637,-6.286 3.468,-17.211 1.548,-24.39 v 0 c -1.854,-6.94 -13.524,-12.83 -13.524,-20.354 v 0 c 0,-7.524 11.67,-13.414 13.524,-20.353 v 0 c 1.919,-7.179 -5.185,-18.104 -1.548,-24.39 v 0 c 3.69,-6.377 16.736,-5.661 21.911,-10.836 v 0 c 5.175,-5.175 4.459,-18.222 10.836,-21.912 v 0 c 3.415,-1.976 8.202,-0.781 13.012,0.415 v 0 c 4.041,1.005 8.1,2.009 11.379,1.133 v 0 c 6.939,-1.854 12.829,-13.524 20.353,-13.524 v 0 c 7.523,0 13.414,11.67 20.353,13.524 v 0 c 3.278,0.876 7.337,-0.128 11.378,-1.133 v 0 c 4.81,-1.196 9.596,-2.391 13.012,-0.415 v 0 c 6.376,3.69 5.661,16.736 10.837,21.911 v 0 c 5.175,5.175 18.221,4.459 21.91,10.836 v 0 c 3.637,6.286 -3.467,17.211 -1.548,24.391 v 0 c 1.855,6.939 13.525,12.829 13.525,20.353 v 0 c 0,7.524 -11.67,13.414 -13.525,20.354 v 0 c -1.919,7.179 5.186,18.103 1.549,24.389 v 0 c -3.689,6.376 -16.736,5.662 -21.911,10.837 v 0 c -5.175,5.175 -4.46,18.221 -10.836,21.91 v 0 c -3.417,1.977 -8.204,0.781 -13.014,-0.415 v 0 c -4.041,-1.004 -8.099,-2.009 -11.376,-1.133 v 0 c -6.94,1.855 -12.83,13.525 -20.354,13.525 v 0 c -7.524,0 -13.414,-11.67 -20.353,-13.525 m -44.781,-88.735 c -4.853,23.993 3.781,48.655 22.534,64.359 v 0 c 26.838,22.478 66.785,20.276 90.942,-5.017 v 0 c 1.661,-1.737 5.53,-6.461 5.424,-12.698 v 0 c -0.087,-5.215 -2.655,-10.198 -7.231,-14.025 v 0 l -63.229,-52.956 c 13.213,-6.688 29.29,-5.023 41.012,4.793 v 0 c 2.169,1.82 5.401,1.531 7.22,-0.639 v 0 c 1.817,-2.17 1.532,-5.403 -0.639,-7.22 v 0 c -8.912,-7.465 -19.808,-11.225 -30.722,-11.226 v 0 c -10.042,0 -20.097,3.18 -28.647,9.585 v 0 c -1.253,0.94 -2.007,2.4 -2.05,3.965 v 0 c -0.042,1.565 0.632,3.064 1.833,4.068 v 0 l 68.643,57.49 c 1.598,1.338 3.512,3.523 3.558,6.337 v 0 c 0.035,1.989 -1.369,4.173 -2.582,5.44 v 0 c -20.444,21.405 -54.24,23.266 -76.952,4.244 v 0 c -15.867,-13.289 -23.174,-34.16 -19.066,-54.468 v 0 c 0.561,-2.775 -1.233,-5.48 -4.008,-6.041 v 0 c -0.343,-0.07 -0.685,-0.103 -1.023,-0.103 v 0 c -2.385,0 -4.525,1.679 -5.017,4.112 m 33.597,41.771 c -1.817,2.169 -1.531,5.402 0.639,7.219 v 0 c 17.111,14.335 41.53,15.007 59.37,1.638 v 0 c 1.253,-0.938 2.007,-2.398 2.05,-3.963 v 0 c 0.041,-1.565 -0.633,-3.064 -1.833,-4.068 v 0 l -68.643,-57.489 c -1.599,-1.338 -3.513,-3.524 -3.559,-6.337 v 0 c -0.035,-1.984 1.373,-4.175 2.588,-5.448 v 0 c 20.436,-21.397 54.235,-23.259 76.947,-4.236 v 0 c 15.865,13.29 23.172,34.161 19.064,54.469 v 0 c -0.561,2.774 1.233,5.479 4.007,6.039 v 0 c 2.767,0.573 5.479,-1.233 6.041,-4.007 v 0 c 4.854,-23.995 -3.781,-48.656 -22.532,-64.36 v 0 c -12.405,-10.39 -27.616,-15.507 -42.769,-15.509 v 0 c -17.629,-0.002 -35.182,6.923 -48.173,20.524 v 0 c -1.667,1.747 -5.53,6.48 -5.425,12.7 v 0 c 0.088,5.212 2.655,10.193 7.23,14.023 v 0 l 63.23,52.957 c -13.218,6.69 -29.292,5.026 -41.012,-4.791 v 0 c -0.96,-0.805 -2.127,-1.197 -3.287,-1.197 v 0 c -1.465,0 -2.918,0.625 -3.933,1.836"
         id="path18" /></clipPath><linearGradient
       x1="0"
       y1="0"
       x2="1"
       y2="0"
       gradientUnits="userSpaceOnUse"
       gradientTransform="matrix(178.93341,0,0,-178.93341,647.45026,960.27905)"
       spreadMethod="pad"
       id="linearGradient34"><stop
         style="stop-opacity:1;stop-color:#fdbf05"
         offset="0"
         id="stop26" /><stop
         style="stop-opacity:1;stop-color:#fdbf05"
         offset="0.101603"
         id="stop28" /><stop
         style="stop-opacity:1;stop-color:#f42e70"
         offset="0.935578"
         id="stop30" /><stop
         style="stop-opacity:1;stop-color:#f42e70"
         offset="1"
         id="stop32" /></linearGradient><clipPath
       clipPathUnits="userSpaceOnUse"
       id="clipPath44"><path
         d="M 0,1920 H 1920 V 0 H 0 Z"
         id="path42" /></clipPath></defs><sodipodi:namedview
     pagecolor="#ffffff"
     bordercolor="#666666"
     borderopacity="1"
     objecttolerance="10"
     gridtolerance="10"
     guidetolerance="10"
     inkscape:pageopacity="0"
     inkscape:pageshadow="2"
     inkscape:window-width="1918"
     inkscape:window-height="1501"
     id="namedview4"
     showgrid="false"
     inkscape:snap-center="false"
     inkscape:zoom="0.28710938"
     inkscape:cx="416.73336"
     inkscape:cy="119.6613"
     inkscape:window-x="1959"
     inkscape:window-y="0"
     inkscape:window-maximized="0"
     inkscape:current-layer="layer1" /><g
     id="g10"
     inkscape:groupmode="layer"
     inkscape:label="ZinZen_white_bg"
     transform="matrix(1.3333333,0,0,-1.3333333,-863.26664,1399.6613)"
     style="display:none"><path
       d="M 0,0 H 1920 V 1920 H 0 Z"
       style="fill:#ffffff;fill-opacity:1;fill-rule:nonzero;stroke:none"
       id="path12" /><g
       id="g38"><g
         id="g40"
         clip-path="url(#clipPath44)"><g
           id="g46"
           transform="translate(951.0541,1007.8205)"><path
             d="m 0,0 c 3.619,3.619 9.408,3.619 12.881,0 3.616,-3.473 3.616,-9.259 0,-12.878 C 9.408,-16.354 3.619,-16.354 0,-12.878 -3.617,-9.259 -3.617,-3.473 0,0"
             style="fill:#7c84a7;fill-opacity:1;fill-rule:nonzero;stroke:none"
             id="path48" /></g><g
           id="g50"
           transform="translate(950.0409,978.5125)"><path
             d="m 0,0 c 0,5.212 1.303,6.512 6.512,6.512 h 1.883 c 5.209,0 6.512,-1.3 6.512,-6.512 v -58.754 c 0,-5.209 -1.303,-6.512 -6.512,-6.512 H 6.512 C 1.303,-65.266 0,-63.963 0,-58.754 Z"
             style="fill:#7c84a7;fill-opacity:1;fill-rule:nonzero;stroke:none"
             id="path52" /></g><g
           id="g54"
           transform="translate(993.8544,919.7584)"><path
             d="m 0,0 c 0,-5.209 -1.303,-6.512 -6.512,-6.512 h -1.88 c -5.21,0 -6.513,1.303 -6.513,6.512 v 38.784 c 0,18.667 10.565,28.075 31.548,28.075 21.997,0 31.403,-9.408 31.403,-28.075 V 0 c 0,-5.209 -1.303,-6.512 -6.513,-6.512 h -1.88 c -5.209,0 -6.512,1.303 -6.512,6.512 v 38.784 c 0,9.839 -3.619,14.184 -16.498,14.184 C 3.763,52.968 0,48.623 0,38.784 Z"
             style="fill:#7c84a7;fill-opacity:1;fill-rule:nonzero;stroke:none"
             id="path56" /></g><g
           id="g58"
           transform="translate(1150.4725,955.7925)"><path
             d="m 0,0 h 33.864 v 3.617 c 0,9.551 -5.645,14.327 -17.077,14.327 C 5.643,17.944 0,13.168 0,3.617 Z m 47.612,-5.499 c -0.579,-5.356 -2.026,-6.658 -7.382,-6.658 H 0 v -3.181 c 0,-10.567 6.079,-14.764 20.694,-14.764 5.935,0 12.157,0.724 18.813,2.316 4.632,1.157 5.933,0 5.933,-5.065 v -1.88 c 0,-4.776 -0.867,-5.789 -5.933,-7.092 -5.789,-1.591 -12.011,-2.314 -18.813,-2.314 -24.313,0 -35.599,9.116 -35.599,30.969 V -0.58 c 0,20.986 10.709,31.405 32.126,31.405 20.116,0 30.681,-10.275 30.681,-29.958 0,-2.17 -0.146,-4.196 -0.29,-6.366"
             style="fill:#7c84a7;fill-opacity:1;fill-rule:nonzero;stroke:none"
             id="path60" /></g><g
           id="g62"
           transform="translate(1224.8762,919.7584)"><path
             d="m 0,0 c 0,-5.209 -1.303,-6.512 -6.512,-6.512 h -1.88 c -5.21,0 -6.513,1.303 -6.513,6.512 v 38.784 c 0,18.667 10.565,28.075 31.549,28.075 21.996,0 31.402,-9.408 31.402,-28.075 V 0 c 0,-5.209 -1.301,-6.512 -6.513,-6.512 h -1.88 c -5.209,0 -6.512,1.303 -6.512,6.512 v 38.784 c 0,9.839 -3.619,14.184 -16.497,14.184 C 3.763,52.968 0,48.623 0,38.784 Z"
             style="fill:#7c84a7;fill-opacity:1;fill-rule:nonzero;stroke:none"
             id="path64" /></g><g
           id="g66"
           transform="translate(936.5829,975.5712)"><path
             d="m 0,0 c 0.722,5.169 -1.885,9.334 -3.041,10.888 -7.962,10.685 -20.724,17.063 -34.138,17.063 h -28.417 c -5.4,0 -6.751,-1.353 -6.751,-6.759 v -1.353 c 0,-5.407 1.351,-6.76 6.751,-6.76 h 28.417 c 0.007,0 0.014,10e-4 0.022,10e-4 8.71,0 16.995,-4.134 22.169,-11.066 -0.059,-0.043 -52.554,-34.036 -52.554,-34.036 -3.971,-2.575 -6.486,-6.34 -7.081,-10.603 -1.359,-14.185 4.92,-19.7 20.819,-19.7 h 46.663 c 5.348,0 6.687,1.339 6.687,6.687 v 1.339 c 0,5.348 -1.339,6.687 -6.687,6.687 H -54.1 c -3.714,0 -5.498,1.039 -5.498,2.97 l -0.032,0.004 c 0.196,0.134 52.548,34.035 52.548,34.035 C -3.112,-8.028 -0.596,-4.263 0,0"
             style="fill:#7c84a7;fill-opacity:1;fill-rule:nonzero;stroke:none"
             id="path68" /></g><g
           id="g70"
           transform="translate(1128.0012,975.5712)"><path
             d="m 0,0 c 0.722,5.169 -1.885,9.334 -3.041,10.888 -7.962,10.685 -20.724,17.063 -34.138,17.063 h -28.417 c -5.4,0 -6.751,-1.353 -6.751,-6.759 v -1.353 c 0,-5.407 1.351,-6.76 6.751,-6.76 h 28.417 c 0.007,0 0.014,10e-4 0.022,10e-4 8.71,0 16.995,-4.134 22.169,-11.066 -0.059,-0.043 -52.554,-34.036 -52.554,-34.036 -3.971,-2.575 -6.486,-6.34 -7.081,-10.603 -1.359,-14.185 4.92,-19.7 20.819,-19.7 h 46.663 c 5.348,0 6.687,1.339 6.687,6.687 v 1.339 c 0,5.348 -1.339,6.687 -6.687,6.687 H -54.1 c -3.714,0 -5.498,1.039 -5.498,2.97 l -0.032,0.004 c 0.196,0.134 52.548,34.035 52.548,34.035 C -3.112,-8.028 -0.596,-4.263 0,0"
             style="fill:#7c84a7;fill-opacity:1;fill-rule:nonzero;stroke:none"
             id="path72" /></g></g></g></g><g
     inkscape:groupmode="layer"
     id="layer1"
     inkscape:label="ZinZen_white_bg 1"><g
       id="g14"
       transform="matrix(1.3333333,0,0,-1.3333333,-863.26665,1399.6613)"><g
         id="g16"
         clip-path="url(#clipPath20)"><g
           id="g22"><g
             id="g24"><path
               d="m 716.564,1036.221 c -3.278,-0.876 -7.336,0.129 -11.377,1.133 v 0 c -4.811,1.197 -9.597,2.393 -13.013,0.416 v 0 c -6.377,-3.689 -5.661,-16.736 -10.836,-21.911 v 0 c -5.175,-5.175 -18.222,-4.46 -21.912,-10.836 v 0 c -3.637,-6.286 3.468,-17.211 1.548,-24.39 v 0 c -1.854,-6.94 -13.524,-12.83 -13.524,-20.354 v 0 c 0,-7.524 11.67,-13.414 13.524,-20.353 v 0 c 1.919,-7.179 -5.185,-18.104 -1.548,-24.39 v 0 c 3.69,-6.377 16.736,-5.661 21.911,-10.836 v 0 c 5.175,-5.175 4.459,-18.222 10.836,-21.912 v 0 c 3.415,-1.976 8.202,-0.781 13.012,0.415 v 0 c 4.041,1.005 8.1,2.009 11.379,1.133 v 0 c 6.939,-1.854 12.829,-13.524 20.353,-13.524 v 0 c 7.523,0 13.414,11.67 20.353,13.524 v 0 c 3.278,0.876 7.337,-0.128 11.378,-1.133 v 0 c 4.81,-1.196 9.596,-2.391 13.012,-0.415 v 0 c 6.376,3.69 5.661,16.736 10.837,21.911 v 0 c 5.175,5.175 18.221,4.459 21.91,10.836 v 0 c 3.637,6.286 -3.467,17.211 -1.548,24.391 v 0 c 1.855,6.939 13.525,12.829 13.525,20.353 v 0 c 0,7.524 -11.67,13.414 -13.525,20.354 v 0 c -1.919,7.179 5.186,18.103 1.549,24.389 v 0 c -3.689,6.376 -16.736,5.662 -21.911,10.837 v 0 c -5.175,5.175 -4.46,18.221 -10.836,21.91 v 0 c -3.417,1.977 -8.204,0.781 -13.014,-0.415 v 0 c -4.041,-1.004 -8.099,-2.009 -11.376,-1.133 v 0 c -6.94,1.855 -12.83,13.525 -20.354,13.525 v 0 c -7.524,0 -13.414,-11.67 -20.353,-13.525 m -44.781,-88.735 c -4.853,23.993 3.781,48.655 22.534,64.359 v 0 c 26.838,22.478 66.785,20.276 90.942,-5.017 v 0 c 1.661,-1.737 5.53,-6.461 5.424,-12.698 v 0 c -0.087,-5.215 -2.655,-10.198 -7.231,-14.025 v 0 l -63.229,-52.956 c 13.213,-6.688 29.29,-5.023 41.012,4.793 v 0 c 2.169,1.82 5.401,1.531 7.22,-0.639 v 0 c 1.817,-2.17 1.532,-5.403 -0.639,-7.22 v 0 c -8.912,-7.465 -19.808,-11.225 -30.722,-11.226 v 0 c -10.042,0 -20.097,3.18 -28.647,9.585 v 0 c -1.253,0.94 -2.007,2.4 -2.05,3.965 v 0 c -0.042,1.565 0.632,3.064 1.833,4.068 v 0 l 68.643,57.49 c 1.598,1.338 3.512,3.523 3.558,6.337 v 0 c 0.035,1.989 -1.369,4.173 -2.582,5.44 v 0 c -20.444,21.405 -54.24,23.266 -76.952,4.244 v 0 c -15.867,-13.289 -23.174,-34.16 -19.066,-54.468 v 0 c 0.561,-2.775 -1.233,-5.48 -4.008,-6.041 v 0 c -0.343,-0.07 -0.685,-0.103 -1.023,-0.103 v 0 c -2.385,0 -4.525,1.679 -5.017,4.112 m 33.597,41.771 c -1.817,2.169 -1.531,5.402 0.639,7.219 v 0 c 17.111,14.335 41.53,15.007 59.37,1.638 v 0 c 1.253,-0.938 2.007,-2.398 2.05,-3.963 v 0 c 0.041,-1.565 -0.633,-3.064 -1.833,-4.068 v 0 l -68.643,-57.489 c -1.599,-1.338 -3.513,-3.524 -3.559,-6.337 v 0 c -0.035,-1.984 1.373,-4.175 2.588,-5.448 v 0 c 20.436,-21.397 54.235,-23.259 76.947,-4.236 v 0 c 15.865,13.29 23.172,34.161 19.064,54.469 v 0 c -0.561,2.774 1.233,5.479 4.007,6.039 v 0 c 2.767,0.573 5.479,-1.233 6.041,-4.007 v 0 c 4.854,-23.995 -3.781,-48.656 -22.532,-64.36 v 0 c -12.405,-10.39 -27.616,-15.507 -42.769,-15.509 v 0 c -17.629,-0.002 -35.182,6.923 -48.173,20.524 v 0 c -1.667,1.747 -5.53,6.48 -5.425,12.7 v 0 c 0.088,5.212 2.655,10.193 7.23,14.023 v 0 l 63.23,52.957 c -13.218,6.69 -29.292,5.026 -41.012,-4.791 v 0 c -0.96,-0.805 -2.127,-1.197 -3.287,-1.197 v 0 c -1.465,0 -2.918,0.625 -3.933,1.836"
               style="fill:url(#linearGradient34);stroke:none"
               id="path36" /></g></g></g></g></g></svg>
