<svg width="41" height="40" viewBox="0 0 41 40" fill="none" xmlns="http://www.w3.org/2000/svg">
<path d="M17.3302 21.8534C16.8031 23.5027 14.3654 24.1968 14.6616 22.4894C15.0226 20.4079 21.2356 9.23936 31.8283 9.27339C33.3905 9.2784 35.4531 9.49607 35.8404 11.0447C35.9488 11.4779 35.8313 11.9865 35.2693 12.5532C33.7261 14.1091 20.1108 13.1514 17.3302 21.8534Z" fill="#292929"/>
<path d="M27.317 12.3311C27.4579 12.3392 27.5395 12.0375 27.4011 12.0079C25.0535 11.5064 11.5741 15.9497 12.0553 28.4979C12.0913 29.4364 12.0656 30.4156 12.4036 31.289C12.7064 32.0711 13.3926 32.7316 14.9471 31.8412C17.3836 30.4456 17.004 11.7435 27.317 12.3311Z" fill="#292929"/>
<path d="M13.0678 14.5973C11.3114 14.3143 10.1915 11.7581 11.9669 11.7769C14.1416 11.8 26.5992 16.6722 28.2928 28.4507C28.5243 30.0604 28.6257 32.1012 27.3106 32.9336C26.8726 33.2108 26.2942 33.2308 25.5474 32.6545C23.7105 31.237 22.3349 16.0909 13.0678 14.5973Z" fill="#292929"/>
<path d="M24.03 22.9422C24.0498 23.0887 24.3406 23.1244 24.3412 22.9771C24.3515 20.5273 17.7102 7.42071 6.31935 9.50737C5.4451 9.66753 4.51686 9.76387 3.7643 10.2492C3.12153 10.6636 2.67922 11.4454 3.7757 12.8876C5.52205 15.1845 22.6024 12.3695 24.03 22.9422Z" fill="#292929"/>
</svg>
