<svg width="30" height="30" viewBox="0 0 30 30" fill="none" xmlns="http://www.w3.org/2000/svg">
<path d="M10.1081 2.44967C9.66281 1.27821 10.5113 0 11.7646 0C12.2928 0 12.7992 0.242761 13.1264 0.657368C21.8447 11.7033 19.8616 18.1997 13.0892 29.209C12.7873 29.6997 12.2492 30 11.673 30C10.4718 30 9.66547 28.7658 10.1075 27.6488C13.7352 18.482 13.8402 12.2674 10.1081 2.44967Z" fill="#292929"/>
<path d="M26.8898 8.72679C28.0567 8.17014 29.4388 8.94254 29.5228 10.231C29.5569 10.7544 29.3554 11.2741 28.974 11.6353C18.7492 21.3191 12.262 19.7245 1.03926 13.5236C0.537086 13.2461 0.209619 12.7287 0.172231 12.1552C0.0917302 10.9205 1.31806 10.0122 2.49002 10.4042C11.5887 13.447 17.6483 13.1356 26.8898 8.72679Z" fill="#292929"/>
</svg>
