<svg width="25" height="39" viewBox="0 0 25 39" fill="none" xmlns="http://www.w3.org/2000/svg">
<path d="M22.8168 25.4677C24.0226 25.4677 25.0168 24.4849 24.8375 23.2926C24.6828 22.2642 24.4185 21.2562 24.0485 20.2891C23.4203 18.6473 22.4996 17.1555 21.3388 15.8989C20.1781 14.6423 18.8001 13.6455 17.2835 12.9654C15.767 12.2853 14.1415 11.9353 12.5 11.9353C10.8585 11.9353 9.23303 12.2853 7.71646 12.9654C6.19989 13.6455 4.8219 14.6423 3.66116 15.8989C2.50043 17.1555 1.57969 18.6473 0.951505 20.2891C0.581473 21.2562 0.317223 22.2642 0.162526 23.2926C-0.0168317 24.4849 0.977443 25.4677 2.18318 25.4677C3.38892 25.4677 4.34088 24.4776 4.61582 23.3037C4.71186 22.8936 4.83528 22.4906 4.9855 22.098C5.39425 21.0297 5.99337 20.059 6.74865 19.2413C7.50393 18.4237 8.40057 17.7751 9.38739 17.3326C10.3742 16.8901 11.4319 16.6623 12.5 16.6623C13.5681 16.6623 14.6258 16.8901 15.6126 17.3326C16.5994 17.7751 17.4961 18.4237 18.2514 19.2413C19.0066 20.059 19.6057 21.0297 20.0145 22.098C20.1647 22.4906 20.2881 22.8936 20.3842 23.3037C20.6591 24.4776 21.6111 25.4677 22.8168 25.4677Z" fill="#292929"/>
<circle cx="12.5" cy="7.5" r="5.75" stroke="#292929" stroke-width="3.5"/>
</svg>
