<svg width="751" height="721" viewBox="0 0 751 721" fill="none" xmlns="http://www.w3.org/2000/svg">
<path fill-rule="evenodd" clip-rule="evenodd" d="M114.142 250.543C161.722 179.338 224.288 192.058 298.309 167.066C356.657 147.365 444.355 95.8378 495.639 121.734C546.274 147.302 572.229 220.093 662.316 277.431C748.568 315.722 651.992 406.402 624.302 477.029C596.58 547.738 511.328 559.28 445.529 577.761C393.711 592.316 347.153 578.635 297.106 568.93C225.874 555.118 134.963 576.014 97.1466 510.208C56.1687 438.9 63.164 326.834 114.142 250.543Z" fill="url(#paint0_radial_650_195)"/>
<g clip-path="url(#clip0_650_195)">
<path d="M126.185 392.488L171 243.917H98.5C98.5 243.917 80.5 270.417 82.5 299.417C84.3173 325.768 90.6756 364.256 91.8221 377.67C91.9492 379.157 90.412 380.123 89.0144 379.599C59.9981 368.725 38.0888 417.118 26 452.417L38.5 464.417L121.773 398.954C123.873 397.303 125.414 395.045 126.185 392.488Z" fill="#DD9E86"/>
<path d="M208.991 371.35C208.932 364.628 208.477 337.801 205 320.417C201 300.417 185 243.917 185 243.917H140.5C140.5 261.649 142.4 302.872 150 325.917L164.634 370.291C165.061 371.585 164.073 372.912 162.74 373.192C139.751 378.018 156.181 445.384 161 484.417H181.5L208.622 374.451C208.873 373.432 209 372.399 208.991 371.35Z" fill="#DD9E86"/>
<rect x="44.4175" y="409.917" width="39" height="19" rx="4" transform="rotate(36.936 44.4175 409.917)" fill="#5D5FEF"/>
<path d="M205.78 285.625L187.573 246.239C186.919 244.824 185.502 243.917 183.942 243.917H166.5L145 330.417L150.517 358.002C151.475 362.795 150.732 367.772 148.415 372.076L147.242 374.253C145.766 376.995 144.918 380.031 144.759 383.141L142.125 434.849C141.513 446.851 151.08 456.917 163.097 456.917H184.192C194.466 456.917 203.231 449.484 204.91 439.348L214.441 381.795C214.812 379.55 214.944 377.271 214.832 374.998L211.61 309.343C211.207 301.136 209.228 293.084 205.78 285.625Z" fill="#5D5FEF"/>
<path d="M8.32734 448.481C11.9987 444.81 16.0413 441.529 20.3903 438.693L28.4655 433.427C33.6044 430.075 40.5218 432.099 43.044 437.692L45.326 442.752C45.86 443.936 47.3634 444.305 48.3848 443.502L50.6948 441.687C53.8791 439.185 58.4308 439.457 61.2943 442.321L63.6889 444.716C66.2085 447.235 66.758 451.117 65.0367 454.237L59.6919 463.925C57.7756 467.398 57.6996 471.594 59.4888 475.134L70.6336 497.187C72.1925 500.271 71.5943 504.008 69.1505 506.452L61.2254 514.377C59.6633 515.939 57.1306 515.939 55.5685 514.377L1.82842 460.637C0.266327 459.075 0.266328 456.542 1.82842 454.98L8.32734 448.481Z" fill="#1A2027"/>
<path d="M6.07104 450.737L61.2254 505.892C62.0064 506.673 62.0064 507.939 61.2254 508.72L59.8112 510.134C59.0301 510.915 57.7638 510.915 56.9827 510.134L1.8284 454.98L6.07104 450.737Z" fill="white"/>
<path d="M60.6193 471.344L49.9117 469.122L61.2254 474.779L51.8309 475.284" stroke="#5D5FEF" stroke-width="2" stroke-linejoin="bevel"/>
<path fill-rule="evenodd" clip-rule="evenodd" d="M145.035 380.679C152.925 375.56 168 364.181 168 342.917V248.917L159.284 272.948L145 330.417L150.517 358.002C151.475 362.795 150.732 367.772 148.415 372.076L147.249 374.241C146.163 376.257 145.417 378.433 145.035 380.679Z" fill="#6346CB"/>
<path d="M76.4195 274.086L89.7293 246.195C90.3933 244.803 91.7977 243.917 93.3393 243.917H180L134.89 394.826C133.428 399.715 130.703 404.132 126.989 407.63L99.0393 433.957C97.0465 435.834 94.6053 437.169 91.9493 437.833L83.062 440.054C78.5752 441.176 73.8227 440.301 70.0292 437.656L44.5356 419.878C40.4405 417.022 38 412.345 38 407.352C38 404.065 39.0607 400.865 41.0245 398.229L54.6872 379.889C58.3526 374.969 63.7857 371.665 69.8406 370.673C76.41 369.598 80.7994 363.316 79.5507 356.778L71.3158 313.654C68.7576 300.258 70.5458 286.394 76.4195 274.086Z" fill="#5D5FEF"/>
<rect x="155" y="448.917" width="39" height="19" rx="4" fill="#5D5FEF"/>
<path d="M153 502.727C153 497.535 153.539 492.357 154.609 487.276L156.595 477.842C157.859 471.838 164.181 468.378 169.919 470.549L175.111 472.513C176.326 472.973 177.65 472.171 177.804 470.881L178.154 467.964C178.637 463.944 182.048 460.917 186.097 460.917H189.484C193.047 460.917 196.181 463.274 197.17 466.697L200.24 477.327C201.341 481.138 204.255 484.158 208.023 485.397L231.497 493.109C234.781 494.188 237 497.254 237 500.71V511.917C237 514.127 235.209 515.917 233 515.917H157C154.791 515.917 153 514.127 153 511.917V502.727Z" fill="#1A2027"/>
<path d="M153 505.917H231C232.105 505.917 233 506.813 233 507.917V509.917C233 511.022 232.105 511.917 231 511.917H153V505.917Z" fill="white"/>
<path d="M206.143 481.917L197 487.917L209 483.917L202.714 490.917" stroke="#5D5FEF" stroke-width="2" stroke-linejoin="bevel"/>
<path d="M101.5 250.917L89.8034 283.668C87.6257 289.766 86.7597 296.254 87.2623 302.71L91.4584 356.614C92.3466 368.024 84.8146 378.388 73.6886 381.067V381.067C68.7027 382.267 64.2522 385.079 61.0279 389.067L51.4848 400.87C48.6639 404.359 47.6642 408.979 48.7902 413.322V413.322C49.8707 417.49 48.9956 421.923 46.4122 425.368L44.5 427.917" stroke="white" stroke-width="4"/>
</g>
<path d="M212.974 155.454C215.48 151.258 216.198 146.16 214.547 141.553L212.963 137.134C212.617 136.169 212.521 135.13 212.686 134.117L214.553 122.62C214.754 121.383 215.333 120.241 216.209 119.351L220.826 114.664C221.929 113.544 223.826 114.082 224.187 115.617L224.484 116.88C224.85 118.435 224.587 120.073 223.752 121.433L222.586 123.333C222.408 123.623 222.273 123.937 222.186 124.267L222.013 124.914C221.611 126.426 222.503 127.979 224.005 128.385C225.243 128.718 226.548 128.169 227.182 127.049L231.226 119.89C231.714 119.027 231.982 118.055 232.006 117.062L232.292 105.458C232.318 104.405 233.14 103.548 234.185 103.485C234.978 103.438 235.725 103.864 236.092 104.573L238.749 109.703C239.076 110.335 239.515 110.901 240.045 111.374C241.14 112.351 241.828 113.709 241.97 115.175L242.031 115.81C242.117 116.691 242.475 117.523 243.056 118.188L243.517 118.716C244.156 119.447 244.389 120.451 244.139 121.391L244.087 121.584C243.884 122.347 244.05 123.163 244.535 123.784C245.02 124.406 245.186 125.221 244.983 125.985L244.023 129.592C243.848 130.25 243.523 130.859 243.073 131.369C242.552 131.961 242.198 132.688 242.051 133.466C240.529 141.527 238.172 149.448 235.032 157.02C201.512 247.359 178.022 213.977 212.974 155.454Z" fill="#DD9E86"/>
<path d="M222.209 118.572C221.472 119.677 220.277 120.174 219.54 119.682C218.804 119.191 218.804 117.897 219.541 116.792C220.279 115.686 221.474 115.189 222.21 115.681C222.947 116.172 222.947 117.467 222.209 118.572Z" fill="#FAC798"/>
<path d="M160.5 147.917L143.722 159.487C135.837 164.924 134.463 176.023 140.785 183.219L191.2 240.608C194.797 244.702 201.344 244.08 204.106 239.383L239.199 179.703C240.56 177.388 240.218 174.451 238.361 172.512L212.644 145.656C211.639 144.607 209.886 144.946 209.344 146.294L194.233 183.886C192.825 187.389 187.794 187.171 186.695 183.559L183 171.417L160.5 147.917Z" fill="#153354"/>
<path fill-rule="evenodd" clip-rule="evenodd" d="M192.099 186.083L209.792 229.714L204.106 239.383C201.344 244.08 194.796 244.702 191.2 240.608L140.784 183.219C134.463 176.023 135.837 164.924 143.722 159.487L160.5 147.917L183 171.417L186.695 183.559C187.453 186.049 190.079 186.926 192.099 186.083Z" fill="#7879F1"/>
<path d="M103 143.917L145.678 143.635C164.721 143.508 181.213 156.825 185.1 175.468L198 237.326C199.033 242.281 195.263 246.937 190.202 246.959L86.4375 247.397C83.8943 247.407 81.987 245.073 82.5042 242.583L103 143.917Z" fill="#153354"/>
<path d="M111.088 283.917L89.8468 265.917L70.9462 283.181L70.9364 283.332C70.5967 288.599 73.7046 293.48 78.6206 295.401C79.0647 295.574 79.4255 295.911 79.6287 296.343L81.5025 300.318C81.7424 300.827 81.7568 301.414 81.542 301.934L79.25 307.486C78.9464 308.222 79.1077 309.067 79.6609 309.639L79.9419 309.93C80.812 310.83 82.2857 310.718 83.0104 309.698L88.6608 301.74C89.0357 301.212 89.1317 300.535 88.9186 299.924L87.9817 297.236C87.7778 296.651 88.6098 296.29 88.8969 296.839L91.1252 301.099C91.2455 301.329 91.3199 301.58 91.3442 301.839L92.3124 312.126C92.4317 313.394 93.6895 314.229 94.9041 313.847L95.5663 313.638C96.3875 313.38 96.9511 312.625 96.9656 311.764L97.1785 299.107C97.1838 298.794 97.1153 298.483 96.9785 298.201L94.2145 292.499C93.9724 292 94.6027 291.536 95.007 291.917L101.133 297.677C101.31 297.844 101.455 298.041 101.561 298.26L106.226 307.86C106.849 309.143 108.575 309.38 109.521 308.313L109.905 307.88C110.385 307.34 110.535 306.582 110.298 305.899L106.47 294.853C106.389 294.617 106.264 294.399 106.102 294.209L99.2296 286.161C98.8679 285.737 99.3655 285.128 99.8526 285.399L107.312 289.54C107.521 289.656 107.707 289.808 107.862 289.99L114.449 297.704C115.413 298.833 117.227 298.556 117.81 297.191L118.096 296.521C118.353 295.918 118.299 295.227 117.95 294.672L111.489 284.379C111.38 284.206 111.244 284.05 111.088 283.917Z" fill="#DD9E86"/>
<path d="M117.324 294.509C117.876 295.466 117.742 296.577 117.025 296.991C116.308 297.406 115.278 296.966 114.726 296.009C114.174 295.053 114.308 293.941 115.025 293.527C115.742 293.113 116.772 293.553 117.324 294.509Z" fill="#FAC798"/>
<path d="M109.432 304.839C109.984 305.796 109.85 306.907 109.133 307.321C108.415 307.736 107.386 307.296 106.834 306.339C106.281 305.383 106.415 304.272 107.133 303.857C107.85 303.443 108.879 303.883 109.432 304.839Z" fill="#FAC798"/>
<path d="M96.4349 310.951C96.504 312.081 95.9213 312.956 95.1334 312.904C94.3456 312.852 93.6509 311.894 93.5818 310.764C93.5127 309.633 94.0954 308.759 94.8833 308.811C95.6712 308.863 96.3659 309.821 96.4349 310.951Z" fill="#FAC798"/>
<path d="M82.957 308.416C82.1844 309.265 81.1437 309.489 80.6323 308.916C80.121 308.344 80.3327 307.192 81.1053 306.344C81.8778 305.495 82.9186 305.271 83.4299 305.844C83.9412 306.416 83.7295 307.568 82.957 308.416Z" fill="#FAC798"/>
<path fill-rule="evenodd" clip-rule="evenodd" d="M108.591 247.297L85.0019 247.396C83.7939 247.402 82.7294 246.878 82 246.059L87.5644 216.417L96.7799 167.326C103.228 172.261 108.441 182.166 111.272 194.862C114.103 207.558 114.321 222.006 111.876 235.025C111.049 239.431 109.94 243.552 108.591 247.297Z" fill="#7879F1"/>
<path d="M123 143.917H86.1343C81.0227 143.917 76.2188 146.36 73.2069 150.49L29.0289 211.067C18.773 225.13 18.2538 244.062 27.7235 258.666L46.2344 287.213C50.3013 293.485 58.5783 295.455 65.0352 291.689L94.842 274.301C98.674 272.066 100.306 267.372 98.6859 263.242L83.7237 225.088C82.3147 221.495 82.575 217.462 84.434 214.08L123 143.917Z" fill="#153354"/>
<path d="M162.69 83.9449C162.966 85.8741 164.907 88.9749 160.076 93.7117C155.244 98.4485 122.64 118.495 119.725 117.905C104.198 114.761 102.809 94.1671 107.813 91.4111C101.036 86.9207 107.813 77.0417 114.37 80.5593C114.37 65.5142 138.36 68.4424 152.51 65.5142C166.659 62.5859 165.624 71.1984 166.832 74.8157C168.039 78.4329 162.345 81.5334 162.69 83.9449Z" fill="#7B371F"/>
<path fill-rule="evenodd" clip-rule="evenodd" d="M152.532 121.499C154.748 117.589 156 112.925 156 107.917C156 105.985 155.426 104.581 154.809 103.07C154.232 101.659 154.025 100.137 153.936 98.615C153.347 88.5533 148.651 86.1211 139 86.1211H129.398C126.141 86.1211 123.5 88.7618 123.5 92.0193V95.1674C123.5 96.6862 122.269 97.9174 120.75 97.9174C119.231 97.9174 118 99.1487 118 100.667V104.211C118 106.258 116.341 107.917 114.294 107.917C112.964 107.917 111.736 107.205 111.076 106.05L110.473 104.995C108.438 101.434 103 102.878 103 106.98V109.917C103 112.127 104.791 113.917 107 113.917C109.155 113.917 110.984 115.424 111.762 117.434C111.839 117.632 111.918 117.829 112 118.025V140.917C112 149.754 119.163 156.917 128 156.917H130.568C135.83 156.917 139.659 151.924 138.294 146.842L135.606 136.837C136.064 136.89 136.529 136.917 137 136.917C141.002 136.917 144.547 134.958 146.727 131.946C148.219 129.886 149.396 127.557 150.565 125.243C151.206 123.976 151.845 122.712 152.532 121.499Z" fill="#DD9E86"/>
<path d="M254.171 100.318L254.171 100.318L228.793 130.046C228.314 130.586 227.428 131.029 226.325 131.256C225.233 131.481 223.996 131.48 222.882 131.198C221.756 130.914 221.032 130.423 220.707 129.934C220.549 129.696 220.488 129.465 220.502 129.246C220.516 129.028 220.609 128.78 220.831 128.516C220.831 128.515 220.831 128.515 220.832 128.514L246.21 98.7856C246.21 98.7856 246.21 98.7855 246.21 98.7855C246.667 98.2508 247.549 97.8074 248.66 97.5794C249.758 97.3541 251.005 97.3555 252.118 97.6367C253.242 97.9207 253.967 98.4162 254.292 98.9082C254.451 99.1477 254.512 99.38 254.498 99.5972C254.484 99.8144 254.392 100.059 254.171 100.318Z" fill="black" stroke="white"/>
<path d="M494.93 331.771L546.234 355.306C549.468 356.644 553.184 355.737 555.416 353.064L578.275 325.69H580.866C593.564 325.69 605.546 319.806 613.31 309.758L641 273.92L613 273.92H591C586.229 273.83 581.245 276.31 578.064 280.965C567.773 296.022 553.28 316.927 542.16 331.771C540.603 333.849 537.501 333.861 535.629 332.039C533.757 330.218 525.779 319.191 509.421 315.066C504.681 313.871 500.569 310.774 498.479 306.349L496.475 302.104C496.037 301.177 495.37 300.375 494.537 299.775L485.087 292.966C484.071 292.233 482.854 291.835 481.604 291.825L475.026 291.775C473.454 291.764 472.493 293.485 473.323 294.826L474.006 295.929C474.847 297.288 476.192 298.26 477.743 298.631L479.911 299.15C480.242 299.229 480.56 299.356 480.855 299.527L481.434 299.863C482.787 300.648 483.255 302.377 482.48 303.726C481.841 304.837 480.529 305.372 479.289 305.027L471.368 302.825C470.412 302.559 469.536 302.062 468.816 301.377L460.409 293.374C459.646 292.648 458.458 292.623 457.675 293.317C457.081 293.844 456.854 294.674 457.095 295.435L458.845 300.941C459.06 301.619 459.15 302.33 459.11 303.039C459.026 304.505 459.5 305.951 460.436 307.088L460.842 307.58C461.404 308.264 461.739 309.106 461.799 309.987L461.846 310.686C461.911 311.654 462.456 312.529 463.298 313.017L463.471 313.117C464.154 313.513 464.613 314.207 464.71 314.99C464.807 315.772 465.266 316.466 465.949 316.862L469.179 318.734C469.768 319.076 470.428 319.276 471.107 319.319C471.894 319.369 472.659 319.633 473.312 320.079C480.088 324.703 487.356 328.637 494.93 331.771Z" fill="#D58E54"/>
<path d="M558.228 284.889C563.103 278.007 571.012 273.917 579.445 273.917H597.5L575.251 353.644C574.449 356.518 570.897 357.534 568.697 355.519L534.602 324.3C533.115 322.939 532.874 320.683 534.04 319.038L558.228 284.889Z" fill="#FE7FC0"/>
<path d="M476.811 295.517C478.114 295.777 479.31 295.284 479.484 294.415C479.657 293.547 478.741 292.632 477.439 292.372C476.136 292.112 474.939 292.605 474.766 293.474C474.593 294.342 475.508 295.257 476.811 295.517Z" fill="#FAC798"/>
<path fill-rule="evenodd" clip-rule="evenodd" d="M589.5 302.584V273.917L578.033 279.651C574.509 281.413 571.89 284.579 570.82 288.371L555.327 343.277L568.697 355.519C570.897 357.534 574.449 356.518 575.251 353.644L589.5 302.584Z" fill="#F778B9"/>
<path d="M653 372.917V273.917H637L605.525 310.298C603.101 313.099 598.5 311.385 598.5 307.681V273.917H589.741C582.767 273.917 576.856 279.05 575.879 285.955L563.646 372.357C563.305 374.765 565.174 376.917 567.606 376.917H649C651.209 376.917 653 375.127 653 372.917Z" fill="#FE7FC0"/>
<path d="M653 336.917C649.022 336.917 645.206 333.704 642.393 327.984C639.58 322.264 638 314.507 638 306.417C638 298.328 639.58 290.571 642.393 284.851C645.206 279.131 649.022 275.917 653 275.917L653 306.417L653 336.917Z" fill="#F778B9"/>
<path d="M691.781 352.585L666.441 283.322C664.374 277.674 659 273.917 652.986 273.917C642.383 273.917 635.425 285.039 640.003 294.603C648.107 311.534 659.336 335.411 666.62 352.621C667.415 354.499 666.638 356.64 664.971 357.815C643.053 373.256 629.413 420.242 627.5 427.417C625.65 434.356 619.092 451.136 618.121 453.611C618.038 453.822 617.996 454.033 617.987 454.259L617.539 466.371C617.514 467.027 617.813 467.652 618.337 468.046L618.921 468.483C620.108 469.373 621.817 468.706 622.087 467.247L623.934 457.273C623.978 457.038 624.063 456.813 624.186 456.608L628.575 449.292C628.862 448.814 629.597 449.092 629.496 449.64L627.569 460.046C627.523 460.292 627.524 460.543 627.571 460.788L629.779 472.268C629.915 472.978 630.425 473.559 631.111 473.788L631.659 473.971C633.012 474.421 634.388 473.353 634.287 471.931L633.526 461.284C633.509 461.042 633.536 460.798 633.606 460.565L636.031 452.514C636.191 451.982 636.968 452.068 637.008 452.622L637.466 458.942C637.488 459.255 637.584 459.558 637.745 459.826L644.258 470.681C644.701 471.42 645.567 471.792 646.407 471.605L647.085 471.454C648.328 471.178 649 469.826 648.469 468.668L644.164 459.275C644.056 459.039 643.994 458.784 643.984 458.525L643.784 453.722C643.758 453.103 644.658 452.999 644.774 453.607L645.307 456.404C645.428 457.04 645.85 457.578 646.438 457.848L655.311 461.914C656.449 462.436 657.781 461.795 658.084 460.581L658.182 460.189C658.375 459.417 658.092 458.604 657.461 458.118L652.7 454.456C652.254 454.113 651.973 453.598 651.927 453.037L651.562 448.657C651.522 448.182 651.666 447.71 651.964 447.338C655.261 443.216 655.512 437.435 652.584 433.044L652.5 432.917L691.348 359.058C692.4 357.058 692.557 354.707 691.781 352.585Z" fill="#D58E54"/>
<path d="M618 465.917C618 467.022 618.672 467.917 619.5 467.917C620.328 467.917 621 467.022 621 465.917C621 464.813 620.328 463.917 619.5 463.917C618.672 463.917 618 464.813 618 465.917Z" fill="#FAC798"/>
<path d="M630 470.917C630 472.022 630.672 472.917 631.5 472.917C632.328 472.917 633 472.022 633 470.917C633 469.813 632.328 468.917 631.5 468.917C630.672 468.917 630 469.813 630 470.917Z" fill="#FAC798"/>
<path d="M644.311 469.712C644.817 470.725 645.759 471.191 646.415 470.752C647.071 470.314 647.194 469.136 646.689 468.123C646.183 467.11 645.241 466.644 644.585 467.083C643.929 467.521 643.806 468.699 644.311 469.712Z" fill="#FAC798"/>
<path d="M654.716 460.778C655.81 461.126 656.823 460.8 656.98 460.049C657.136 459.297 656.377 458.406 655.284 458.057C654.19 457.709 653.177 458.035 653.02 458.786C652.864 459.538 653.623 460.429 654.716 460.778Z" fill="#FAC798"/>
<path d="M653 360.917V296.917H637L630.27 342.533C628.812 352.21 636.305 360.917 646.092 360.917H653Z" fill="#F778B9"/>
<path d="M687.513 293.456C684.563 281.958 674.2 273.917 662.329 273.917H636.5V345.917C636.5 348.127 638.291 349.917 640.5 349.917H696.844C699.457 349.917 701.368 347.454 700.719 344.923L687.513 293.456Z" fill="#FE7FC0"/>
<path d="M341 414.184C341 411.275 343.311 408.917 346.163 408.917H356.484V566.917H341V414.184Z" fill="#D59CB9"/>
<path d="M356.488 408.917H579.512V445.784H356.488V408.917Z" fill="#D59CB9"/>
<path d="M589.837 408.917H579.516V566.917H595V414.184C595 411.275 592.689 408.917 589.837 408.917Z" fill="#D59CB9"/>
<circle r="81" transform="matrix(-1 0 0 1 615 486)" fill="#273E46"/>
<path d="M518.766 520C528.414 520 534 525.875 534 534.953C534 539.318 532.474 542.819 530.607 545.337L527.87 567H518.676V548.944C515.187 550.582 511.917 555.354 509.02 559.581C506.316 563.528 503.937 567 502.009 567H459.809C458.923 567 458.123 566.436 458.035 565.563C457.298 558.271 468.361 549.907 483.729 549.907C487.863 549.907 493.953 542.883 500.231 535.643C506.907 527.944 513.794 520 518.766 520Z" fill="#A5A6F6"/>
<path d="M530.781 475.26C528.857 492.616 525.391 511.631 523.09 527.502C522.343 532.652 519.731 537.364 515.674 540.623L507.392 547.275C505.197 549.039 502.465 550 499.649 550H493.683C491.144 550 489.828 546.971 491.561 545.115C497.244 539.028 500.04 530.793 499.237 522.503L492 447.789L490.31 416.19C489.055 392.719 507.747 373 531.251 373H588.5L598 420.366C592.311 420.366 584.353 420.621 575.637 421.002C573.063 421.115 531.065 472.7 530.781 475.26Z" fill="#D58E54"/>
<path d="M490.349 511.223L479.515 414.874C478.536 406.164 480.625 397.385 485.422 390.05C492.379 379.412 504.233 373 516.944 373H607V410.865H531.206V511C531.206 512.105 530.311 513 529.206 513H492.336C491.318 513 490.463 512.235 490.349 511.223Z" fill="#7879F1"/>
<path d="M570.267 520C575.853 520 583.5 525.875 583.5 534.953C583.5 539.318 581.638 542.819 580.557 545.337L579.5 567H573.649L572 551.5C572 551.5 569.736 555.354 568.059 559.581C566.493 563.528 565.116 567 564 567H533.134C532.621 567 532.158 566.436 532.107 565.563C531.681 558.271 535.136 549.907 544.033 549.907C546.427 549.907 549.953 542.883 553.587 535.643C557.452 527.944 567.389 520 570.267 520Z" fill="#A5A6F6"/>
<path d="M554.998 513.032L526.111 441.024C525.923 440.554 522.323 430.586 518.523 420.046C513.516 406.159 520.599 390.826 534.417 385.629L568 373H630C630 373 638 373.5 638 403.5C638 433.5 564.938 413.206 564 424.5C563.924 425.41 564.56 426.165 565.384 426.559C583.069 435.035 573 513.271 573 523.5C572.5 552 561.998 549.5 554.998 549.5C541.498 549.5 562.206 531 554.998 513.032Z" fill="#D58E54"/>
<path fill-rule="evenodd" clip-rule="evenodd" d="M507.583 424.678L527 513.5H529.5C530.605 513.5 531.5 512.605 531.5 511.5V411H607V373H549.185C535.561 373 522.759 379.519 514.746 390.537C507.592 400.373 504.986 412.797 507.583 424.678Z" fill="#3B6899"/>
<path d="M533.218 511.766L518.952 424.132C517.063 412.528 519.89 400.651 526.805 391.143C535.095 379.744 548.339 373 562.433 373H649C651.209 373 653 374.791 653 377V396C653 410.359 641.359 422 627 422H577.323C574.992 422 573.154 423.986 573.335 426.31L579.838 509.913C579.926 511.05 579.048 512.031 577.908 512.067L535.256 513.443C534.252 513.476 533.379 512.758 533.218 511.766Z" fill="#7879F1"/>
<path fill-rule="evenodd" clip-rule="evenodd" d="M622.5 181C634.387 181 644.87 187.012 651.074 196.161C654.053 200.553 658.335 204.339 661.094 208.873C662.304 210.859 663 213.192 663 215.687C663 219.534 661.345 222.995 658.708 225.395C657.713 226.302 657 227.525 657 228.871C657 230.343 657.847 231.656 659.002 232.568C662.046 234.972 664 238.695 664 242.875C664 247.417 661.693 251.42 658.187 253.776C656.84 254.681 656 256.253 656 257.875C656 265.124 650.124 271 642.875 271H641.125C636.474 271 631.601 270.111 626.989 270.711C625.52 270.902 624.021 271 622.5 271C620.709 271 618.95 270.864 617.233 270.6C617.11 270.582 617 270.676 617 270.799C617 270.91 616.91 271 616.799 271H581.184C573.272 271 564.985 265.115 569.162 258.397C569.31 258.159 569.465 257.923 569.628 257.688C572.509 253.308 573.04 248.87 571.221 244.375C569.128 239.582 569.659 235.144 572.814 231.063C572.885 230.954 572.955 230.845 573.023 230.737C575.471 226.874 573.936 222.169 572.758 217.75C572.497 216.773 572.301 215.77 572.173 214.745C572.038 213.654 571.84 212.561 571.838 211.461C571.838 211.383 571.839 211.304 571.842 211.226C571.881 210.04 572.175 208.873 572.397 207.708C574.376 197.303 583.519 189.438 594.5 189.438H597.5C598.947 189.438 600.37 188.992 601.518 188.111C607.332 183.651 614.606 181 622.5 181Z" fill="#7B371F"/>
<path fill-rule="evenodd" clip-rule="evenodd" d="M628 233.936C628.562 233.998 629.175 233.694 629.527 233.078C631.562 229.516 637 230.96 637 235.062V238C637 240.209 635.209 242 633 242C630.845 242 629.016 243.506 628.238 245.516C628.161 245.715 628.082 245.912 628 246.108V269C628 277.837 620.837 285 612 285H609.432C604.17 285 600.341 280.007 601.706 274.925L604.394 264.92C603.936 264.973 603.471 265 603 265C598.998 265 595.453 263.041 593.273 260.029C591.781 257.968 590.604 255.64 589.435 253.326C588.794 252.058 588.155 250.795 587.468 249.582C585.252 245.671 584 241.008 584 236C584 234.068 584.574 232.664 585.191 231.153C585.768 229.742 585.955 228.217 586.13 226.703C586.755 221.293 589.593 217.281 593.523 214.667C598.197 222.296 604.932 228.484 613.491 231.223C618.332 232.772 623.567 234 628 234V233.936Z" fill="#D58E54"/>
<path d="M359.896 344.917H421.989C424.034 344.917 425.79 346.353 426.224 348.371L437.92 403.593C438.498 406.298 436.432 408.857 433.684 408.857H370.558C368.492 408.857 366.715 407.38 366.323 405.341L355.661 350.119C355.123 347.414 357.169 344.917 359.896 344.917Z" fill="#9A8787"/>
<path d="M356.322 344.917H418.393C420.439 344.917 422.195 346.353 422.629 348.371L434.324 403.593C434.903 406.298 432.857 408.857 430.089 408.857H366.984C364.918 408.857 363.141 407.38 362.748 405.341L352.086 350.119C351.549 347.414 353.594 344.917 356.322 344.917Z" fill="#7E7E7E"/>
<path d="M436.226 404.134H478.647C479.948 404.134 480.981 405.195 480.981 406.485C480.981 407.796 479.928 408.837 478.647 408.837H435.399L436.226 404.134Z" fill="#9A8787"/>
<path d="M394.755 375.441C394.755 379.207 391.739 382.245 387.999 382.245C384.259 382.245 381.242 379.186 381.242 375.441C381.242 371.675 384.279 368.637 387.999 368.637C391.739 368.637 394.755 371.675 394.755 375.441Z" fill="white"/>
<defs>
<radialGradient id="paint0_radial_650_195" cx="0" cy="0" r="1" gradientUnits="userSpaceOnUse" gradientTransform="translate(375 360.138) rotate(23.9388) scale(286.324 266.919)">
<stop stop-color="#B95D7C"/>
<stop offset="1" stop-color="#350029"/>
</radialGradient>
<clipPath id="clip0_650_195">
<rect width="250" height="272" fill="white" transform="translate(0 243.917)"/>
</clipPath>
</defs>
</svg>
