<?xml version="1.0" standalone="no"?>
<!DOCTYPE svg PUBLIC "-//W3C//DTD SVG 20010904//EN"
 "http://www.w3.org/TR/2001/REC-SVG-20010904/DTD/svg10.dtd">
<svg version="1.0" xmlns="http://www.w3.org/2000/svg"
 width="512.000000pt" height="512.000000pt" viewBox="0 0 512.000000 512.000000"
 preserveAspectRatio="xMidYMid meet">
<metadata>
Created by potrace 1.14, written by Peter Selinger 2001-2017
</metadata>
<g transform="translate(0.000000,512.000000) scale(0.100000,-0.100000)"
fill="#000000" stroke="none">
<path d="M2493 5107 c-4 -6 -1 -7 7 -2 9 5 11 4 6 -4 -6 -8 -12 -9 -20 -2 -9
8 -19 5 -33 -9 -12 -10 -24 -16 -27 -13 -3 4 -6 1 -6 -6 0 -7 -4 -9 -10 -6 -5
3 -10 1 -10 -6 0 -7 -3 -9 -6 -6 -4 3 -15 -5 -26 -18 -11 -14 -23 -23 -27 -20
-5 2 -14 -7 -21 -21 -8 -14 -20 -22 -27 -19 -8 2 -11 1 -8 -5 3 -5 -4 -14 -15
-20 -11 -6 -18 -15 -15 -21 4 -5 3 -8 -2 -7 -5 2 -24 -13 -43 -32 -19 -19 -38
-34 -42 -32 -4 1 -8 -5 -8 -15 0 -9 -3 -14 -6 -10 -3 3 -19 -7 -34 -23 -15
-16 -31 -26 -34 -23 -3 4 -6 1 -6 -6 0 -7 -4 -9 -10 -6 -5 3 -10 2 -10 -3 0
-13 -62 -39 -91 -38 -15 1 -25 -3 -23 -9 3 -6 -9 -11 -26 -11 -20 -1 -27 2
-23 10 4 6 -1 5 -10 -3 -14 -11 -17 -11 -17 0 0 11 -2 11 -10 -1 -9 -13 -10
-13 -10 0 0 13 -1 13 -10 0 -8 -13 -10 -12 -10 3 0 9 -5 17 -11 17 -5 0 -7 -5
-3 -11 4 -8 1 -8 -12 -1 -11 5 -30 8 -44 7 -13 -1 -30 4 -37 11 -7 6 -26 11
-43 10 -16 -1 -30 1 -30 6 0 4 -3 7 -7 7 -21 -3 -33 2 -27 12 4 8 0 8 -15 0
-11 -7 -21 -8 -21 -3 0 5 -11 8 -25 7 -14 -2 -27 1 -30 5 -3 5 -14 7 -25 5
-11 -2 -20 1 -20 7 0 7 -4 7 -13 -1 -10 -8 -17 -7 -25 1 -9 9 -12 9 -12 -1 0
-10 -3 -11 -14 -2 -11 9 -15 9 -19 -1 -4 -11 -6 -11 -6 0 -1 10 -6 10 -21 2
-13 -7 -20 -7 -20 -1 0 6 -16 2 -35 -9 -19 -11 -35 -18 -35 -15 0 3 -20 -14
-44 -38 -25 -24 -41 -48 -38 -56 3 -9 1 -12 -6 -7 -8 5 -12 0 -12 -13 0 -11
-6 -26 -13 -33 -7 -7 -13 -22 -13 -33 0 -11 -5 -19 -11 -18 -7 1 -9 -11 -7
-33 2 -20 -1 -32 -6 -29 -10 6 -11 3 -14 -33 0 -11 -8 -27 -16 -37 -13 -17
-13 -18 0 -10 12 7 13 6 4 -6 -5 -8 -10 -21 -9 -29 0 -8 -6 -21 -15 -28 -13
-12 -13 -12 0 -6 13 7 13 5 1 -9 -7 -9 -11 -22 -8 -29 4 -13 -17 -41 -25 -32
-3 2 -4 -6 -3 -18 2 -25 -26 -79 -37 -72 -4 3 -5 -5 -3 -16 2 -11 0 -18 -6
-15 -5 4 -9 -1 -9 -10 0 -11 -5 -15 -15 -11 -8 3 -14 2 -14 -2 3 -19 -2 -33
-10 -27 -5 3 -13 0 -16 -6 -4 -5 -14 -8 -22 -4 -14 5 -14 3 -2 -12 8 -9 9 -14
3 -10 -6 3 -27 -2 -46 -13 -20 -10 -39 -16 -42 -13 -3 4 -6 2 -6 -3 0 -5 -12
-11 -27 -12 -15 -1 -30 -8 -35 -15 -4 -6 -8 -8 -8 -3 0 5 -6 4 -13 -1 -6 -6
-20 -9 -29 -8 -10 2 -18 -1 -18 -6 0 -5 -16 -9 -35 -9 -19 0 -35 -4 -35 -8 0
-9 -96 -38 -117 -36 -7 1 -10 -2 -7 -7 3 -5 -9 -12 -26 -16 -18 -3 -34 -12
-37 -19 -3 -8 -11 -14 -17 -14 -15 0 -45 -34 -65 -73 -9 -16 -20 -26 -28 -22
-9 3 -11 0 -6 -7 10 -18 11 -48 1 -54 -4 -3 -5 -13 0 -22 9 -21 9 -43 -1 -59
-5 -8 -3 -13 4 -13 8 0 8 -4 -1 -15 -7 -8 -8 -15 -3 -15 5 0 10 -6 10 -12 0
-7 4 -26 8 -43 4 -16 8 -42 9 -57 1 -14 9 -34 17 -44 12 -16 12 -17 -1 -9 -12
7 -13 6 -4 -6 6 -8 10 -22 9 -31 -2 -9 2 -19 9 -21 7 -3 11 -19 10 -38 -1 -19
2 -40 8 -46 7 -9 7 -13 -2 -13 -9 0 -7 -7 6 -22 12 -13 13 -18 4 -13 -13 7
-13 6 -2 -7 10 -13 10 -17 0 -21 -10 -4 -10 -6 1 -6 11 -1 11 -4 0 -18 -12
-15 -12 -16 1 -8 13 8 13 7 1 -8 -10 -13 -10 -17 -1 -17 9 0 9 -4 -1 -17 -12
-14 -12 -16 1 -9 9 4 8 2 -2 -7 -11 -8 -16 -23 -13 -36 3 -17 0 -21 -11 -17
-9 3 -12 2 -9 -5 4 -5 1 -16 -5 -24 -6 -8 -9 -19 -5 -25 4 -6 3 -9 -2 -8 -4 2
-9 0 -11 -4 -1 -4 -18 -24 -38 -43 -19 -19 -32 -40 -29 -45 4 -6 3 -10 -2 -9
-20 3 -34 -2 -28 -10 3 -6 -4 -15 -15 -21 -11 -6 -18 -15 -15 -21 4 -5 3 -9
-2 -8 -23 4 -32 -2 -26 -18 3 -10 3 -15 -2 -11 -8 8 -45 -28 -45 -44 0 -5 -4
-6 -10 -3 -5 3 -10 2 -10 -2 0 -10 -25 -44 -56 -77 -11 -12 -20 -30 -18 -39 1
-9 -4 -17 -12 -17 -8 0 -13 -3 -13 -7 3 -21 -2 -44 -9 -39 -5 3 -9 -1 -9 -9 0
-8 5 -11 11 -8 6 4 5 0 -2 -9 -14 -18 -13 -88 1 -88 5 0 7 -11 5 -25 -3 -15
-1 -22 5 -18 6 4 8 0 4 -10 -4 -10 3 -23 18 -35 13 -11 22 -22 18 -25 -3 -4 2
-9 11 -13 9 -3 13 -10 10 -15 -3 -5 2 -9 11 -9 9 0 13 -4 10 -10 -3 -5 6 -22
22 -37 15 -16 27 -31 25 -35 -2 -8 14 -12 31 -9 5 1 6 -3 2 -9 -3 -5 -2 -10 4
-10 5 0 13 -10 16 -21 6 -17 9 -19 16 -8 7 12 9 12 9 -1 0 -8 12 -25 27 -38
16 -13 21 -20 13 -16 -8 4 -4 -4 10 -18 14 -13 28 -23 33 -20 4 2 7 0 6 -5 -3
-19 2 -34 10 -29 5 3 12 -1 15 -10 4 -10 2 -13 -7 -8 -8 5 -8 2 2 -9 7 -9 18
-14 24 -10 6 4 7 1 2 -7 -4 -7 -2 -16 6 -21 8 -4 14 -22 15 -39 0 -17 7 -36
15 -41 12 -7 12 -9 -1 -9 -13 0 -13 -2 -1 -9 11 -7 12 -13 3 -23 -9 -11 -9
-17 0 -26 9 -9 9 -12 -2 -12 -13 0 -13 -2 0 -10 10 -6 11 -10 3 -10 -7 0 -13
-7 -13 -16 0 -9 5 -13 12 -9 7 4 5 0 -4 -8 -11 -8 -16 -23 -13 -37 3 -13 0
-29 -6 -37 -9 -10 -8 -13 2 -13 12 0 12 -2 0 -9 -8 -5 -14 -23 -15 -40 0 -17
-5 -31 -10 -31 -4 0 -6 -7 -2 -15 3 -8 1 -15 -4 -15 -5 0 -7 -7 -4 -15 4 -8 2
-15 -3 -15 -5 0 -8 -14 -5 -30 4 -26 2 -29 -14 -23 -16 5 -17 4 -8 -8 6 -8 10
-23 7 -34 -9 -46 -8 -75 1 -75 6 0 5 -4 -3 -9 -9 -6 -10 -11 -2 -15 7 -5 8
-13 2 -24 -6 -11 -4 -26 5 -44 8 -15 13 -32 12 -37 -2 -5 16 -27 40 -50 23
-22 42 -37 42 -33 0 4 4 2 8 -4 8 -11 79 -47 101 -50 8 -2 17 -6 20 -11 3 -5
13 -8 21 -8 8 1 24 -3 35 -8 11 -6 33 -12 49 -14 17 -2 33 -9 38 -16 4 -6 8
-8 8 -3 0 5 7 3 15 -4 10 -8 15 -9 15 -2 0 6 7 9 15 6 8 -4 13 -9 11 -13 -3
-4 10 -8 27 -9 18 -2 33 -7 35 -12 2 -6 13 -10 24 -10 10 0 26 -7 35 -16 9 -8
22 -13 30 -10 8 3 11 1 8 -4 -6 -9 8 -14 27 -11 5 0 7 -5 5 -12 -1 -6 3 -11
10 -10 6 1 17 -11 24 -27 7 -15 17 -26 21 -24 4 3 8 -4 8 -16 0 -12 4 -18 10
-15 5 3 10 -3 10 -14 0 -12 5 -21 10 -21 6 0 10 -11 10 -24 0 -13 6 -29 13
-35 8 -6 13 -21 12 -33 -1 -13 4 -28 11 -35 7 -7 11 -26 9 -43 -3 -19 0 -29 8
-27 7 1 11 -8 9 -26 -2 -17 2 -29 12 -33 8 -3 13 -14 11 -26 -2 -11 3 -31 12
-44 8 -13 13 -24 10 -24 -3 0 0 -12 8 -27 8 -15 11 -31 8 -36 -4 -6 -1 -7 7
-2 10 6 12 4 7 -8 -4 -12 -2 -14 10 -10 10 4 14 2 10 -4 -4 -6 0 -16 8 -23 8
-7 15 -18 15 -26 0 -7 5 -16 12 -20 7 -5 9 -2 4 7 -4 8 2 3 14 -10 19 -22 30
-27 78 -33 6 -1 12 -6 12 -11 0 -5 6 -4 14 2 10 8 16 9 21 1 3 -5 11 -10 16
-10 6 0 7 4 4 10 -4 6 2 7 17 2 13 -4 37 -6 53 -4 17 1 38 3 48 4 9 1 17 9 17
18 0 12 2 12 9 1 6 -9 11 -10 15 -3 4 6 14 8 22 5 9 -3 20 0 25 8 7 11 9 11 9
1 0 -11 3 -11 14 0 7 8 28 13 45 12 17 -1 31 2 31 8 0 5 4 7 9 3 5 -3 12 -1
15 4 3 5 22 8 41 6 19 -1 35 2 35 6 0 5 7 6 15 3 9 -4 15 0 15 7 0 11 3 11 10
-1 5 -8 10 -10 10 -5 0 6 11 11 25 11 14 1 22 -2 19 -8 -4 -6 1 -6 13 1 13 6
23 7 29 1 6 -6 22 -11 37 -12 15 -1 27 -6 27 -10 0 -4 9 -8 20 -8 11 0 20 -4
20 -10 0 -5 7 -10 15 -10 7 0 19 -8 24 -18 6 -9 11 -13 11 -9 0 4 10 -2 23
-15 13 -13 36 -32 50 -43 15 -11 30 -28 33 -37 3 -10 10 -17 16 -15 6 1 17 -8
23 -20 7 -13 15 -20 18 -17 4 4 9 -1 13 -10 3 -9 13 -16 22 -16 8 0 12 -3 9
-7 -4 -3 3 -11 16 -18 12 -6 21 -17 20 -23 -2 -7 1 -12 7 -12 9 0 72 -39 98
-60 7 -6 17 -8 22 -5 6 3 10 1 10 -6 0 -7 3 -9 7 -6 3 4 13 1 21 -6 13 -10 14
-9 7 3 -7 13 -6 13 7 2 22 -18 98 -12 98 8 0 13 1 13 10 0 8 -12 10 -12 10 -1
0 8 3 12 6 8 9 -8 64 21 64 34 0 6 4 8 9 4 6 -3 14 3 20 12 6 10 11 14 11 10
0 -4 12 4 27 18 15 14 31 25 35 25 5 0 8 6 8 14 0 8 5 18 12 22 7 5 8 3 3 -7
-5 -8 22 16 59 54 37 37 72 67 77 67 6 0 7 5 3 12 -5 8 -2 9 9 5 9 -3 19 -1
23 5 5 7 2 8 -7 3 -12 -8 -12 -6 0 9 8 9 20 15 27 12 8 -3 13 -2 11 2 -1 4 2
8 7 9 5 0 13 8 18 17 5 9 13 14 18 11 4 -3 10 1 13 9 3 7 16 12 30 11 16 -2
28 3 31 12 5 12 9 13 20 4 10 -9 16 -9 21 -1 5 8 11 8 19 1 9 -7 16 -7 24 1 9
9 12 9 12 -2 0 -13 2 -13 10 0 7 11 10 11 10 2 0 -7 4 -11 9 -7 5 3 12 1 15
-4 3 -5 22 -8 41 -6 19 2 37 0 40 -5 3 -5 12 -7 20 -3 8 3 15 0 15 -6 0 -6 7
-8 15 -5 8 4 21 2 28 -4 6 -5 19 -10 27 -10 22 -1 44 -7 56 -15 6 -3 14 -3 18
0 4 4 13 8 22 9 11 2 12 -1 5 -10 -8 -9 -3 -12 22 -11 18 1 38 -3 45 -8 8 -6
12 -5 12 3 0 9 3 10 13 1 10 -8 17 -7 25 1 7 7 12 8 12 2 0 -6 7 -11 15 -11 8
0 15 5 15 10 0 5 6 4 13 -2 8 -6 17 -7 21 -3 7 7 11 8 37 11 5 0 8 5 5 10 -4
5 4 7 16 3 14 -3 19 -2 14 6 -4 7 -2 12 4 12 6 0 23 11 38 25 15 14 23 25 19
25 -4 0 2 9 13 20 12 12 18 25 15 30 -4 6 -1 10 5 10 6 0 9 4 6 9 -3 5 1 11 9
15 8 3 12 12 9 21 -3 8 -1 15 6 15 6 0 8 5 5 10 -4 6 -1 17 5 25 7 8 9 15 5
15 -4 0 -2 7 5 15 7 8 9 15 5 15 -4 0 -3 6 2 13 6 6 9 22 8 34 -1 12 4 24 11
27 7 3 13 13 13 23 1 39 5 53 14 53 5 0 7 9 4 21 -3 12 1 27 12 38 9 9 16 22
14 28 -2 6 1 14 6 18 6 3 11 15 11 26 0 11 5 17 10 14 6 -3 10 2 10 12 0 10 9
25 19 33 11 7 18 17 15 22 -3 4 1 8 9 8 8 0 18 7 21 16 3 8 10 12 16 9 6 -3
13 1 16 10 4 9 13 14 20 11 7 -3 17 1 21 9 7 12 31 21 66 24 5 1 6 5 3 10 -3
4 5 7 19 6 14 -2 26 3 29 12 5 12 9 13 21 3 10 -9 15 -9 15 -1 0 13 21 10 33
-4 5 -6 7 -3 3 7 -3 10 -1 20 4 23 6 4 10 0 10 -7 0 -9 3 -10 8 -2 4 6 15 10
25 8 9 -1 17 2 17 7 0 5 11 9 24 9 14 0 28 5 32 11 4 8 9 7 15 -2 7 -11 9 -11
9 3 0 11 7 15 25 13 17 -1 25 3 25 13 0 8 3 12 6 9 4 -4 20 3 37 15 18 13 27
16 22 7 -4 -7 13 8 38 35 26 26 47 57 47 68 0 12 4 16 11 12 7 -4 10 -1 7 7
-3 8 -1 22 3 31 6 10 5 19 -1 23 -8 5 -7 12 1 22 10 11 10 16 0 23 -10 5 -10
9 -2 15 9 5 9 10 1 20 -8 10 -8 15 0 20 8 5 8 10 0 20 -6 7 -9 19 -8 26 2 8
-1 13 -7 12 -5 0 -11 23 -12 53 0 30 -6 61 -12 68 -6 7 -8 15 -5 19 11 10 -7
48 -19 40 -7 -4 -6 1 2 10 7 9 9 17 4 17 -5 0 -8 16 -8 35 1 19 -2 35 -6 35
-5 0 -5 7 -2 17 4 10 2 14 -4 10 -5 -3 -10 1 -10 9 0 9 6 13 16 9 11 -4 10 -1
-4 15 -12 13 -14 20 -5 20 9 0 10 3 1 13 -8 10 -7 17 2 27 9 10 9 11 0 6 -9
-5 -8 1 2 20 7 15 11 33 8 40 -3 8 2 16 10 20 9 3 13 12 10 20 -3 7 2 16 10
20 10 3 13 12 10 22 -5 12 -2 14 11 9 9 -4 15 -3 11 3 -3 5 8 23 24 39 17 17
27 31 23 31 -4 0 1 5 11 11 9 6 15 15 11 20 -3 5 -2 8 3 7 5 -2 24 13 43 32
19 19 38 34 43 32 5 -1 6 2 2 8 -3 5 -1 10 5 10 6 0 8 5 5 10 -3 5 -2 10 3 10
17 0 49 35 44 49 -3 8 0 11 6 7 6 -3 16 7 23 23 7 16 17 27 21 25 4 -3 8 2 8
10 0 8 7 22 16 30 8 9 12 16 8 16 -3 0 -2 6 4 13 6 6 10 14 11 17 0 3 3 12 6
21 10 26 1 104 -11 102 -6 -1 -9 7 -7 20 3 13 -4 32 -16 46 -24 28 -26 35 -8
26 6 -4 -1 5 -16 19 -15 14 -25 26 -21 26 4 0 -1 7 -12 15 -10 8 -15 15 -11
15 12 0 -20 30 -32 30 -6 0 -11 6 -11 14 0 8 -7 17 -16 20 -8 3 -12 10 -9 16
3 5 -1 10 -9 10 -8 0 -17 9 -21 20 -3 11 -9 19 -13 19 -19 -3 -33 2 -28 9 3 5
-5 18 -17 30 -45 42 -77 83 -72 92 4 6 -1 10 -10 10 -9 0 -13 5 -10 10 3 6 1
10 -5 10 -6 0 -8 4 -5 10 3 6 1 10 -5 10 -6 0 -8 5 -5 10 3 6 1 10 -5 10 -6 0
-9 4 -6 8 3 5 -1 21 -9 36 -8 14 -10 24 -5 21 6 -4 10 -1 10 4 0 6 -4 11 -10
11 -5 0 -10 5 -10 11 0 5 6 7 13 3 8 -5 8 -2 -2 9 -11 14 -11 17 0 17 9 0 10
3 4 8 -12 8 -13 32 -2 50 5 7 10 33 12 59 1 26 7 49 13 51 5 1 8 12 5 23 -3
10 1 27 8 36 12 15 12 16 -1 8 -13 -8 -13 -6 -2 8 8 9 10 22 6 28 -5 8 -3 9 6
4 10 -6 11 -2 6 19 -4 15 -3 25 2 23 4 -3 7 6 7 21 -1 15 3 33 8 40 5 6 6 12
3 12 -4 0 -2 9 4 20 6 11 7 20 2 20 -4 0 -8 9 -8 20 0 11 4 20 9 20 5 0 4 7
-3 15 -10 12 -10 15 0 15 10 0 10 3 0 15 -10 12 -10 15 0 15 10 0 10 3 0 15
-6 8 -9 19 -5 25 3 5 2 10 -4 10 -5 0 -13 10 -16 23 -8 24 -60 77 -76 77 -6 0
-7 6 -3 13 4 6 4 9 -1 5 -4 -4 -14 -3 -22 3 -7 6 -13 8 -13 3 0 -4 -7 1 -16
12 -8 10 -13 12 -9 4 4 -8 -1 -6 -9 4 -9 11 -16 16 -16 12 0 -5 -8 -2 -17 5
-11 10 -14 10 -9 2 4 -7 2 -13 -3 -13 -6 0 -11 6 -11 14 0 8 -8 13 -17 11 -10
-1 -27 3 -39 10 -11 7 -35 12 -52 11 -21 -1 -28 1 -22 8 5 7 -5 12 -33 14 -23
1 -44 8 -48 13 -3 6 -9 10 -13 10 -3 -1 -18 -1 -33 -1 -22 0 -25 2 -13 10 12
8 9 10 -12 10 -15 0 -30 5 -33 10 -3 6 -15 10 -26 10 -11 0 -17 5 -14 10 3 6
-2 10 -11 10 -18 0 -94 74 -94 91 0 6 -4 7 -10 4 -5 -3 -7 0 -4 8 3 8 -2 21
-10 30 -9 9 -16 22 -16 30 0 9 -6 18 -12 20 -9 4 -9 6 1 6 11 1 10 5 -5 16
-13 10 -15 14 -5 15 11 0 10 4 -3 19 -10 11 -15 25 -11 30 3 6 2 11 -4 11 -5
0 -8 9 -6 20 2 11 0 20 -6 20 -5 0 -9 15 -9 34 0 19 -5 36 -10 38 -6 2 -11 18
-13 36 -1 17 -5 32 -9 32 -5 0 -8 7 -8 15 0 8 -6 15 -12 15 -10 0 -9 3 1 9 11
7 10 11 -5 20 -11 6 -16 11 -11 11 13 0 -19 53 -55 91 -35 38 -102 74 -118 64
-6 -3 -10 -1 -10 6 0 8 -4 8 -15 -1 -8 -7 -15 -8 -15 -3 0 5 -7 10 -15 10 -8
0 -15 -3 -15 -6 0 -3 -11 -6 -25 -6 -14 0 -25 4 -25 8 0 5 -4 5 -10 2 -9 -5
-19 -8 -65 -18 -5 -2 -14 -5 -20 -8 -5 -3 -24 -5 -42 -4 -18 1 -30 -2 -27 -7
3 -4 -3 -9 -13 -9 -47 -4 -64 -7 -75 -16 -7 -5 -31 -9 -53 -9 -24 1 -45 -5
-51 -14 -10 -11 -15 -12 -27 -2 -11 9 -17 10 -22 2 -5 -8 -10 -8 -20 0 -10 8
-14 7 -18 -2 -4 -10 -8 -10 -16 2 -10 13 -11 13 -11 0 0 -10 -3 -11 -8 -4 -4
7 -18 14 -32 15 -14 2 -28 8 -31 12 -3 5 -15 10 -25 11 -10 2 -18 9 -16 15 1
6 -1 10 -5 10 -21 -3 -36 4 -71 39 -22 20 -49 45 -61 55 -13 10 -19 23 -15 30
5 8 2 7 -9 -2 -14 -11 -17 -11 -17 1 0 16 -36 49 -44 41 -3 -4 -6 -2 -6 4 0
15 -36 54 -44 46 -3 -3 -6 1 -6 10 0 11 -5 14 -17 10 -9 -4 -14 -2 -11 3 6 11
-28 45 -36 37 -3 -4 -6 -1 -6 6 0 7 -4 10 -9 6 -6 -3 -13 1 -18 9 -4 8 -12 15
-18 16 -5 1 -24 8 -41 15 -36 15 -132 17 -141 2z m229 -633 c38 1 68 -2 68 -6
0 -5 5 -8 11 -8 5 0 7 6 3 13 -4 6 2 4 13 -5 11 -10 24 -18 29 -18 5 0 2 5 -6
11 -12 9 -11 9 5 3 11 -4 36 -8 55 -9 19 -1 46 -7 58 -14 13 -7 26 -10 29 -7
3 3 22 -2 41 -10 20 -8 42 -12 49 -10 7 3 13 1 13 -5 0 -6 4 -8 9 -4 6 3 26
-4 46 -15 20 -11 34 -16 31 -11 -4 5 -1 13 5 17 7 4 9 3 5 -4 -9 -15 22 -31
47 -24 14 3 18 1 13 -6 -7 -12 5 -16 32 -13 6 1 12 -3 12 -9 0 -6 5 -8 10 -5
6 3 10 1 10 -4 0 -6 5 -11 11 -11 5 0 7 6 4 13 -4 6 0 5 7 -5 8 -9 23 -18 33
-20 11 -1 26 -9 33 -16 8 -7 18 -10 23 -7 5 4 9 -1 9 -9 0 -10 6 -13 15 -10 8
4 15 1 15 -5 0 -6 3 -10 8 -10 20 3 32 -2 26 -13 -4 -6 -3 -8 4 -4 6 3 17 0
25 -8 8 -8 17 -12 21 -9 3 4 6 1 6 -6 0 -7 5 -9 10 -6 6 3 10 1 10 -5 0 -6 5
-8 10 -5 6 3 10 -1 10 -10 0 -9 4 -14 9 -10 5 3 21 -6 35 -20 27 -27 42 -33
30 -12 -4 6 6 -3 23 -20 16 -18 37 -33 46 -33 10 0 16 -3 14 -8 -1 -4 3 -9 8
-11 6 -2 24 -18 41 -35 17 -17 43 -40 57 -50 14 -11 24 -23 22 -26 -2 -4 7
-13 20 -20 14 -7 27 -22 31 -33 5 -16 8 -17 15 -6 6 10 9 8 9 -8 0 -14 6 -23
15 -23 8 0 15 -4 15 -9 0 -5 7 -16 15 -24 8 -8 16 -21 17 -28 2 -8 13 -22 25
-32 12 -10 20 -24 16 -32 -3 -8 0 -15 6 -15 6 0 11 -5 11 -11 0 -5 -6 -7 -12
-4 -7 4 -4 -1 6 -9 11 -9 16 -16 12 -16 -5 0 -2 -8 5 -17 12 -15 12 -16 -1 -8
-13 7 -13 6 -2 -7 7 -9 13 -32 14 -52 1 -20 5 -36 10 -36 6 0 5 -39 -3 -47 -6
-9 -3 -29 6 -35 7 -5 7 -8 0 -8 -6 0 -12 -16 -13 -36 -2 -20 -9 -49 -17 -64
-8 -15 -11 -30 -8 -34 4 -3 1 -6 -6 -6 -7 0 -9 -4 -6 -10 3 -5 1 -10 -5 -10
-6 0 -8 -4 -5 -10 3 -5 1 -10 -6 -10 -7 0 -9 -3 -6 -7 4 -3 -1 -12 -11 -20
-10 -9 -11 -12 -2 -7 8 4 4 -4 -10 -18 -14 -14 -39 -41 -57 -61 -18 -21 -37
-37 -43 -37 -5 0 -10 -5 -10 -11 0 -6 -7 -17 -15 -25 -8 -9 -15 -12 -15 -8 0
4 -15 -8 -34 -27 -54 -55 -93 -87 -76 -64 9 13 5 11 -12 -5 -14 -14 -24 -28
-22 -31 2 -4 -3 -10 -12 -13 -10 -4 -13 -2 -8 7 4 6 -13 -8 -37 -33 -25 -25
-63 -58 -84 -75 -22 -16 -46 -38 -54 -47 -8 -9 -18 -15 -23 -12 -4 3 -8 -2 -8
-11 0 -9 -5 -13 -10 -10 -6 3 -13 -1 -16 -9 -3 -9 -13 -16 -21 -16 -8 0 -11
-4 -8 -10 3 -5 2 -10 -4 -10 -6 0 -22 -11 -36 -26 -14 -14 -30 -22 -38 -18 -6
4 -9 4 -5 -1 6 -7 -15 -36 -26 -36 -3 0 -24 -18 -46 -39 -23 -22 -46 -40 -51
-40 -6 0 -8 -4 -5 -9 3 -5 -7 -14 -23 -21 -16 -6 -38 -22 -47 -35 -10 -13 -21
-22 -26 -19 -8 5 -12 -11 -9 -30 1 -5 -5 -6 -13 -3 -9 4 -37 -15 -72 -48 -32
-30 -63 -51 -68 -48 -6 3 -8 3 -4 -2 8 -8 -15 -35 -30 -35 -4 0 -22 -16 -38
-35 -18 -22 -35 -33 -44 -30 -8 4 -11 3 -7 -1 9 -9 -33 -45 -45 -38 -4 3 -7 2
-6 -3 4 -13 -61 -75 -72 -68 -6 3 -10 -2 -10 -12 0 -15 -2 -16 -10 -3 -8 13
-10 12 -10 -3 0 -10 -7 -20 -15 -23 -8 -4 -12 -10 -9 -15 3 -5 -3 -6 -12 -2
-10 3 -15 2 -12 -3 3 -5 -3 -17 -14 -27 -10 -9 -18 -14 -18 -10 0 3 -9 -4 -20
-17 -11 -13 -20 -20 -20 -16 0 4 -7 1 -15 -8 -8 -8 -15 -20 -15 -27 0 -8 -5
-8 -17 2 -9 8 -14 9 -10 3 3 -6 -7 -24 -23 -39 -17 -16 -30 -25 -30 -21 0 4
-6 1 -14 -6 -8 -7 -12 -16 -10 -20 4 -7 -15 -23 -28 -23 -3 0 -24 -16 -45 -35
-21 -19 -44 -33 -50 -32 -8 2 -10 -3 -6 -14 4 -11 2 -15 -4 -11 -6 4 -18 -5
-28 -19 -9 -14 -22 -23 -28 -21 -7 2 -20 -9 -29 -25 -10 -15 -24 -28 -32 -28
-8 0 -17 -7 -20 -16 -3 -8 -10 -13 -15 -9 -5 3 -13 -4 -16 -16 -4 -11 -9 -18
-12 -15 -3 3 -12 -2 -20 -10 -18 -18 -1 -44 28 -44 11 0 19 -5 19 -11 0 -5 4
-8 9 -4 5 3 12 1 15 -4 4 -5 17 -8 31 -7 13 2 22 -1 19 -5 -3 -5 3 -9 13 -9
10 -1 41 -9 70 -19 29 -10 49 -13 46 -8 -4 6 -1 7 7 2 8 -5 30 -9 50 -9 21 -1
44 -6 51 -13 9 -7 20 -8 28 -3 8 4 23 5 33 1 11 -4 44 -4 74 -1 30 3 57 3 60
-2 7 -12 24 -10 24 3 0 5 -5 7 -12 3 -6 -4 -8 -3 -4 4 3 6 16 9 27 7 12 -3 31
0 41 6 16 8 19 8 13 -1 -6 -9 -2 -9 14 -1 16 9 21 9 21 -1 0 -9 3 -9 8 -2 14
21 46 33 64 23 15 -8 20 -5 28 13 5 13 9 17 9 9 1 -11 4 -11 16 -1 8 7 15 9
15 6 0 -4 10 -1 23 6 12 7 24 13 27 13 3 0 14 6 25 12 11 6 25 13 30 15 6 1 9
6 8 10 -2 4 6 5 16 3 11 -2 22 3 25 11 3 9 10 12 16 9 5 -3 10 -1 10 4 0 6 7
11 16 11 9 0 12 5 8 12 -5 7 -3 8 6 3 8 -5 18 -1 27 10 7 11 13 16 13 12 0 -4
14 6 31 23 18 16 38 30 45 30 7 0 14 6 17 13 2 6 15 12 28 12 14 1 23 6 21 14
-1 7 2 10 8 6 9 -6 34 -12 79 -19 8 -2 17 -8 19 -14 2 -7 7 -10 11 -7 5 2 14
-7 21 -20 7 -14 17 -25 22 -25 4 0 8 -12 8 -26 0 -16 4 -23 12 -18 6 4 8 3 5
-3 -4 -6 -9 -28 -12 -49 -2 -21 -10 -41 -16 -45 -6 -4 -9 -11 -5 -17 3 -6 -3
-13 -14 -17 -11 -3 -25 -15 -31 -26 -5 -11 -14 -17 -20 -14 -5 4 -9 -2 -9 -12
0 -14 -2 -15 -9 -4 -7 11 -10 9 -16 -8 -3 -12 -10 -19 -15 -16 -4 3 -11 -2
-14 -11 -3 -8 -10 -12 -16 -9 -6 3 -13 -1 -16 -9 -3 -9 -10 -13 -15 -10 -5 3
-9 1 -9 -5 0 -6 -11 -13 -25 -17 -15 -4 -22 -11 -18 -18 3 -6 2 -8 -2 -3 -5 4
-19 0 -32 -8 -13 -9 -23 -12 -23 -8 0 5 -4 2 -9 -5 -4 -7 -15 -14 -23 -16 -9
-1 -23 -8 -32 -15 -9 -7 -23 -11 -31 -7 -9 3 -14 2 -11 -3 7 -10 -17 -21 -44
-21 -10 0 -20 -4 -22 -9 -1 -6 -14 -12 -28 -14 -46 -9 -54 -12 -68 -25 -10 -9
-18 -10 -27 -2 -9 8 -15 8 -20 0 -3 -6 -11 -8 -16 -5 -5 4 -9 2 -9 -2 0 -9
-28 -13 -83 -13 -20 0 -26 -3 -21 -12 5 -8 1 -7 -11 2 -12 9 -16 10 -11 2 6
-9 1 -11 -18 -8 -16 3 -26 0 -26 -7 0 -8 -3 -8 -8 -2 -7 11 -42 12 -59 2 -5
-3 -15 -2 -23 3 -8 5 -22 5 -32 -1 -13 -7 -18 -6 -18 2 0 8 -4 8 -15 -1 -11
-9 -15 -9 -15 -1 0 9 -5 9 -20 1 -12 -7 -20 -7 -20 -1 0 5 -9 8 -20 6 -11 -2
-22 0 -25 5 -3 6 -16 5 -31 0 -15 -6 -23 -6 -19 -1 3 5 1 12 -5 16 -5 3 -10 1
-10 -5 0 -7 -6 -8 -17 -2 -10 5 -29 8 -42 6 -14 -3 -29 3 -38 13 -8 10 -11 11
-7 3 6 -12 5 -13 -7 -3 -8 6 -27 10 -42 9 -17 -2 -31 3 -36 12 -5 8 -15 12
-24 9 -9 -3 -21 1 -28 9 -7 9 -21 13 -31 11 -10 -3 -18 -1 -18 5 0 5 -4 6 -10
3 -5 -3 -10 -1 -10 4 0 6 -9 11 -20 11 -11 0 -20 5 -20 10 0 6 -9 10 -21 10
-11 0 -17 4 -14 10 3 6 -1 7 -9 4 -9 -3 -16 -1 -16 5 0 6 -7 8 -15 5 -8 -4
-15 -1 -15 5 0 6 -7 11 -15 11 -8 0 -15 5 -15 10 0 6 -7 10 -16 10 -9 0 -12 5
-8 12 4 6 3 8 -4 4 -12 -7 -82 31 -82 45 0 4 -7 5 -17 2 -9 -4 -14 -2 -10 3 3
6 -5 18 -19 28 -13 11 -24 25 -24 32 0 7 -4 14 -9 16 -11 4 -21 88 -10 88 4 0
6 9 4 20 -2 12 5 30 18 43 12 12 21 26 19 30 -1 5 1 6 5 4 5 -3 17 1 28 9 10
8 15 14 10 14 -5 0 0 6 10 14 11 8 24 12 29 9 5 -4 6 -1 2 6 -4 6 0 14 10 18
22 8 54 40 54 53 0 5 7 6 17 3 11 -4 14 -3 9 5 -4 7 -2 12 4 12 6 0 25 15 42
33 17 17 28 26 24 20 -4 -7 -2 -13 3 -13 6 0 11 7 11 16 0 8 5 12 10 9 6 -3
10 -1 10 5 0 14 51 56 62 52 5 -1 8 4 8 12 0 7 9 16 21 19 13 4 18 10 13 18
-4 7 -3 10 4 5 6 -3 15 2 21 11 5 10 13 18 18 18 4 0 7 3 5 7 -1 5 4 8 12 8 8
0 17 7 20 16 4 9 13 14 21 10 8 -3 14 -2 13 2 -2 4 10 21 26 37 16 17 26 23
21 15 -4 -8 5 0 22 18 16 17 35 32 41 32 5 0 22 14 36 31 14 17 26 28 26 24 0
-3 14 8 30 25 17 17 30 28 30 26 0 -3 10 5 23 17 13 12 21 26 19 31 -3 5 0 6
7 2 6 -4 18 0 27 8 8 9 12 16 7 16 -4 0 11 12 35 26 23 14 42 27 42 30 0 3 -6
2 -12 -2 -8 -4 -10 -3 -5 2 5 5 13 10 18 10 5 1 14 2 19 3 6 0 10 8 10 17 0
10 6 14 15 10 9 -3 15 0 15 8 0 7 11 19 25 26 13 7 27 22 31 32 3 10 10 16 15
13 5 -4 9 -1 9 6 0 7 3 9 7 6 3 -4 17 6 31 21 14 15 29 26 34 25 4 -2 12 6 18
17 6 11 16 17 22 14 6 -4 8 -3 5 3 -4 6 1 17 10 24 14 12 16 12 8 -1 -4 -8 11
4 34 28 22 24 46 40 51 37 6 -4 9 -3 8 2 -2 4 2 9 7 11 6 2 15 13 22 25 7 12
12 18 13 13 0 -5 9 1 20 14 11 13 20 19 20 15 0 -5 16 9 36 31 20 21 33 32 29
24 -5 -8 8 2 28 23 19 20 38 37 42 37 3 0 17 11 30 24 13 14 34 27 45 31 11 3
20 11 20 16 0 6 -6 7 -12 4 -7 -4 -4 1 6 9 11 9 25 16 32 16 6 0 19 11 28 25
10 15 22 23 28 19 8 -5 9 -1 5 10 -4 11 -3 15 4 11 5 -4 18 3 28 14 10 12 22
21 27 21 5 0 16 9 24 19 7 11 18 17 24 14 5 -4 7 1 3 10 -3 9 -3 16 1 16 23
-3 50 14 45 29 -4 9 -2 13 3 9 6 -3 28 10 50 30 21 19 55 47 74 61 19 15 39
33 43 40 5 7 12 10 18 7 5 -3 6 1 3 9 -3 9 3 19 16 26 11 6 18 15 15 21 -4 5
-1 9 6 9 6 0 9 8 6 19 -3 12 0 18 7 15 8 -3 11 16 10 63 0 42 -5 68 -12 71 -7
2 -12 12 -12 23 0 10 -6 19 -14 19 -9 0 -13 7 -11 19 3 15 -1 18 -13 14 -9 -3
-14 -2 -10 2 9 10 -32 41 -47 37 -5 -2 -7 -1 -4 2 6 7 -61 83 -68 78 -2 -2
-13 7 -23 20 -11 13 -19 19 -20 14 0 -5 -9 1 -20 14 -11 13 -20 20 -20 17 0
-3 -12 5 -26 18 -15 14 -30 22 -35 19 -5 -3 -6 3 -2 12 4 11 3 15 -5 10 -6 -3
-13 -2 -17 4 -4 6 -11 8 -16 5 -5 -4 -9 -1 -9 4 0 6 -6 11 -14 11 -8 0 -16 6
-19 14 -3 8 -19 17 -36 21 -17 4 -31 11 -31 16 0 5 -9 9 -20 9 -11 0 -20 5
-20 10 0 6 -8 10 -17 8 -12 -2 -17 2 -15 12 2 8 0 12 -4 8 -4 -4 -14 -2 -22 5
-13 9 -14 9 -8 0 5 -9 2 -11 -8 -7 -9 3 -13 11 -9 17 4 6 -2 8 -15 5 -16 -5
-22 -2 -22 10 0 12 -3 13 -8 5 -6 -9 -16 -8 -40 7 -22 14 -32 16 -33 7 0 -6
-4 -3 -9 8 -5 11 -9 14 -9 7 -1 -10 -7 -9 -30 2 -22 12 -31 12 -40 3 -10 -9
-12 -9 -9 3 2 11 -5 15 -24 14 -16 0 -28 3 -28 8 0 4 -7 5 -15 2 -8 -4 -15 -2
-15 3 0 5 -22 9 -49 9 -42 -1 -48 1 -38 13 10 12 9 13 -8 3 -14 -7 -26 -7 -38
-1 -9 6 -21 8 -26 5 -4 -3 -22 -1 -40 4 -17 5 -29 5 -26 0 3 -5 -4 -8 -15 -7
-11 1 -20 6 -20 11 0 6 -5 5 -11 -1 -8 -8 -20 -8 -36 -2 -16 6 -31 5 -46 -2
-16 -9 -22 -9 -25 0 -3 9 -8 9 -20 -1 -12 -10 -16 -10 -19 -1 -3 8 -11 10 -21
5 -9 -5 -36 -8 -59 -8 -24 1 -43 -3 -43 -8 0 -5 -3 -6 -7 -3 -3 4 -12 2 -20
-4 -10 -9 -13 -8 -13 1 0 8 -4 9 -12 3 -7 -5 -27 -9 -45 -8 -17 0 -30 -2 -27
-6 6 -10 -16 -16 -58 -15 -20 1 -36 -3 -35 -9 1 -5 -8 -10 -20 -11 -13 -1 -26
-3 -30 -4 -5 -1 -11 -2 -15 -1 -5 0 -8 -3 -8 -8 0 -5 -11 -8 -24 -7 -15 2 -27
-3 -31 -11 -3 -9 -12 -12 -20 -9 -8 3 -15 1 -15 -5 0 -6 -5 -7 -10 -4 -6 3
-13 0 -16 -8 -3 -9 -13 -13 -25 -10 -10 3 -19 0 -19 -6 0 -6 -9 -11 -20 -11
-10 0 -24 -8 -29 -17 -6 -10 -11 -14 -11 -10 0 4 -10 2 -22 -5 -13 -7 -27 -11
-31 -10 -4 1 -10 -5 -13 -13 -3 -8 -9 -13 -14 -10 -4 2 -16 -3 -26 -11 -10 -9
-13 -12 -5 -8 9 4 12 3 7 -4 -3 -6 -15 -9 -26 -7 -12 2 -18 0 -15 -5 3 -5 -10
-14 -29 -21 -19 -7 -33 -16 -30 -21 3 -4 1 -8 -5 -8 -5 0 -22 -11 -37 -25 -14
-13 -30 -22 -35 -19 -8 5 -13 -10 -10 -29 1 -5 -3 -5 -9 -2 -6 4 -24 -7 -39
-24 -15 -17 -34 -31 -41 -31 -7 0 -10 -3 -7 -7 4 -3 -5 -15 -20 -25 -16 -10
-25 -18 -21 -18 3 0 -8 -15 -25 -32 -18 -18 -35 -31 -39 -30 -8 2 -12 -13 -9
-30 0 -5 -5 -8 -13 -8 -8 0 -18 -5 -22 -12 -5 -7 -2 -9 7 -4 8 4 4 -1 -8 -12
-12 -11 -19 -22 -16 -26 3 -3 -2 -8 -11 -12 -9 -3 -16 -12 -16 -20 0 -7 -10
-20 -22 -28 -12 -9 -19 -16 -15 -16 5 0 0 -13 -9 -29 -10 -17 -21 -28 -26 -25
-7 5 -12 -13 -11 -43 1 -7 -2 -11 -6 -9 -3 1 -15 -6 -25 -17 -19 -20 -19 -20
0 -14 19 7 19 7 0 -8 -11 -8 -16 -15 -11 -15 4 0 1 -8 -8 -18 -10 -10 -14 -22
-10 -25 3 -4 1 -7 -6 -7 -7 0 -9 -5 -6 -10 3 -6 -1 -13 -10 -16 -13 -6 -14 -8
-3 -15 10 -7 11 -9 0 -9 -7 0 -10 -4 -7 -10 3 -5 1 -10 -6 -10 -7 0 -9 -10 -7
-24 4 -17 1 -23 -9 -19 -12 5 -19 -29 -14 -60 1 -5 -3 -6 -9 -2 -6 4 -10 -7
-10 -29 0 -19 -6 -39 -12 -43 -7 -4 -13 -26 -14 -48 0 -22 -5 -39 -11 -38 -5
1 -9 -21 -8 -52 1 -30 -2 -52 -7 -49 -4 3 -8 3 -8 0 0 -2 -3 -13 -6 -23 -5
-15 -4 -15 5 -3 7 9 11 10 11 3 0 -6 -4 -14 -9 -18 -6 -3 -8 -14 -6 -25 2 -11
-1 -22 -6 -25 -5 -4 -6 -12 -2 -18 11 -19 8 -54 -7 -72 -10 -13 -11 -15 0 -13
15 3 22 -40 7 -49 -5 -3 -3 -9 4 -14 11 -7 11 -9 1 -9 -8 0 -10 -5 -6 -12 11
-18 12 -48 2 -54 -4 -3 -4 -13 0 -22 4 -9 8 -41 7 -69 0 -29 4 -53 8 -53 5 0
5 -9 2 -20 -3 -11 -2 -20 2 -20 11 0 11 -110 0 -127 -5 -8 -3 -13 5 -14 10 0
10 -2 1 -6 -7 -2 -13 -9 -13 -13 0 -5 -12 -22 -27 -37 -14 -15 -23 -21 -19
-13 4 8 -1 6 -11 -5 -12 -14 -29 -20 -53 -19 -61 3 -90 8 -90 16 0 4 -6 8 -14
8 -8 0 -18 5 -22 12 -5 7 -2 9 7 4 8 -4 3 1 -11 13 -14 11 -25 28 -25 38 -1
10 -5 17 -10 16 -6 -1 -10 23 -9 52 0 30 -4 52 -8 49 -10 -6 -9 -10 -13 106
-4 101 -6 118 -18 137 -4 6 -2 15 4 19 8 5 9 3 4 -7 -5 -8 -4 -10 0 -6 11 10
16 39 5 32 -4 -3 -10 4 -13 15 -3 11 0 23 5 27 7 4 8 1 3 -7 -6 -9 -4 -11 4
-5 9 5 9 11 3 17 -6 6 -8 17 -5 26 5 11 3 13 -8 7 -8 -5 -7 -1 3 12 10 11 18
24 18 29 0 5 -5 2 -11 -6 -9 -12 -9 -11 -4 5 5 11 9 48 10 82 0 34 6 67 11 75
6 7 10 30 9 51 -1 20 2 37 5 37 4 0 6 11 5 25 -2 14 1 25 5 25 5 0 7 11 4 25
-2 14 0 25 5 25 6 0 8 7 5 15 -4 8 -2 15 4 15 6 0 9 11 8 24 -2 15 3 27 12 31
11 4 12 8 3 19 -9 10 -8 15 3 19 8 3 12 14 10 25 -3 10 1 24 9 31 8 6 13 21
10 31 -4 13 0 20 9 20 10 0 14 8 12 26 -1 14 3 27 10 30 6 2 13 14 13 26 1 12
7 24 13 28 7 4 11 10 11 14 -3 20 0 26 10 21 6 -4 9 -1 8 6 -4 20 31 90 42 83
5 -3 6 2 3 10 -3 9 -1 16 6 16 6 0 9 4 5 9 -3 5 0 13 6 16 5 4 8 14 5 22 -3 8
-2 11 4 8 9 -6 36 34 32 48 -1 4 5 7 14 7 8 0 13 4 10 9 -3 5 6 21 20 36 14
15 23 29 20 32 -2 3 8 18 24 33 16 15 26 31 22 36 -4 4 0 5 9 1 13 -4 16 -1
11 15 -3 12 -1 19 5 15 5 -3 16 3 24 15 22 32 110 118 121 118 5 0 7 3 5 8 -7
11 48 59 63 54 7 -3 10 0 6 6 -3 6 3 17 14 25 11 7 17 17 13 21 -4 4 0 4 8 1
11 -4 25 5 42 24 16 20 27 26 30 18 3 -7 6 -4 6 6 1 10 5 16 10 13 5 -3 12 1
15 10 3 9 11 12 18 8 8 -5 9 -2 5 10 -4 10 -3 15 3 11 6 -3 23 3 39 14 16 12
32 21 35 21 3 0 15 9 27 21 11 11 27 18 35 15 7 -3 13 0 11 6 -1 7 4 13 11 14
6 1 17 2 23 3 5 0 7 6 3 13 -4 7 -3 8 4 4 6 -4 22 0 35 9 13 8 27 12 31 8 4
-4 4 1 0 12 -7 18 -6 19 11 5 11 -9 16 -10 11 -2 -5 8 0 12 14 12 12 0 19 4
16 9 -3 4 5 8 17 7 12 -1 28 4 35 11 8 7 18 11 23 8 5 -4 9 -1 9 5 0 6 5 8 10
5 6 -3 10 -1 10 5 0 6 6 10 13 9 20 -4 67 13 62 21 -3 5 6 7 19 4 14 -2 28 0
31 6 3 5 22 10 41 10 19 0 34 5 34 11 0 5 5 7 10 4 6 -3 10 -2 10 4 0 5 14 7
30 5 19 -3 30 -1 30 7 0 8 4 8 16 -1 12 -11 14 -11 12 -1 -3 12 52 22 120 21
13 0 20 5 17 10 -3 6 -1 10 4 10 6 0 11 -6 11 -12 0 -8 3 -9 8 -3 4 6 59 10
134 10 71 0 128 4 128 8 0 4 8 4 18 -1 9 -4 47 -8 84 -8z m-222 -555 c0 -8 45
-3 59 6 6 3 11 2 11 -4 0 -7 8 -7 25 -1 14 5 25 6 25 1 0 -12 33 -9 42 4 5 6
8 5 8 -4 0 -9 8 -11 26 -7 14 4 23 3 20 -2 -3 -5 6 -8 19 -6 14 1 25 -2 25 -7
0 -6 8 -5 20 1 11 6 20 7 20 2 0 -5 12 -7 26 -4 19 3 25 1 20 -6 -5 -8 -2 -10
8 -6 9 3 16 2 16 -4 0 -6 9 -8 20 -5 11 3 20 0 20 -6 0 -5 7 -8 15 -5 8 4 15
2 15 -2 0 -5 14 -10 32 -11 17 -1 35 -7 38 -14 4 -6 10 -10 14 -9 4 1 17 -1
29 -5 12 -4 26 -8 30 -9 4 0 11 -7 16 -14 5 -8 11 -13 15 -13 26 4 46 -1 41
-8 -3 -5 -1 -12 5 -16 5 -3 10 -2 10 4 0 6 7 8 15 5 8 -4 13 -10 10 -14 -3 -5
-1 -11 5 -15 5 -3 10 0 10 7 1 9 5 7 14 -4 7 -10 19 -18 25 -18 7 0 19 -6 26
-12 32 -29 45 -38 45 -33 0 2 10 -3 21 -13 51 -41 81 -74 85 -95 9 -40 9 -87
1 -87 -5 0 -5 -9 -2 -20 5 -15 2 -20 -11 -20 -10 0 -15 -3 -11 -6 7 -7 -61
-74 -74 -74 -5 0 -9 -7 -9 -16 0 -8 -4 -12 -10 -9 -5 3 -10 1 -10 -5 0 -6 -4
-8 -10 -5 -5 3 -10 -1 -10 -10 0 -9 -4 -14 -9 -11 -5 3 -12 -1 -15 -10 -3 -8
-11 -12 -16 -9 -6 4 -9 2 -8 -3 2 -6 -1 -9 -5 -9 -5 1 -13 -6 -18 -16 -6 -9
-15 -14 -21 -11 -6 4 -8 3 -5 -3 8 -13 -31 -45 -46 -37 -7 4 -9 4 -5 0 7 -8
-33 -52 -44 -49 -4 2 -12 -6 -18 -17 -6 -11 -15 -18 -21 -15 -5 4 -8 2 -7 -3
2 -6 -1 -12 -6 -14 -11 -4 -64 -49 -114 -98 -20 -19 -32 -28 -28 -20 4 9 1 8
-7 -2 -8 -10 -17 -18 -21 -18 -4 0 -25 -18 -46 -40 -22 -23 -40 -38 -40 -34 0
4 -9 -4 -21 -17 -12 -13 -25 -23 -30 -22 -5 2 -9 -4 -9 -13 0 -8 -4 -13 -9 -9
-6 3 -15 -4 -21 -16 -7 -11 -14 -18 -17 -16 -6 7 -49 -36 -45 -46 1 -5 -2 -6
-8 -2 -5 3 -13 -1 -16 -9 -3 -9 -10 -14 -15 -11 -4 3 -13 -4 -19 -15 -6 -11
-15 -18 -21 -15 -5 4 -8 1 -7 -7 2 -7 -3 -12 -9 -11 -7 2 -13 -5 -13 -15 0
-13 -2 -14 -9 -3 -7 11 -10 9 -16 -8 -4 -13 -9 -20 -12 -17 -3 3 -25 -14 -49
-38 -24 -24 -45 -41 -48 -39 -2 3 -9 -5 -16 -16 -6 -12 -15 -19 -20 -16 -5 3
-14 -4 -20 -15 -6 -11 -15 -18 -20 -15 -5 3 -12 -4 -15 -16 -4 -11 -9 -18 -12
-16 -8 8 -43 -26 -36 -35 3 -5 -3 -8 -13 -6 -11 2 -18 -2 -17 -9 2 -7 -3 -13
-10 -13 -8 0 -34 -20 -58 -45 -24 -25 -50 -43 -57 -40 -7 3 -11 1 -9 -3 3 -4
-5 -16 -16 -27 -11 -11 -16 -14 -12 -6 5 9 4 12 -3 7 -7 -4 -12 -13 -12 -20 0
-8 -9 -16 -21 -19 -13 -4 -18 -10 -13 -18 4 -7 3 -10 -4 -5 -6 3 -13 2 -17 -4
-4 -6 -11 -8 -16 -5 -5 3 -6 -1 -3 -9 3 -9 1 -16 -5 -16 -10 0 -18 -6 -73 -52
-12 -10 -25 -18 -30 -18 -5 0 -6 -4 -3 -10 3 -5 1 -10 -4 -10 -6 0 -19 -8 -29
-17 -29 -28 -67 -59 -72 -59 -3 0 -19 -13 -36 -29 -48 -45 -73 -65 -85 -65 -5
0 -7 -4 -4 -10 3 -5 2 -10 -4 -10 -5 0 -25 -15 -44 -34 -20 -19 -38 -32 -41
-29 -3 3 -15 -10 -27 -28 -11 -19 -18 -26 -15 -16 3 11 2 16 -4 12 -6 -3 -10
-13 -10 -21 0 -8 -5 -12 -10 -9 -6 3 -13 -1 -16 -9 -3 -9 -16 -16 -28 -16 -16
0 -18 -2 -7 -9 11 -7 9 -10 -8 -16 -12 -3 -19 -11 -16 -16 4 -5 -1 -9 -9 -9
-9 0 -16 -7 -16 -15 0 -8 -4 -15 -10 -15 -5 0 -10 -7 -10 -15 0 -8 -5 -15 -11
-15 -6 0 -9 -7 -5 -15 3 -8 2 -15 -3 -15 -4 0 -7 -10 -6 -22 1 -13 -3 -29 -9
-37 -8 -11 -8 -13 0 -8 7 4 12 -2 12 -16 0 -34 5 -49 25 -69 10 -10 15 -24 11
-30 -4 -7 -3 -8 5 -4 6 4 14 0 18 -10 6 -17 53 -68 66 -72 4 -1 11 -2 17 -2 5
0 7 -7 4 -15 -5 -11 -2 -13 12 -8 13 5 16 3 11 -10 -4 -11 -1 -17 9 -17 8 0
13 -4 9 -9 -3 -6 4 -8 15 -6 11 2 18 0 16 -4 -3 -4 6 -14 19 -21 13 -7 22 -17
19 -22 -3 -4 4 -8 14 -8 11 0 26 -8 33 -17 12 -15 12 -16 -1 -8 -9 5 -12 5 -7
-1 5 -5 13 -10 18 -10 5 -1 13 -2 17 -3 5 0 19 -10 32 -21 13 -11 29 -20 37
-20 7 0 13 -5 13 -11 0 -5 5 -7 10 -4 6 3 13 -1 16 -9 3 -9 15 -16 25 -16 10
0 19 -5 19 -11 0 -6 7 -8 15 -5 9 3 18 -1 21 -9 4 -8 12 -15 20 -15 17 0 56
-21 66 -35 5 -6 8 -5 8 3 0 10 4 10 15 -2 9 -8 23 -12 32 -9 11 4 14 3 9 -5
-5 -8 0 -13 13 -13 12 -1 27 -2 34 -3 6 -1 16 -7 20 -14 5 -7 13 -10 18 -6 5
3 17 0 25 -7 13 -10 17 -10 23 0 6 10 10 9 14 -3 4 -9 14 -13 27 -11 11 2 20
1 20 -3 0 -9 24 -13 90 -15 25 -1 51 -8 59 -15 12 -11 15 -11 22 0 6 8 9 9 9
2 0 -7 15 -11 38 -10 20 2 42 -1 49 -6 7 -5 14 -4 18 3 6 8 10 7 16 -2 6 -10
9 -10 9 -2 0 9 7 10 25 3 14 -5 25 -6 25 -1 0 5 16 5 35 1 19 -4 33 -4 30 0
-3 5 4 8 15 7 11 -1 20 -5 20 -10 0 -5 6 -5 13 0 15 13 47 13 47 0 0 -5 6 -4
13 2 8 6 17 8 20 4 4 -3 7 -1 7 5 0 7 5 12 11 12 5 0 7 -6 3 -12 -4 -7 1 -5
12 4 13 11 24 14 34 8 8 -5 21 -5 29 -1 9 5 26 7 38 6 12 -1 20 2 18 6 -7 10
15 17 52 14 19 -1 34 4 37 11 3 8 17 12 33 10 26 -3 58 15 47 26 -2 3 10 2 28
0 27 -4 30 -2 24 14 -5 14 -4 16 4 8 13 -13 53 -7 45 6 -3 5 0 12 6 16 8 4 9
3 5 -4 -10 -17 -1 -15 41 8 20 10 41 16 47 13 6 -3 8 -3 4 2 -10 11 53 44 71
37 9 -3 12 -1 7 6 -4 7 -2 13 3 13 6 1 17 2 24 3 6 1 11 7 9 14 -2 11 18 17
41 13 5 -1 6 2 3 7 -5 9 42 37 57 34 4 -1 6 4 5 10 -2 7 5 12 15 12 9 -1 17 5
17 13 0 8 4 12 9 9 5 -3 12 1 15 10 3 8 11 12 16 9 6 -4 9 -3 8 2 -2 4 1 9 6
10 5 0 13 8 18 17 5 9 13 14 19 11 5 -4 9 3 9 15 0 12 5 18 10 15 6 -3 10 -1
10 4 0 6 8 11 17 11 9 0 14 3 11 6 -8 7 25 42 35 37 4 -2 7 3 7 12 0 9 5 13
10 10 6 -3 10 -2 10 4 0 6 19 30 43 54 24 23 41 49 39 56 -3 8 0 11 5 8 5 -3
23 16 39 43 16 27 35 50 42 50 6 0 11 3 11 8 -3 16 2 31 14 44 22 25 47 75 39
83 -4 5 -1 5 6 1 6 -4 13 -2 13 3 1 6 2 16 3 21 0 6 6 14 12 18 6 4 10 15 8
24 -1 10 3 21 8 25 7 4 8 1 3 -7 -5 -9 -4 -11 3 -6 7 4 12 18 12 31 0 13 5 27
11 30 6 4 8 13 5 21 -3 8 0 17 8 20 7 3 14 17 14 31 0 14 4 28 10 32 6 4 12
21 14 39 1 18 5 32 8 32 4 0 7 6 8 13 3 28 10 62 11 62 4 0 12 39 15 73 2 18
10 40 17 49 10 12 10 15 2 9 -7 -4 -13 -2 -13 3 0 6 3 11 8 11 4 0 7 24 6 53
0 28 4 58 9 64 6 9 5 13 -4 13 -9 0 -10 3 -4 8 11 8 16 42 6 42 -3 0 -6 16 -6
35 0 19 4 35 8 35 5 0 5 6 0 13 -10 17 -11 100 -1 114 5 6 5 14 -1 17 -5 3 -8
17 -6 31 1 17 -3 25 -14 26 -10 0 -12 2 -3 6 6 2 9 9 6 15 -4 6 -8 46 -9 90
-2 60 1 81 12 87 8 4 14 12 14 17 -1 5 4 10 9 10 23 3 24 5 10 14 -13 9 -13
10 0 11 8 1 18 1 23 0 4 0 7 4 7 11 0 6 3 8 6 5 4 -3 14 -2 23 3 10 5 23 5 31
0 8 -5 22 -4 32 1 12 7 18 6 18 -1 0 -6 4 -9 9 -5 5 3 12 1 16 -5 4 -6 11 -8
16 -5 5 4 9 -2 9 -11 0 -10 3 -15 6 -11 11 10 36 -22 38 -47 0 -13 4 -22 9
-19 7 4 10 -23 10 -80 0 -17 4 -26 11 -24 8 3 11 -24 11 -89 0 -52 3 -94 6
-94 4 0 10 -7 13 -16 3 -8 2 -12 -3 -9 -5 3 -12 1 -16 -5 -3 -5 -1 -10 5 -10
6 0 8 -4 5 -10 -3 -5 0 -10 7 -11 7 0 4 -4 -7 -9 -11 -5 -15 -9 -9 -9 17 -1
25 -29 12 -37 -7 -5 -8 -2 -3 6 5 9 4 11 -4 6 -8 -6 -9 -12 -2 -20 6 -7 8 -15
6 -18 -10 -9 -14 -49 -6 -43 5 3 12 -2 15 -11 3 -8 2 -12 -4 -9 -6 3 -10 3
-11 -2 0 -4 -2 -44 -4 -88 -2 -44 -8 -92 -14 -107 -5 -15 -8 -36 -6 -47 2 -12
-1 -21 -7 -21 -7 0 -7 -4 0 -12 11 -15 -10 -42 -24 -30 -4 4 -3 0 2 -8 13 -22
14 -40 2 -40 -6 0 -5 -7 2 -16 11 -12 11 -15 -1 -12 -10 2 -14 -7 -14 -34 0
-20 -4 -34 -9 -30 -5 3 -6 -2 -3 -12 4 -10 3 -15 -3 -11 -6 3 -11 0 -11 -7 -1
-15 -3 -21 -14 -65 -4 -18 -12 -33 -17 -33 -6 0 -8 -7 -4 -15 3 -8 1 -15 -4
-15 -6 0 -9 -3 -8 -7 1 -5 -3 -18 -10 -29 -6 -12 -9 -24 -5 -27 3 -4 -1 -9
-10 -13 -9 -3 -14 -11 -11 -19 3 -7 -2 -19 -10 -28 -8 -8 -12 -17 -9 -21 4 -3
1 -6 -5 -6 -7 0 -12 -7 -12 -15 0 -8 -6 -15 -12 -16 -9 0 -9 -2 1 -6 11 -4 8
-10 -10 -25 -13 -11 -17 -17 -9 -13 8 4 6 -1 -4 -9 -11 -9 -16 -16 -12 -16 5
0 3 -6 -3 -13 -6 -8 -7 -18 -3 -22 4 -5 1 -5 -5 -1 -12 6 -18 -5 -14 -26 0 -5
-4 -8 -9 -8 -6 0 -15 -12 -20 -26 -6 -14 -14 -22 -20 -19 -6 3 -7 -1 -4 -9 3
-9 1 -16 -5 -16 -6 0 -11 -7 -11 -16 0 -8 -4 -12 -10 -9 -5 3 -10 -1 -10 -9 0
-9 -5 -16 -12 -16 -6 0 -9 -3 -6 -6 3 -3 -5 -17 -18 -31 -13 -14 -21 -29 -18
-34 3 -5 -3 -6 -12 -2 -11 4 -15 2 -11 -4 4 -6 0 -13 -8 -17 -8 -3 -15 -10
-15 -16 0 -14 -37 -50 -44 -43 -3 4 -6 0 -6 -9 0 -8 -11 -21 -25 -28 -13 -7
-22 -17 -19 -21 3 -5 -6 -14 -20 -20 -13 -6 -27 -20 -29 -30 -3 -11 -13 -19
-22 -19 -9 0 -13 -4 -10 -10 3 -5 -1 -10 -9 -10 -9 0 -16 -4 -16 -10 0 -5 -7
-10 -16 -10 -9 0 -12 -5 -8 -12 5 -8 2 -9 -12 -4 -10 4 -16 4 -12 1 10 -10
-25 -42 -40 -37 -8 3 -10 -1 -6 -12 4 -9 3 -16 -2 -15 -16 2 -54 -13 -50 -20
3 -4 -4 -13 -16 -20 -16 -10 -19 -10 -13 1 3 7 0 5 -8 -4 -8 -10 -22 -18 -32
-18 -10 0 -15 -3 -12 -7 9 -8 -44 -44 -55 -37 -4 3 -8 0 -8 -6 0 -6 -4 -8 -10
-5 -5 3 -10 2 -10 -2 0 -5 -16 -15 -35 -22 -19 -7 -33 -16 -30 -21 3 -5 -4 -7
-15 -5 -11 2 -20 -1 -20 -8 0 -7 -10 -13 -22 -14 -11 -1 -24 -7 -28 -14 -4 -6
-13 -8 -19 -5 -6 4 -11 2 -11 -4 0 -6 -4 -9 -9 -5 -5 3 -12 1 -16 -5 -4 -6
-11 -8 -16 -5 -5 4 -9 1 -9 -5 0 -6 -4 -8 -10 -5 -5 3 -10 1 -10 -5 0 -7 -7
-10 -15 -6 -8 3 -15 0 -15 -7 0 -9 -3 -8 -9 1 -7 11 -9 10 -15 -3 -3 -9 -10
-14 -15 -10 -5 3 -12 1 -16 -5 -4 -6 -11 -8 -16 -4 -5 3 -16 0 -24 -6 -8 -7
-15 -9 -15 -5 0 4 -7 2 -15 -5 -8 -7 -15 -9 -15 -6 0 4 -9 2 -21 -5 -11 -6
-40 -12 -62 -13 -23 -1 -41 -7 -40 -12 1 -6 -29 -10 -73 -9 -41 0 -74 -3 -74
-8 0 -4 6 -5 13 -1 6 4 8 3 4 -2 -4 -4 -27 -9 -50 -9 -23 0 -47 -4 -54 -8 -6
-4 -14 -4 -16 0 -3 5 -89 8 -191 8 -159 0 -186 2 -186 15 0 9 -3 11 -8 5 -9
-13 -32 -18 -32 -7 0 5 -19 8 -41 8 -23 -1 -47 3 -53 9 -6 6 -18 10 -26 10 -8
-1 -21 3 -27 8 -9 6 -13 5 -13 -2 0 -9 -6 -8 -22 1 -24 13 -29 14 -66 16 -14
1 -20 6 -17 13 4 6 1 10 -6 8 -37 -4 -69 2 -69 15 0 9 -8 12 -25 8 -17 -3 -27
1 -31 12 -5 12 -10 13 -26 5 -11 -6 -18 -7 -15 -2 3 4 -1 13 -8 20 -10 9 -15
9 -17 1 -3 -7 -13 -3 -26 10 -12 12 -25 21 -30 21 -19 -3 -33 2 -27 10 3 6 -4
8 -15 6 -11 -2 -20 0 -20 5 0 8 -41 25 -49 21 -2 -2 -8 4 -13 13 -5 9 -14 16
-20 16 -6 0 -20 8 -31 18 -15 12 -19 13 -13 2 4 -9 2 -8 -7 2 -8 10 -20 18
-26 18 -7 0 -9 5 -6 10 3 6 -3 10 -14 10 -12 0 -21 5 -21 10 0 6 -7 10 -15 10
-7 0 -19 8 -24 18 -6 9 -11 13 -11 8 0 -5 -9 1 -20 14 -11 13 -20 19 -20 15 0
-4 -8 2 -19 13 -10 12 -21 19 -25 15 -3 -3 -6 1 -6 11 0 9 -4 15 -8 12 -5 -3
-15 4 -22 15 -8 10 -18 19 -22 19 -14 0 -48 34 -48 47 0 7 -4 13 -9 13 -5 0
-26 16 -45 35 -20 19 -34 35 -31 35 3 0 -9 13 -25 28 -16 16 -27 32 -23 35 3
4 1 7 -5 7 -6 0 -14 9 -17 20 -4 11 -11 18 -16 15 -5 -3 -6 1 -3 9 4 10 1 16
-7 16 -12 0 -12 2 -1 9 11 7 11 9 -2 14 -9 4 -16 18 -16 32 0 14 -5 25 -11 25
-6 0 -9 9 -6 20 3 11 2 20 -3 20 -4 0 -6 11 -5 25 2 14 -1 25 -6 25 -5 0 -9 8
-9 18 0 14 2 14 9 3 6 -10 9 -5 8 15 -1 16 -6 32 -12 37 -7 5 -7 9 0 15 6 4
12 27 14 52 1 27 9 50 19 58 9 6 11 12 4 12 -6 0 -9 7 -6 15 4 8 10 12 16 9 5
-3 8 2 6 13 -1 10 6 30 17 45 11 14 27 36 35 48 8 13 22 31 32 41 9 9 13 21
10 25 -4 4 1 4 11 1 10 -4 16 -3 12 3 -3 5 4 14 15 20 11 6 17 16 14 22 -4 7
-3 8 4 4 7 -4 12 -2 12 5 0 7 3 10 6 7 3 -4 18 7 33 23 16 16 32 29 36 29 4 0
22 16 40 34 18 19 35 32 39 29 3 -4 6 -1 6 5 0 7 7 12 15 12 8 0 14 3 13 8 -2
4 0 8 5 9 4 2 19 15 32 29 14 15 25 23 25 18 1 -5 7 2 15 16 8 14 14 21 15 16
0 -5 11 3 25 18 14 15 25 24 25 20 0 -4 11 5 25 20 13 14 27 26 30 26 3 0 4 1
3 3 -6 6 28 35 35 30 11 -7 37 29 30 41 -4 5 0 6 7 1 8 -5 17 -2 24 7 6 8 21
20 34 27 12 7 20 16 17 22 -4 5 1 9 10 9 19 0 45 23 45 41 0 7 3 9 7 6 3 -4
12 1 20 11 9 11 12 11 7 2 -4 -8 6 0 23 18 16 17 35 32 42 32 7 0 9 5 6 10 -3
6 -1 10 6 10 6 0 22 11 34 24 13 14 26 22 29 19 3 -4 6 -1 6 5 0 7 7 12 16 12
11 0 14 5 10 17 -4 10 -4 14 0 11 3 -4 13 0 21 8 8 8 19 12 24 8 5 -3 8 -2 7
3 -3 8 37 53 47 53 7 0 13 5 73 60 24 22 48 38 53 35 5 -4 6 1 3 9 -4 10 -1
16 9 16 9 0 28 13 44 28 15 16 40 36 55 46 15 10 25 22 22 27 -4 8 11 13 19 7
6 -6 35 27 30 35 -2 4 2 7 10 7 7 0 23 11 35 25 13 14 27 23 32 20 5 -3 12 4
15 16 4 11 9 18 12 15 3 -3 21 10 39 30 19 19 34 32 34 29 0 -3 9 3 19 12 11
9 17 21 14 26 -3 6 -1 7 6 3 13 -8 44 18 33 29 -4 4 -2 5 3 3 11 -3 81 51 142
109 18 18 33 30 33 28 0 -3 13 7 30 21 16 15 27 30 24 35 -2 4 4 6 16 4 11 -2
23 1 26 7 5 7 2 8 -7 3 -12 -8 -12 -6 0 8 7 9 18 14 23 11 5 -3 12 3 15 15 3
11 9 19 13 16 16 -10 18 10 4 35 -7 14 -13 19 -14 11 0 -11 -3 -11 -15 -1 -8
6 -20 8 -26 4 -8 -4 -9 -3 -5 4 4 7 1 13 -8 13 -32 3 -37 4 -44 14 -4 6 -19
10 -34 10 -16 -1 -28 4 -28 10 0 5 -5 3 -10 -5 -8 -13 -10 -13 -10 1 0 12 -8
16 -32 15 -18 -1 -41 3 -51 8 -13 8 -20 7 -27 -4 -8 -13 -10 -12 -10 3 0 9 -5
17 -11 17 -5 0 -7 -6 -3 -12 6 -10 5 -10 -7 -1 -15 12 -149 22 -149 11 0 -4
-13 -3 -30 2 -17 5 -30 5 -30 0 0 -5 -7 -6 -17 -3 -12 5 -14 3 -8 -8 6 -11 5
-11 -5 -2 -15 14 -42 6 -33 -11 4 -7 1 -7 -7 1 -10 9 -17 10 -27 2 -10 -9 -13
-8 -13 1 0 9 -7 7 -22 -6 -12 -10 -18 -13 -14 -6 4 6 2 12 -3 12 -6 0 -11 -4
-11 -9 0 -5 -7 -12 -16 -15 -8 -3 -13 -2 -9 3 5 9 -55 -9 -65 -19 -3 -3 -12
-5 -20 -5 -8 0 -18 -3 -21 -8 -4 -5 -18 -10 -32 -10 -14 -1 -25 -6 -24 -12 1
-5 -7 -10 -17 -10 -11 0 -21 -6 -24 -13 -2 -6 -7 -10 -12 -7 -5 3 -16 -2 -24
-11 -9 -8 -16 -13 -16 -9 0 4 -7 -1 -16 -9 -8 -9 -19 -14 -23 -11 -5 2 -27
-13 -50 -35 -22 -21 -41 -36 -41 -32 0 4 -7 -1 -15 -12 -7 -10 -18 -15 -23
-12 -6 3 -13 -1 -16 -10 -4 -11 -14 -15 -31 -11 -14 2 -28 0 -32 -6 -4 -6 -1
-7 7 -2 9 5 11 4 6 -4 -6 -9 -11 -9 -22 0 -8 6 -14 8 -14 4 0 -4 -6 -3 -12 2
-7 6 -21 9 -31 8 -9 -2 -15 1 -12 5 3 5 -4 11 -15 15 -11 3 -20 10 -20 14 0 4
-9 18 -19 30 -11 12 -18 33 -16 46 1 14 -1 25 -6 25 -5 0 -6 7 -3 15 4 8 9 13
13 11 4 -3 6 9 5 25 -1 20 4 33 17 40 11 5 17 14 14 20 -4 5 -2 9 4 9 5 0 23
12 40 26 18 15 36 22 43 18 9 -5 9 -3 -1 9 -12 15 -12 17 4 11 13 -5 16 -4 11
4 -6 11 12 17 37 13 5 -1 6 3 3 8 -4 5 3 12 14 16 11 3 20 11 20 16 0 6 5 7
10 4 6 -3 10 -1 10 4 0 6 6 10 13 9 6 -2 11 3 9 11 -3 12 -1 12 14 0 12 -9 15
-9 10 -1 -7 11 6 16 41 15 6 0 9 6 6 13 -3 9 2 14 14 14 10 0 24 5 30 11 7 7
22 12 35 13 13 1 22 6 21 12 -1 6 8 10 20 9 12 -1 24 2 27 6 3 4 17 10 30 12
14 3 38 10 54 16 16 7 31 9 34 6 3 -3 16 2 30 11 13 9 21 11 18 5 -4 -6 -2
-11 3 -11 6 0 11 8 11 18 0 10 3 13 8 6 4 -6 16 -10 27 -8 11 2 34 4 52 6 17
1 29 6 27 10 -8 13 21 9 35 -4 9 -9 12 -9 7 -1 -3 6 -2 13 4 15 17 5 60 3 60
-3z m-520 -473 c0 -2 -8 -10 -17 -17 -16 -13 -17 -12 -4 4 13 16 21 21 21 13z"/>
<path d="M2430 1496 c7 -7 13 -7 20 0 6 6 3 10 -10 10 -13 0 -16 -4 -10 -10z"/>
</g>
</svg>
