<?xml version="1.0" encoding="UTF-8" standalone="no"?>
<svg
   viewBox="0 0 963.81 340.73"
   version="1.1"
   id="svg2715"
   xmlns="http://www.w3.org/2000/svg">
  <defs
     id="defs2697">
    <style
       id="style2695">.cls-1{fill:#C2B8E8;}</style>
  </defs>
  <g
     id="Layer_2"
     data-name="Layer 2">
    <g
       id="Layer_1-2"
       data-name="Layer 1">
      <path
         class="cls-1"
         d="m 4.3551062,95.074297 c 0,0 2.4429294,-4.987955 9.4585538,-10.523006 C 26.507026,74.536726 55.214301,62.806153 110.46,52.45 196.24,36.37 250.64,53.4 267.83,78 c 14.63,20.93 19.94,57.19 -49.37,99.4 -35.17,21.41 -152.296756,97.51987 -181.606756,119.55987 -4.755811,3.57386 -7.450987,5.53138 -9.275697,8.45555 -1.432734,2.29601 -3.438126,5.53881 -3.454303,9.26566 C 22.753244,322.25108 26.75,327.34 45.19,323.6 69.11,318.74 163.10021,297.85021 251.10021,281.68021 268.16907,282.38803 268.47,291.2 276.05,300.77 c 12.33549,34.34745 -222.8,37.69 -238.81,39.65 -0.62,0.08 -3.6,0.3 -4.22,0.27 -7.46,-0.4 -52.33,-4.62 -23.41,-48 37.28,-55.93 164.8,-109.84 200.13,-131.45 72.72,-44.48 65.58,-80.57 -3,-88.48 -75.42,-8.68 -144.2,16.45 -187.87,34.29 -2.398499,0.95464 -6.325374,3.67136 -8.723873,2.71672 -4.2399995,-1.6 -9.49102075,-10.352424 -5.7910208,-14.692423 z"
         id="path2699" />
      <path
         class="cls-1"
         d="m 460.47755,96.019181 c -2.00114,-9.061651 11.41292,-20.006958 11.41292,-20.006958 0,0 11.94763,-7.56286 12.46762,-7.746848 13.1179,-4.641506 161.80519,-53.582739 207.21518,22.674356 0.75144,1.904776 2.28746,10.430249 1.66916,14.314569 -1.01707,6.3895 -2.75317,16.23746 -26.38247,34.0057 -39.3391,29.58134 -150.06025,111.60103 -153.67025,118.24103 0,0 -1.81982,2.3315 -2.58698,3.45634 -4.51568,6.62101 -10.40372,15.85047 9.65723,14.13263 25.84475,-2.21311 60.13277,-18.12927 123.60971,-11.68331 0,0 61.82486,5.86526 27.75162,20.39666 -10.56006,4.50361 -81.49471,0.81503 -151.45471,4.04665 0,0 -81.88149,3.8227 -20.23905,-52.57122 0,0 59.36896,-50.72233 108.75874,-76.37838 7.22639,-3.75383 15.09826,-8.59138 22.13144,-12.63825 2.9642,-1.70558 6.51842,-4.3988 9.04693,-5.86031 0,0 4.36545,-2.86962 8.79446,-5.4205 C 665.63014,125.20693 702.15566,102.46712 679.11,88.7 650.7421,71.753449 527.02887,67.134753 474.05132,99.696702 c -0.91905,0.564888 -2.41146,1.308978 -3.75676,1.605278 -0.27127,0.0597 -0.61421,0.0819 -0.88616,0.17201 -0.0788,0.0261 -0.1224,0.0283 -0.19564,0.0386 -0.15376,0.0217 -0.32785,0.0322 -0.45839,0.0439 -0.0252,0.002 -0.11465,0.0192 -0.13902,0.0232 -1.48904,0.24801 -2.99819,-0.9305 -4.07811,-1.50545 -2.09642,-1.116063 -3.59093,-1.932396 -4.05969,-4.055059 z"
         id="path2701" />
      <path
         class="cls-1"
         d="m 911.72,242.4 c -3.55,5.45 2.17,-0.16 0,0 -1.10245,4.71651 -17.52732,16.60941 -25.22777,11.49944 -4.51788,-2.99804 -3.88211,-3.80774 0.46572,-16.25971 C 891.30578,225.18776 906.36,172.96 894.61,166.83 c -7.89,-4.12 -23.73,4.68 -33.28,10.89 -2.23828,1.42574 -4.98905,-0.85739 -4,-3.32 2.52,-6.32 5.22,-14.41 4.36,-18.29 -1.34,-6 -8.29,-4.28 -10.06,-3.73 -0.26268,0.0751 -0.49413,0.23292 -0.66,0.45 -4.28,5.54 -67.23,82.69 -82.73,89.57 -16.08,7.15 -44.92,13.91 -65.35,6.59 -18.41,-6.6 -9.23,-21.3 -5.67,-25 0.53187,-0.53557 1.39813,-0.53557 1.93,0 2.71,2.69 10.82,8.15 33.07,-2.9 l 0.55,-0.3 c 3.71,-2.13 37.34,-17.54 47.17,-41.37 0,0 -0.01,0.04 0,0 1.27489,-1.14102 9.21063,-27.83248 -15.78937,-27.23248 -0.1534,0.001 -7.35827,1.15133 -7.35827,1.15133 -2.09284,0.7602 -18.71795,4.31856 -37.10626,16.08553 -21.76502,13.92777 -42.98857,37.48261 -45.4061,66.07562 0,0 -3.76,21.36 17.37,27.66 18.32574,5.4639 31.43718,12.91868 65.25739,3.44814 2.92718,-0.81969 5.45354,-0.74862 10.29341,-3.36849 1.85266,-1.00286 10.856,-6.30518 17.66943,-12.07786 6.85654,-5.80923 10.30252,-10.35099 11.57432,-11.88006 2.07407,-2.3135 8.49068,-8.49457 8.57068,-8.64457 L 816.05,218.29 c 1.85384,-2.13819 5.1524,0.40059 3.56,2.74 -11,17 -24.06,37.76 -25.37,42.56 -2.24,8.41 8.46,10.22 11.76,8.41 3.11,-1.68 26.49,-45.89 29.33,-51.29 0.19,-0.36 0.35,-0.72 0.51,-1.1 7.34,-18.2 33.82,-39.34 39.95,-28.46 6.6,11.75 -0.45459,57.07477 -1.37,64.81349 0.15706,4.6899 0.81352,6.01517 2.98044,7.73966 3.10452,2.47067 8.54292,2.03084 9.67956,2.13685 0.23651,0.0205 -0.21572,0.0991 0,0 7.68527,0.18216 16.20324,-3.43905 24.62,-12.48 11.3,-6.36 3.85,-16.83 0.02,-10.96 z M 760.57,168 c 18,1.92 -31.32,32.7 -48.67,39.23 -1.31492,0.48742 -2.84404,-0.92456 -2.99285,-2.47347 C 710.70881,189.54206 744.09,166.26 760.57,168 Z"
         id="path2703" />
      <path
         class="cls-1"
         d="m 326.72,136.55 c 0,0 2,-5.25 10.21,0 8.21,5.25 -13.53,87 -35,149.26 0,0 87.83,-209.36 100.34,-125.62 0,0 52.09,-49.53 45.71,-3.32 -6.38,46.21 -22.92,82.47 0.54,103.92 0,0 31.30408,15.76653 -3.42592,21.12653 0,0 -26.73408,-3.76653 -29.03408,-45.68653 -2.3,-41.92 3.07,-72 3.07,-72 0,0 -18.50841,-1.27517 -26.69191,28.49925 -0.87756,3.19284 -2.03632,7.14267 -3.75033,12.19894 0,0 -24.45776,85.68181 -24.19776,89.00181 0,0 -7.66,8 -14.3,-5.08 l 34.47,-122.58 c 0,0 -11.61991,0.34927 -22.33857,22.85792 -0.37836,0.79453 -5.36495,9.6177 -5.72784,10.44699 -1.30488,2.98192 -4.62322,9.5291 -7.84155,15.69509 -14.27077,27.34137 -43.50204,93 -43.50204,93 0,0 -20.68,8.68 -19.91,-11.75 0.77,-20.43 35,-145.52 41.38,-159.97 z"
         id="path2705" />
      <circle
         class="cls-1"
         cx="344.59"
         cy="89.72"
         r="9.19"
         id="circle2707" />
      <path
         class="cls-1"
         d="M924.92,46.21c.47-3.55,14.45-6.28,7.46-15.64-7.63-10.22-22.75-2.84-25.12,4-6.14,17.82-9.83,19-12.68,26.78s4.5,7.82,4.5,7.82c1.27.2,8.22-9.83,11.69-15a6,6,0,0,1,5.56-2.6,5.47,5.47,0,0,1,3.23,1.49l7,6.63a7.16,7.16,0,0,1,2.18,4.59c.1,1.26.21,2.68.24,3.6.08,2,4.9,3.71,6.17,3.08S937,62.33,937,62.33C935.34,51,924.44,49.77,924.92,46.21ZM915.2,39.7a6.72,6.72,0,0,1,1.44-3.64,3.14,3.14,0,0,1,2.26-1.32c1.43-.15,3.67.23,3.87.68s-1.25,4.87-3.89,6.37C917.65,42.49,915.21,41.11,915.2,39.7Z"
         id="path2709" />
      <path
         class="cls-1"
         d="M915.46,0a48.34,48.34,0,1,0,48.35,48.34A48.34,48.34,0,0,0,915.46,0Zm0,88.6a40.26,40.26,0,1,1,40.26-40.26A40.26,40.26,0,0,1,915.46,88.6Z"
         id="path2711" />
    </g>
  </g>
</svg>
