<?xml version="1.0" standalone="no"?>
<!DOCTYPE svg PUBLIC "-//W3C//DTD SVG 20010904//EN"
 "http://www.w3.org/TR/2001/REC-SVG-20010904/DTD/svg10.dtd">
<svg version="1.0" xmlns="http://www.w3.org/2000/svg"
 width="700.000000pt" height="700.000000pt" viewBox="0 0 700.000000 700.000000"
 preserveAspectRatio="xMidYMid meet">
<metadata>
Created by potrace 1.14, written by Peter Selinger 2001-2017
</metadata>
<g transform="translate(0.000000,700.000000) scale(0.100000,-0.100000)"
fill="#000000" stroke="none">
<path d="M818 6989 c-97 -13 -241 -62 -333 -114 -264 -150 -441 -417 -475
-717 -8 -64 -10 -915 -8 -2723 l3 -2630 23 -84 c92 -345 355 -606 698 -693
l89 -23 2685 0 2685 0 89 23 c342 87 606 348 698 692 l23 85 3 2630 c2 1808 0
2659 -8 2723 -49 431 -391 778 -821 832 -103 12 -5250 12 -5351 -1z m3747
-743 c14 -126 27 -232 30 -234 2 -2 109 -17 237 -32 128 -15 226 -30 218 -33
-8 -3 -112 -16 -230 -28 -118 -12 -218 -25 -222 -28 -4 -4 -19 -107 -33 -231
-14 -124 -27 -229 -29 -235 -5 -15 -13 48 -37 265 -12 107 -26 198 -31 201 -5
3 -104 16 -221 28 -117 12 -219 25 -227 28 -8 3 90 18 217 33 128 15 235 29
237 31 2 2 13 92 25 199 26 232 33 288 37 275 2 -5 15 -113 29 -239z m-2570
-15 l16 -68 57 -13 c90 -19 92 -26 14 -44 l-70 -18 -18 -70 c-18 -78 -25 -76
-44 14 l-13 57 -69 16 c-38 10 -67 19 -65 22 3 2 33 12 67 21 68 18 66 16 90
110 6 23 12 42 14 42 2 0 11 -31 21 -69z m-956 -73 c1 -11 13 -18 39 -23 65
-11 70 -22 16 -37 -47 -13 -49 -15 -65 -68 l-16 -55 -12 45 c-7 25 -14 50 -16
56 -2 7 -27 17 -57 25 l-53 13 55 16 c55 16 55 16 70 70 l14 55 12 -40 c7 -22
13 -47 13 -57z m4762 -421 l15 -62 63 -17 c34 -9 68 -19 74 -21 7 -2 -22 -13
-63 -24 l-74 -20 -16 -61 c-8 -33 -18 -63 -21 -67 -4 -3 -14 25 -24 63 l-16
69 -57 13 c-90 19 -92 26 -14 44 l70 18 18 69 c10 38 20 66 23 63 3 -3 13 -33
22 -67z m-4300 -115 c14 -54 30 -97 39 -102 8 -4 57 -17 108 -30 51 -12 91
-24 88 -27 -2 -2 -50 -16 -107 -31 l-103 -27 -25 -102 c-14 -57 -28 -103 -31
-103 -4 0 -12 23 -19 52 -6 28 -18 75 -27 104 l-15 52 -67 16 c-37 10 -85 22
-107 28 l-40 11 101 27 c55 15 105 29 110 33 6 3 21 51 34 107 13 55 27 97 30
93 4 -5 18 -50 31 -101z m3599 -389 c7 -32 16 -63 21 -69 5 -6 36 -17 69 -24
33 -7 60 -16 60 -20 0 -4 -27 -13 -60 -20 -33 -7 -64 -18 -69 -24 -5 -6 -14
-37 -21 -68 -7 -32 -16 -58 -20 -58 -4 0 -13 26 -20 58 -7 31 -16 62 -21 68
-5 6 -36 17 -69 24 -33 7 -60 16 -60 20 0 4 27 13 60 20 33 7 64 18 69 24 5 6
14 37 21 69 7 31 16 57 20 57 4 0 13 -26 20 -57z m-124 -1198 c45 -37 183
-267 184 -307 0 -17 -7 -31 -19 -38 -13 -7 -555 -10 -1680 -10 -1495 0 -1661
2 -1675 16 -9 8 -16 23 -16 33 0 18 131 253 159 285 9 10 32 26 51 37 34 18
89 18 1497 16 l1461 -2 38 -30z m167 -1126 c21 -5 51 -22 67 -37 32 -29 210
-331 210 -356 0 -8 -10 -22 -22 -30 -20 -14 -220 -16 -1935 -16 -1900 0 -1913
0 -1933 20 -11 11 -20 24 -20 28 0 4 41 80 91 168 92 161 130 208 184 223 45
14 3311 13 3358 0z m309 -1351 c26 -20 69 -85 147 -220 61 -106 111 -200 111
-210 0 -9 -10 -24 -22 -32 -20 -14 -248 -16 -2223 -16 -1975 0 -2203 2 -2223
16 -12 8 -22 22 -22 31 0 14 181 336 222 396 11 15 36 36 56 47 36 19 73 19
1978 17 l1941 -2 35 -27z"/>
</g>
</svg>
