<svg xmlns="http://www.w3.org/2000/svg" viewBox="0 0 963.81 340.73"><defs><style>.cls-1{fill:#7d7d7d;}</style></defs><g id="Layer_2" data-name="Layer 2"><g id="Layer_1-2" data-name="Layer 1"><path class="cls-1" d="M5.4,98S24.68,68.53,110.46,52.45,250.64,53.4,267.83,78c14.63,20.93,19.94,57.19-49.37,99.4C183.29,198.81,64.39,272.26,35.08,294.3c-8.49,6.38-10.08,5.14-12.73,19.79-1.37,7.57,4.4,13.25,22.84,9.51,23.92-4.86,120-23.66,208-39.83,0,0,15.28,7.43,22.86,17,7.32,9.27-222.8,37.69-238.81,39.65-.62.08-3.6.3-4.22.27-7.46-.4-52.33-4.62-23.41-48,37.28-55.93,164.8-109.84,200.13-131.45,72.72-44.48,65.58-80.57-3-88.48C131.32,64.08,62.54,89.21,18.87,107.05a10.1,10.1,0,0,1-7.47,0C7.16,105.45,1.7,102.34,5.4,98Z"/><path class="cls-1" d="M461,95.34l12.25-25S658.64,2.91,698,97.89c0,0,8.17,11.75-31.14,41.37s-162.39,116.93-166,123.57-6.13,16.85,19.4,12.26S587.15,248,650,263.85c0,0,35.24,15.32,8.69,24,0,0-69.45-13.28-139.41,0,0,0-67.4,13.28-23.49-54.64,0,0,89.36-75.57,138.38-89.36,0,0,74-37.79,44.94-55.15S519.23,66.74,468.68,102Z"/><path class="cls-1" d="M911.72,242.4c-3.55,5.45-18.5,6.72-20.67,6.88a1.29,1.29,0,0,1-.58-.09c-1.59-.62-8.43-4.35,1.59-20.06,11.23-17.62,14.3-56.17,2.55-62.3-7.89-4.12-23.73,4.68-33.28,10.89a2.73,2.73,0,0,1-4-3.32c2.52-6.32,5.22-14.41,4.36-18.29-1.34-6-8.29-4.28-10.06-3.73a1.27,1.27,0,0,0-.66.45c-4.28,5.54-67.23,82.69-82.73,89.57-16.08,7.15-44.92,13.91-65.35,6.59-18.41-6.6-9.23-21.3-5.67-25a1.36,1.36,0,0,1,1.93,0c2.71,2.69,10.82,8.15,33.07-2.9l.55-.3c3.71-2.13,37.34-17.54,47.17-41.37,0,0,2.59-4.73,2.6-4.77.23-1.35,2.51-22.73-22.49-22.13a1.38,1.38,0,0,0-.45.08c-4.57,1.66-80.86,30.15-85.32,82.9,0,0-3.76,21.36,17.37,27.66s43.74,9.48,89-6.35c.19-.06,13-10.52,13.08-10.67l22.32-27.85a2.25,2.25,0,0,1,3.56,2.74c-11,17-24.06,37.76-25.37,42.56C792,272,802.7,273.81,806,272c3.11-1.68,26.49-45.89,29.33-51.29.19-.36.35-.72.51-1.1,7.34-18.2,33.82-39.34,39.95-28.46,6.6,11.75-3.41,65.28-1.37,69.62,1.82,3.86,10.73,4.89,12.66,5.07a1.37,1.37,0,0,0,.69-.12c2.07-1,13.74-6.57,23.93-12.36C923,247,915.55,236.53,911.72,242.4ZM760.57,168c18,1.92-31.32,32.7-48.67,39.23a1.37,1.37,0,0,1-1.53-2.16C718.65,195.08,744.09,166.26,760.57,168Z"/><path class="cls-1" d="M326.72,136.55s2-5.25,10.21,0-13.53,87-35,149.26c0,0,87.83-209.36,100.34-125.62,0,0,52.09-49.53,45.71-3.32s-22.92,82.47.54,103.92c0,0,32.14,16.08-2.59,21.44,0,0-27.57-4.08-29.87-46s3.07-72,3.07-72-22,7.15-27.83,47.49c0,0-27.07,78.89-26.81,82.21,0,0-7.66,8-14.3-5.08l34.47-122.58s-27.07,19.33-35.49,49-43.92,93-43.92,93-20.68,8.68-19.91-11.75S320.34,151,326.72,136.55Z"/><circle class="cls-1" cx="344.59" cy="89.72" r="9.19"/><path class="cls-1" d="M924.92,46.21c.47-3.55,14.45-6.28,7.46-15.64-7.63-10.22-22.75-2.84-25.12,4-6.14,17.82-9.83,19-12.68,26.78s4.5,7.82,4.5,7.82c1.27.2,8.22-9.83,11.69-15a6,6,0,0,1,5.56-2.6,5.47,5.47,0,0,1,3.23,1.49l7,6.63a7.16,7.16,0,0,1,2.18,4.59c.1,1.26.21,2.68.24,3.6.08,2,4.9,3.71,6.17,3.08S937,62.33,937,62.33C935.34,51,924.44,49.77,924.92,46.21ZM915.2,39.7a6.72,6.72,0,0,1,1.44-3.64,3.14,3.14,0,0,1,2.26-1.32c1.43-.15,3.67.23,3.87.68s-1.25,4.87-3.89,6.37C917.65,42.49,915.21,41.11,915.2,39.7Z"/><path class="cls-1" d="M915.46,0a48.34,48.34,0,1,0,48.35,48.34A48.34,48.34,0,0,0,915.46,0Zm0,88.6a40.26,40.26,0,1,1,40.26-40.26A40.26,40.26,0,0,1,915.46,88.6Z"/></g></g></svg>